<svg xmlns="http://www.w3.org/2000/svg" xmlns:xlink="http://www.w3.org/1999/xlink" width="17" height="13" viewBox="0 0 17 13"><defs><path id="r0k0a" d="M1316.34 1061.02a5.08 5.08 0 0 0 .96 1.48c.07.07.09.15.05.24-.03.1-.1.14-.19.14-.84 0-1.65-.23-2.43-.68a6.8 6.8 0 0 1-3.04.68 6.78 6.78 0 0 1-3.17-.74 4.79 4.79 0 0 1-2.08-1.94 7.58 7.58 0 0 0 4.16-.66 6.2 6.2 0 0 0 2.4-1.91 4.32 4.32 0 0 0 .85-3.17c1.04.33 1.89.86 2.55 1.6.65.74.98 1.56.98 2.47 0 .91-.35 1.74-1.04 2.5zM1313 1055c0 .79-.25 1.52-.76 2.2-.51.67-1.2 1.2-2.07 1.6-.86.38-1.81.58-2.85.58a6.8 6.8 0 0 1-3.04-.68c-.78.45-1.6.68-2.43.68-.1 0-.16-.05-.2-.14-.03-.09-.01-.17.06-.24.07-.08.18-.22.33-.44.27-.35.48-.7.63-1.04a3.55 3.55 0 0 1-.27-4.7c.5-.68 1.2-1.21 2.06-1.6.87-.4 1.82-.59 2.86-.59 1.04 0 1.99.2 2.85.59.87.39 1.56.92 2.07 1.6.51.67.76 1.4.76 2.18z"/></defs><g><g transform="translate(-1301 -1050)"><use fill="#e64443" xlink:href="#r0k0a"/></g></g></svg>