<svg xmlns="http://www.w3.org/2000/svg" xmlns:xlink="http://www.w3.org/1999/xlink" width="12" height="15" viewBox="0 0 12 15"><defs><path id="jizva" d="M1311.57 1269.05c-.05.02-.15 0-.27-.03-.19-.04-.4-.11-.66-.22.3-.02.52-.01.68.01.17.03.27.07.32.11.04.05.05.08.01.1-.02.02-.04.03-.08.03zm-2.84-1.4c.22.42.5.75.83 1-.3.05-.7.18-1.19.38l-.33.14c.22-.37.45-.88.7-1.52zm.13-1.78c0 .31-.02.53-.08.66-.07-.16-.1-.4-.1-.68 0-.3.01-.44.05-.44.09 0 .13.16.13.46zm-1.64 3.89l.11-.08a5.13 5.13 0 0 1-.74.9c-.07.05-.1.07-.1.05.07-.22.31-.5.73-.87zm2.93-1.42c-.46-.28-.8-.7-1.01-1.29v-.03c.18-.73.22-1.22.13-1.47-.03-.24-.13-.4-.3-.48a.64.64 0 0 0-.52-.03c-.18.06-.29.18-.33.34-.1.35-.04.96.2 1.83-.37.84-.7 1.52-.99 2.03-.84.44-1.3.86-1.4 1.26-.01.12.03.26.12.4.09.13.23.2.42.22.2.02.4-.07.64-.27.3-.25.6-.65.93-1.2l.33-.11c.7-.24 1.2-.38 1.53-.44a3.7 3.7 0 0 0 1.55.47c.2 0 .36-.07.46-.2a.7.7 0 0 0 .15-.45.57.57 0 0 0-.16-.42c-.24-.24-.82-.3-1.75-.16zm-5.09-7.28h4.38v2.85c0 .18.07.34.2.46.12.13.28.2.46.2h2.85v7.88h-7.89zm5.69 2.19v-2.08l2.08 2.08zm.82-3.12a1.27 1.27 0 0 0-.93-.38h-5.58c-.36 0-.67.13-.93.38-.25.26-.38.57-.38.93v11.38c0 .36.13.67.38.93.26.25.57.38.93.38h7.88c.36 0 .67-.13.93-.38.25-.26.38-.57.38-.93v-9.08c0-.37-.13-.68-.38-.93z"/></defs><g><g transform="translate(-1303 -1259)"><use fill="#e64443" xlink:href="#jizva"/></g></g></svg>