<svg xmlns="http://www.w3.org/2000/svg" xmlns:xlink="http://www.w3.org/1999/xlink" width="28" height="29" viewBox="0 0 28 29"><defs><path id="3slna" d="M907 3091.12c2.26 0 4.26-.69 5.99-2.07a9.4 9.4 0 0 0 3.36-5.3.6.6 0 0 1 .25-.36.7.7 0 0 1 .4-.14h2.69c.22 0 .39.08.52.25.12.16.17.33.13.52a13.81 13.81 0 0 1-7.25 9.6 13.13 13.13 0 0 1-6.09 1.44 13.53 13.53 0 0 1-10.34-4.76l.22 4.49c.04.22 0 .4-.13.52a.7.7 0 0 1-.52.19h-2.57a.63.63 0 0 1-.47-.2.63.63 0 0 1-.19-.46v-10.93c0-.19.06-.34.2-.47.12-.13.27-.19.46-.19h10.93c.19 0 .34.06.47.2.13.12.19.27.19.46v2.57c0 .18-.06.33-.2.46a.63.63 0 0 1-.46.2l-5.57-.28a9.52 9.52 0 0 0 7.98 4.26zm10.12-22.9c0-.23.06-.4.19-.53s.28-.19.46-.19h2.57c.19 0 .34.06.47.2.13.12.19.27.19.46v10.93c0 .19-.06.34-.2.47a.63.63 0 0 1-.46.19h-10.93a.63.63 0 0 1-.47-.2.63.63 0 0 1-.19-.46v-2.57c0-.18.06-.33.2-.46a.7.7 0 0 1 .51-.2l5.52.28a9.52 9.52 0 0 0-7.98-4.27c-2.26 0-4.26.7-5.99 2.08a9.4 9.4 0 0 0-3.36 5.3.6.6 0 0 1-.25.36.7.7 0 0 1-.4.14h-2.69a.62.62 0 0 1-.52-.25.62.62 0 0 1-.13-.52 13.81 13.81 0 0 1 7.25-9.6 13.13 13.13 0 0 1 6.09-1.44 13.53 13.53 0 0 1 10.34 4.76z"/></defs><g><g transform="translate(-893 -3067)"><use fill="#e64443" xlink:href="#3slna"/></g></g></svg>