<?xml version="1.0" encoding="utf-8"?>
<!-- Generator: Adobe Illustrator 22.1.0, SVG Export Plug-In . SVG Version: 6.00 Build 0)  -->
<svg version="1.1" id="Calque_1" xmlns="http://www.w3.org/2000/svg" xmlns:xlink="http://www.w3.org/1999/xlink" x="0px" y="0px"
	 viewBox="0 0 196 196" style="enable-background:new 0 0 196 196;" xml:space="preserve">
<g>
	<path class="st0" d="M186.2,22c-2.7,0-4.8,2.2-4.8,4.8v127.9c0,13.5-11,24.5-24.5,24.5H39.1c-13.5,0-24.5-11-24.5-24.5v-138h141.1
		v124.1c0,2.7,2.2,4.8,4.8,4.8s4.8-2.2,4.8-4.8V11.9c0-2.7-2.2-4.8-4.8-4.8H9.8C7.2,7.1,5,9.3,5,11.9v142.8
		c0,18.8,15.3,34.1,34.1,34.1h117.7c18.8,0,34.1-15.3,34.1-34.1V26.9C191,24.2,188.9,22,186.2,22L186.2,22z"/>
	<path class="st0" d="M137.3,44.6c2.6,0,4.8-2.2,4.8-4.8s-2.2-4.8-4.8-4.8H32.2c-2.7,0-4.8,2.2-4.8,4.8c0,2.6,2.2,4.8,4.8,4.8H137.3
		z"/>
	<path class="st0" d="M137.3,133.2H32.2c-2.7,0-4.8,2.2-4.8,4.8c0,2.7,2.2,4.8,4.8,4.8h105c2.7,0,4.8-2.2,4.8-4.8
		C142,135.3,139.9,133.2,137.3,133.2L137.3,133.2z"/>
	<path class="st0" d="M137.3,157.9H48.9c-2.7,0-4.8,2.2-4.8,4.8c0,2.7,2.2,4.8,4.8,4.8h88.4c2.6,0,4.8-2.2,4.8-4.8
		C142.1,160,139.9,157.9,137.3,157.9L137.3,157.9z"/>
	<path class="st0" d="M25.8,61.4v52.1c0,2.6,2.2,4.8,4.8,4.8h52.3c2.7,0,4.8-2.2,4.8-4.8V61.4c0-2.6-2.2-4.8-4.8-4.8H30.6
		C27.9,56.6,25.8,58.7,25.8,61.4L25.8,61.4z M35.4,66.2h42.7v42.5H35.4V66.2z"/>
	<path class="st0" d="M139.8,61.4h-34.7c-2.7,0-4.8,2.2-4.8,4.8c0,2.7,2.2,4.8,4.8,4.8h34.7c2.7,0,4.8-2.2,4.8-4.8
		C144.6,63.6,142.5,61.4,139.8,61.4L139.8,61.4z"/>
	<path class="st0" d="M139.8,83.2h-34.7c-2.7,0-4.8,2.2-4.8,4.8s2.2,4.8,4.8,4.8h34.7c2.7,0,4.8-2.2,4.8-4.8
		C144.6,85.3,142.5,83.2,139.8,83.2L139.8,83.2z"/>
	<path class="st0" d="M144.6,111.1c0-2.7-2.2-4.8-4.8-4.8h-34.7c-2.7,0-4.8,2.2-4.8,4.8c0,2.6,2.2,4.8,4.8,4.8h34.7
		C142.5,115.9,144.6,113.8,144.6,111.1L144.6,111.1z"/>
</g>
</svg>
