<?xml version="1.0" encoding="utf-8"?>
<!-- Generator: Adobe Illustrator 22.1.0, SVG Export Plug-In . SVG Version: 6.00 Build 0)  -->
<svg version="1.1" id="Calque_1" xmlns="http://www.w3.org/2000/svg" xmlns:xlink="http://www.w3.org/1999/xlink" x="0px" y="0px"
	 viewBox="0 0 196 196" style="enable-background:new 0 0 196 196;" xml:space="preserve">
<g>
	<path class="st0" d="M60,115.1c-4.4,0-9.2-1.7-12.2-5.2c-7-6.5-7.8-16.6,0-24.4l76.3-75.4c7-6.5,17.9-7,24.4,0c7,6.5,7,17.9,0,24.4
		l-76.3,75.4C68.7,113.4,64.4,115.1,60,115.1z M60,122.6c7,0,13.1-2.6,17.9-7.4l12.2-12.2l58,58c7,7,6.5,17.9,0,24.8
		c-3.5,3.5-7.8,5.2-12.2,5.2c-4.8,0-9.2-1.7-12.6-5.2L60,122.6z"/>
</g>
</svg>
