<?xml version="1.0" encoding="utf-8"?>
<!-- Generator: Adobe Illustrator 22.1.0, SVG Export Plug-In . SVG Version: 6.00 Build 0)  -->
<svg version="1.1" id="Calque_1" xmlns="http://www.w3.org/2000/svg" xmlns:xlink="http://www.w3.org/1999/xlink" x="0px" y="0px"
	 viewBox="0 0 196 196" style="enable-background:new 0 0 196 196;" xml:space="preserve">
<style type="text/css">
	.st1{clip-path:url(#SVGID_3_);}
</style>
<g>
	<g>
		<g>
			<path id="SVGID_1_" class="st0" d="M166.6,149.8c0,1.9-0.1,3.7-0.4,5.5c-0.5,3.3,26.2-131.7,24.8-128.8
				c-1.1,2.3-89-14.7-90.6-12.7c-2.1,2.7-57-3.9-59.8-1.9C38.4,13.4,7.6,17,5.1,18c-1.8,0.7,27.7,159.7,25.8,160.1
				c-2.3,0.5,103.6,6.4,101.1,6.4c-19.1,0-34.6-15.5-34.6-34.6s15.5-34.6,34.6-34.6S166.6,130.7,166.6,149.8z"/>
		</g>
		<g>
			<defs>
				<path id="SVGID_2_" d="M166.6,149.8c0,1.9-0.1,3.7-0.4,5.5c-0.5,3.3,26.2-131.7,24.8-128.8c-1.1,2.3-89-14.7-90.6-12.7
					c-2.1,2.7-57-3.9-59.8-1.9C38.4,13.4,7.6,17,5.1,18c-1.8,0.7,27.7,159.7,25.8,160.1c-2.3,0.5,103.6,6.4,101.1,6.4
					c-19.1,0-34.6-15.5-34.6-34.6s15.5-34.6,34.6-34.6S166.6,130.7,166.6,149.8z"/>
			</defs>
			<clipPath id="SVGID_3_">
				<use xlink:href="#SVGID_2_"  style="overflow:visible;"/>
			</clipPath>
			<g class="st1">
				<circle class="st0" cx="89.8" cy="55.9" r="17.7"/>
				<path class="st0" d="M115.3,125.3c0.9-0.9,1.2-2.2,1.1-3.5l-4-31.3c-0.5-4.5-4.2-8-8.8-8h-4.9c-1.2,0-2.3,0.5-3.1,1.3l-5.7,5.7
					l-5.7-5.7c-0.8-0.8-2-1.3-3.1-1.3h-4.8c-4.6,0-8.4,3.4-8.8,7.9l-4,31.5c-0.2,1.3,0.2,2.5,1.1,3.5c0.8,1,2,1.5,3.3,1.5h4.8
					l3.7,45.2c0.4,4.5,4.2,8,8.8,8h9.7c4.6,0,8.4-3.4,8.8-8.1l3.7-45.1h4.8C113.3,126.9,114.5,126.3,115.3,125.3z"/>
				<circle class="st0" cx="128.6" cy="55.9" r="17.7"/>
				<circle class="st0" cx="51.1" cy="55.9" r="17.7"/>
				<path class="st0" d="M155.2,121.9l-4-31.3c-0.5-4.6-4.2-8-8.8-8h-4.9c-1.2,0-2.3,0.5-3.1,1.3l-5.7,5.7l-5.7-5.7
					c-0.8-0.8-2-1.3-3.1-1.3h-4.9c-0.5,0-1,0.2-1.6,0.3c1.1,2,2,4.2,2.3,6.7l4,31.2c0.5,3.8-0.7,7.6-3.2,10.5
					c-1.2,1.4-2.7,2.4-4.4,3.1l2.9,28.8c0.5,4.5,4.2,8,8.8,8h9.7c4.6,0,8.4-3.4,8.8-8.1l3.7-36.3h4.8c1.3,0,2.5-0.5,3.3-1.5
					C155,124.4,155.3,123.1,155.2,121.9z"/>
				<path class="st0" d="M63.2,131.2c-2.5-2.8-3.7-6.7-3.2-10.5l4-31.5c0.2-2.4,1.1-4.5,2.2-6.5c-0.5-0.1-1-0.3-1.5-0.3h-4.9
					c-1.2,0-2.3,0.5-3.1,1.3l-5.7,5.7l-5.7-5.7c-0.8-0.8-2-1.3-3.1-1.3h-4.9c-4.6,0-8.4,3.4-8.8,7.9l-4,31.5
					c-0.2,1.3,0.2,2.5,1.1,3.5c0.8,1,2.1,1.5,3.3,1.5h4.8l3.7,36.3c0.4,4.5,4.2,8,8.8,8h9.7c4.6,0,8.4-3.4,8.8-8.1l2.9-28.8
					C66,133.6,64.5,132.6,63.2,131.2z"/>
			</g>
		</g>
	</g>
	<path class="st0" d="M132.2,119.3c-16.8,0-30.5,13.6-30.5,30.5s13.6,30.5,30.5,30.5s30.5-13.6,30.5-30.5S149,119.3,132.2,119.3z
		 M146.5,152.2h-11.6v12.2h-5.4v-12.2h-11.6v-5.2h11.6V135h5.4v12.1h11.6V152.2z"/>
</g>
</svg>
