<?xml version="1.0" encoding="utf-8"?>
<!-- Generator: Adobe Illustrator 22.1.0, SVG Export Plug-In . SVG Version: 6.00 Build 0)  -->
<svg version="1.1" id="Layer_1" xmlns="http://www.w3.org/2000/svg" xmlns:xlink="http://www.w3.org/1999/xlink" x="0px" y="0px"
	 viewBox="0 0 196 196" style="enable-background:new 0 0 196 196;" xml:space="preserve">
<g>
	<path fill="#000000" d="M178.3,165.8H17.7c-7.2,0-12.7-5.5-12.7-12.7v-93c0-7.2,5.5-12.7,12.7-12.7h36.8c1.7,0,3-0.8,3.8-2.1l3.8-8
		c1.7-4.2,6.3-7.2,11.4-7.2h48.6c5.1,0,9.7,3,11.4,7.2l3.8,7.2c0.8,1.3,2.1,2.1,3.8,2.1h37.2c7.2,0,12.7,5.5,12.7,12.7v93
		C191,160.4,185.5,165.8,178.3,165.8z M17.7,55.9c-2.5,0-4.2,1.7-4.2,4.2v93c0,2.5,1.7,4.2,4.2,4.2h160.6c2.5,0,4.2-1.7,4.2-4.2v-93
		c0-2.5-1.7-4.2-4.2-4.2h-37.2c-4.6,0-8.9-2.5-11.4-6.8l-3.8-7.6c-0.8-1.7-2.1-2.1-3.8-2.1H73.5c-1.7,0-3,0.8-3.8,2.1l-3.8,8
		c-1.7,4.2-6.3,7.2-11.4,7.2H17.7V55.9z"/>
	<path fill="#000000" d="M98,148.9c-23.2,0-42.3-19-42.3-42.3s19-42.3,42.3-42.3s42.3,19,42.3,42.3S121.2,148.9,98,148.9z M98,72.8
		c-18.6,0-33.8,15.2-33.8,33.8s15.2,33.8,33.8,33.8s33.8-15.2,33.8-33.8S116.6,72.8,98,72.8z"/>
</g>
</svg>
