<?xml version="1.0" encoding="utf-8"?>
<!-- Generator: Adobe Illustrator 22.1.0, SVG Export Plug-In . SVG Version: 6.00 Build 0)  -->
<svg version="1.1" id="Calque_1" xmlns="http://www.w3.org/2000/svg" xmlns:xlink="http://www.w3.org/1999/xlink" x="0px" y="0px"
	 viewBox="0 0 196 196" style="enable-background:new 0 0 196 196;" xml:space="preserve">
<g>
	<path class="st0" d="M48.4,191C24.4,191,5,171.5,5,147.6c0-11.5,4.6-22.5,12.7-30.6l39.4-39.5c8.1-8.2,19.2-12.7,30.7-12.7
		c8.3,0,16.4,2.4,23.4,6.9c2.6,1.7,5.1,3.6,7.3,5.9c2.5,2.5,3.8,6,3.6,9.5c-0.2,3-1.5,5.8-3.6,7.9c-4.9,4.6-12.5,4.6-17.4,0
		c-7.3-7.3-19-7.3-26.3,0l-39.6,39.5c-7.3,7.3-7.3,19,0,26.3c7.3,7.3,19,7.3,26.3,0l0,0l23.4-23.4c0.9-0.9,2.2-1.2,3.4-0.7
		c6.3,2.6,13,3.9,19.8,3.8h1.2c1.7,0,3.1,1.4,3.1,3.1c0,0.8-0.3,1.6-0.9,2.2L79,178.4C70.9,186.5,59.9,191,48.4,191z"/>
	<path class="st0" d="M108.3,131.2h-0.2H106c-1.5-0.1-3.1-0.2-4.6-0.4c-1.3-0.2-2.5-0.5-3.8-0.8l-1.8-0.5c-0.7-0.2-1.3-0.4-2-0.7
		c-0.7-0.2-1.3-0.5-2-0.7c-0.7-0.3-1.3-0.5-2-0.8c-4.6-2.1-8.8-5.1-12.4-8.7c-2.5-2.5-3.8-6-3.6-9.5c0.2-3,1.5-5.8,3.6-7.9
		c4.9-4.6,12.5-4.6,17.4,0c7.3,7.3,19,7.3,26.3,0L131.3,91l0.2-0.3l29.1-29c7.3-7.3,7.3-19,0-26.3c-7.3-7.3-19-7.3-26.3,0L111,58.7
		c-0.9,0.9-2.2,1.2-3.4,0.7c-6.3-2.6-13-3.9-19.8-3.9h-1.1c-1.3,0-2.4-0.7-2.9-1.9c-0.5-1.2-0.2-2.5,0.7-3.4l32.5-32.5
		c16.9-16.9,44.4-16.9,61.4,0s16.9,44.4,0,61.4l-39.5,39.5c-5.6,5.6-12.5,9.5-20.1,11.4h-0.3l-1.8,0.4l-1,0.2l-2.1,0.3h-1.1
		c-0.8,0-1.5,0.2-2.2,0.2L108.3,131.2z"/>
</g>
</svg>
