<?xml version="1.0" encoding="utf-8"?>
<!-- Generator: Adobe Illustrator 22.1.0, SVG Export Plug-In . SVG Version: 6.00 Build 0)  -->
<svg version="1.1" id="Layer_1" xmlns="http://www.w3.org/2000/svg" xmlns:xlink="http://www.w3.org/1999/xlink" x="0px" y="0px"
	 viewBox="0 0 196 196" style="enable-background:new 0 0 196 196;" xml:space="preserve">
<style type="text/css">
	.st0{fill:#000000;}
</style>
<g>
	<g transform="translate(-1301 -1050)">
		<g>
			<path id="r0k0a" class="st0" d="M1479.7,1198.6c2.7,6.4,6.6,12.4,11.3,17.5c0.8,0.8,1.1,1.8,0.6,2.8c-0.4,1.2-1.2,1.7-2.2,1.7
				c-9.9,0-19.5-2.7-28.7-8c-11.2,5.4-23.5,8.2-35.9,8c-13,0.2-25.9-2.8-37.5-8.7c-10.3-5-18.9-13-24.6-22.9
				c16.8,2.1,33.8-0.6,49.1-7.8c11.2-5,20.9-12.8,28.4-22.6c8.1-10.7,11.8-24.1,10-37.5c12.3,3.9,22.3,10.2,30.1,18.9
				c7.7,8.7,11.6,18.4,11.6,29.2c0,10.8-4.1,20.6-12.3,29.5V1198.6z M1440.3,1127.5c0,9.3-3,18-9,26c-6,7.9-14.2,14.2-24.5,18.9
				c-10.2,4.5-21.4,6.9-33.7,6.9c-12.4,0.1-24.7-2.6-35.9-8c-9.2,5.3-18.9,8-28.7,8c-1.2,0-1.9-0.6-2.4-1.7c-0.4-1.1-0.1-2,0.7-2.8
				c0.8-0.9,2.1-2.6,3.9-5.2c3.2-4.1,5.7-8.3,7.4-12.3c-14.9-15-16.3-38.9-3.2-55.5c5.9-8,14.2-14.3,24.3-18.9
				c10.3-4.7,21.5-7,33.8-7c12.3,0,23.5,2.4,33.7,7c10.3,4.6,18.4,10.9,24.5,18.9C1437.3,1109.7,1440.3,1118.3,1440.3,1127.5z"/>
		</g>
	</g>
</g>
</svg>
