<?xml version="1.0" encoding="utf-8"?>
<!-- Generator: Adobe Illustrator 22.1.0, SVG Export Plug-In . SVG Version: 6.00 Build 0)  -->
<svg version="1.1" id="Calque_1" xmlns="http://www.w3.org/2000/svg" xmlns:xlink="http://www.w3.org/1999/xlink" x="0px" y="0px"
	 viewBox="0 0 196 196" style="enable-background:new 0 0 196 196;" xml:space="preserve">
<g>
	<path class="st0" d="M172.4,11.2H23.6C13.5,11.2,5,19.7,5,29.8v102.3c0,10.1,8.5,18.6,18.6,18.6h88.5l30.1,33.1
		c0.6,0.7,1.4,1,2.3,1c0.4,0,0.8-0.1,1.1-0.2c1.2-0.5,2-1.6,2-2.9v-31h24.8c10.1,0,18.6-8.5,18.6-18.6V29.8
		C191,19.7,182.5,11.2,172.4,11.2L172.4,11.2z M54.6,91.8c-6.8,0-12.4-5.6-12.4-12.4c0-6.8,5.6-12.4,12.4-12.4
		C61.4,67,67,72.6,67,79.4C67,86.2,61.4,91.8,54.6,91.8L54.6,91.8z M98,91.8c-6.8,0-12.4-5.6-12.4-12.4C85.6,72.6,91.2,67,98,67
		c6.8,0,12.4,5.6,12.4,12.4C110.4,86.2,104.8,91.8,98,91.8L98,91.8z M141.4,91.8c-6.8,0-12.4-5.6-12.4-12.4
		c0-6.8,5.6-12.4,12.4-12.4c6.8,0,12.4,5.6,12.4,12.4C153.8,86.2,148.2,91.8,141.4,91.8L141.4,91.8z"/>
</g>
</svg>
