<?xml version="1.0" encoding="utf-8"?>
<!-- Generator: Adobe Illustrator 22.1.0, SVG Export Plug-In . SVG Version: 6.00 Build 0)  -->
<svg version="1.1" id="Calque_1" xmlns="http://www.w3.org/2000/svg" xmlns:xlink="http://www.w3.org/1999/xlink" x="0px" y="0px"
	 viewBox="0 0 196 196" style="enable-background:new 0 0 196 196;" xml:space="preserve">
<style type="text/css">
	.st0{clip-path:url(#SVGID_2_);}
</style>
<g>
	<g>
		<g>
			<defs>
				
					<rect id="SVGID_1_" x="5.9" y="5.7" transform="matrix(1 -7.099821e-03 7.099821e-03 1 -0.6933 0.6983)" width="184.1" height="184.7"/>
			</defs>
			<clipPath id="SVGID_2_">
				<use xlink:href="#SVGID_1_"  style="overflow:visible;"/>
			</clipPath>
			<path class="st0" d="M177.4,14.9c-6.3-6.3-14.8-9.7-23.7-9.6c-8.9,0.1-17.3,3.6-23.5,9.9L30.5,115.8c-0.6,0.6-1,1.3-1.3,2.1
				L6.9,180.5c-0.7,2-0.2,4.3,1.3,5.9c1.1,1.1,2.6,1.8,4.1,1.7c0.6,0,1.1-0.1,1.7-0.3l56.4-17.7c0.9-0.3,1.7-0.8,2.3-1.4L177.8,62.1
				c6.2-6.3,9.7-14.8,9.6-23.7C187.3,29.5,183.8,21.1,177.4,14.9L177.4,14.9z M63.7,160.3l-21.1,6.7c-1.2-3.6-3.2-6.8-5.8-9.4
				c-2.3-2.3-4.9-4-7.7-5.4l9.5-26.7l13.1-0.1l0.1,11.3c0,3.2,2.6,5.7,5.7,5.6l10-0.1L63.7,160.3z M146.8,77.3L78,147l1.9-9.4
				c0.4-1.7-0.1-3.4-1.2-4.7c-1.1-1.3-2.7-2.1-4.4-2.1L63,130.9l-0.1-11.4c0-3.1-2.6-5.7-5.7-5.6l-9,0.1l67.1-67.7l0.1,0.1
				c4.1-4.2,9.7-6.5,15.5-6.6c5.9,0,11.5,2.2,15.6,6.4c4.2,4.1,6.5,9.6,6.6,15.5C153.2,67.6,150.9,73.1,146.8,77.3L146.8,77.3z
				 M169.6,54.1l-5.3,5.3c-0.6-8.1-4-15.7-9.8-21.4c-5.8-5.8-13.4-9.1-21.6-9.5l5.3-5.3v0c4.1-4.2,9.6-6.5,15.5-6.5
				c5.9,0,11.4,2.2,15.6,6.3c4.2,4.1,6.5,9.7,6.6,15.5C176,44.4,173.8,49.9,169.6,54.1L169.6,54.1z M132.3,52.5l-56.4,57.2
				c-2.2,2.2-2.2,5.8,0.1,8c1.1,1.1,2.6,1.6,4,1.6c1.5,0,2.9-0.6,4-1.7l56.4-57.2c2.2-2.2,2.2-5.8-0.1-8
				C138.1,50.3,134.5,50.3,132.3,52.5L132.3,52.5z"/>
		</g>
	</g>
</g>
</svg>
