<?xml version="1.0" encoding="utf-8"?>
<!-- Generator: Adobe Illustrator 22.1.0, SVG Export Plug-In . SVG Version: 6.00 Build 0)  -->
<svg version="1.1" id="Calque_1" xmlns="http://www.w3.org/2000/svg" xmlns:xlink="http://www.w3.org/1999/xlink" x="0px" y="0px"
	 viewBox="0 0 196 196" style="enable-background:new 0 0 196 196;" xml:space="preserve">
<g>
	<circle class="st0" cx="143.7" cy="42.4" r="3.6"/>
	<circle class="st0" cx="34.8" cy="151.6" r="3.6"/>
	<path class="st0" d="M120.2,66c2.8,2.6,4.4,6.2,4.4,10.1v4.6c0,3,1.4,5.7,3.6,7.4v10.6c0,4.9,4,8.9,8.9,8.9h13.2
		c4.9,0,8.9-4,8.9-8.9V88.2c2.2-1.7,3.6-4.4,3.6-7.4v-4.6c0-3.8,1.6-7.5,4.5-10.1c7.3-6.6,11.5-16.1,11.5-25.9
		c0-9.5-3.7-18.3-10.4-25C161.6,8.5,152.7,4.9,143.2,5c-9.1,0.1-17.7,3.8-24.2,10.2c-6.5,6.5-10.2,15-10.4,24.2
		C108.5,49.5,112.7,59.2,120.2,66z M152,98.8c0,0.9-0.7,1.7-1.7,1.7h-13.2c-0.9,0-1.7-0.7-1.7-1.7v-8.5H152V98.8L152,98.8z
		 M143.3,12.3c0.1,0,0.3,0,0.4,0c7.4,0,14.3,2.8,19.5,8c5.3,5.3,8.3,12.3,8.3,19.8c0,7.8-3.3,15.3-9.1,20.6c-4.4,4-6.9,9.6-6.9,15.5
		v4.6c0,1.2-1,2.2-2.2,2.2h-6V56.7c0-2-1.6-3.6-3.6-3.6s-3.6,1.6-3.6,3.6V83h-6c-1.2,0-2.2-1-2.2-2.2v-4.6c0-5.9-2.5-11.5-6.8-15.5
		c-5.9-5.4-9.3-13.1-9.1-21.1C116.2,24.7,128.5,12.5,143.3,12.3z"/>
	<path class="st0" d="M189.3,126.3c-3.2-7.2-11.5-10.4-18.7-7.2c0,0,0,0-0.1,0L147,130c-1.8,0.8-2.6,3-1.8,4.8s3,2.6,4.8,1.8
		l23.6-10.9c3.5-1.5,7.6,0.1,9.1,3.5c1.5,3.5,0,7.6-3.5,9.1l-48.3,21.3c-7.7,3.4-16.3,3.2-23.8-0.5l-17.7-8.8
		c-9.4-4.7-20.4-4.9-30-0.7l-0.3,0.1l-13.2-29.9l18.3-8.1c8.7-3.9,18.5-4.2,27.5-0.9l35.6,13.1c3.2,1.2,5,4.8,3.8,8.1
		c-1.1,3.3-4.8,5.1-8.1,4l-27.5-9.3c-1.9-0.6-4,0.4-4.6,2.3s0.4,4,2.3,4.6l27.5,9.3c1.4,0.5,2.9,0.7,4.4,0.7c5.7,0,11-3.6,12.9-9.2
		c2.4-7-1.3-14.7-8.2-17.2l-35.6-13.1c-10.7-3.9-22.4-3.6-32.9,1.1l-18.5,8.1c-2.4-3.7-7.2-5.2-11.4-3.4L7.8,120.4
		c-1.3,0.6-2.2,1.9-2.2,3.3l-0.2,63.7c0,1.3,0.6,2.4,1.7,3.1c0.6,0.4,1.2,0.5,1.9,0.5c0.6,0,1.1-0.1,1.6-0.4l46.1-23.3
		c4.2-1.9,6.2-6.5,5-10.8l0.4-0.2c7.7-3.4,16.3-3.2,23.8,0.5l17.7,8.8c9.4,4.7,20.4,4.9,30,0.7l48.3-21.3
		C189.3,141.8,192.5,133.5,189.3,126.3z M53.8,160.7c-0.1,0-0.1,0.1-0.2,0.1l-40.9,20.6l0-15.8l10.6-5.2c1.8-0.9,2.5-3.1,1.7-4.9
		c-0.9-1.8-3.1-2.5-4.9-1.7l-7.4,3.6l0.1-31.5l21.4-9.4c1-0.4,2.1,0,2.5,1l17,38.5c0,0,0,0,0,0l0.9,2.1
		C55.2,159.2,54.7,160.3,53.8,160.7z"/>
</g>
</svg>
