<?xml version="1.0" encoding="utf-8"?>
<!-- Generator: Adobe Illustrator 22.1.0, SVG Export Plug-In . SVG Version: 6.00 Build 0)  -->
<svg version="1.1" id="Calque_1" xmlns="http://www.w3.org/2000/svg" xmlns:xlink="http://www.w3.org/1999/xlink" x="0px" y="0px"
	 viewBox="0 0 196 196" style="enable-background:new 0 0 196 196;" xml:space="preserve">
<g>
	<path class="st0" d="M191,43.5c0-9-7.3-16.3-16.3-16.3H21.3c-9,0-16.3,7.3-16.3,16.3v109c0,9,7.3,16.3,16.3,16.3h153.3
		c9,0,16.3-7.3,16.3-16.3V43.5z M15.9,45.7l52.5,52l-52.5,52.5C15.9,150.2,15.9,45.7,15.9,45.7z M98.3,112.1l-74.7-74h148.7
		L98.3,112.1z M76.1,105.4l18.4,18.2c2.1,2.1,5.6,2.1,7.7,0l17.9-17.9l52.2,52.2H23.6L76.1,105.4z M127.9,98l52.2-52.2v104.5
		L127.9,98z"/>
</g>
</svg>
