<?xml version="1.0" encoding="utf-8"?>
<!-- Generator: Adobe Illustrator 22.1.0, SVG Export Plug-In . SVG Version: 6.00 Build 0)  -->
<svg version="1.1" id="Calque_1" xmlns="http://www.w3.org/2000/svg" xmlns:xlink="http://www.w3.org/1999/xlink" x="0px" y="0px"
	 viewBox="0 0 196 196" style="enable-background:new 0 0 196 196;" xml:space="preserve">
<g>
	<path class="st0" d="M54,104.1h20.4V188c0,1.7,1.3,3,3,3H112c1.7,0,3-1.3,3-3v-83.5h23.4c1.5,0,2.8-1.1,3-2.7l3.6-30.9
		c0.1-0.8-0.2-1.7-0.7-2.3c-0.6-0.6-1.4-1-2.2-1h-27V48.2c0-5.8,3.1-8.8,9.3-8.8H142c1.7,0,3-1.3,3-3V8c0-1.7-1.3-3-3-3h-24.3
		c-0.2,0-0.6,0-1.1,0c-4.2,0-18.9,0.8-30.5,11.5C73.2,28.3,75,42.5,75.4,44.9v22.7H54c-1.7,0-3,1.3-3,3v30.5
		C51,102.7,52.4,104.1,54,104.1L54,104.1z"/>
</g>
</svg>
