<?xml version="1.0" encoding="utf-8"?>
<!-- Generator: Adobe Illustrator 22.1.0, SVG Export Plug-In . SVG Version: 6.00 Build 0)  -->
<svg version="1.1" id="Calque_1" xmlns="http://www.w3.org/2000/svg" xmlns:xlink="http://www.w3.org/1999/xlink" x="0px" y="0px"
	 viewBox="0 0 196 196" style="enable-background:new 0 0 196 196;" xml:space="preserve">
<g>
	<g>
		<path class="st0" d="M98,191c-51.3,0-93-41.7-93-93S46.7,5,98,5s93,41.7,93,93S149.3,191,98,191z M98,11.4
			c-47.7,0-86.6,38.8-86.6,86.6s38.8,86.6,86.6,86.6c47.7,0,86.6-38.8,86.6-86.6S145.7,11.4,98,11.4z"/>
	</g>
	<g>
		<g>
			<path class="st0" d="M73.9,101.3h11.2v46c0,0.9,0.7,1.6,1.6,1.6h18.9c0.9,0,1.6-0.7,1.6-1.6v-45.8h12.8c0.8,0,1.5-0.6,1.6-1.5
				l2-16.9c0.1-0.5-0.1-0.9-0.4-1.3c-0.3-0.3-0.8-0.5-1.2-0.5h-14.8V70.7c0-3.2,1.7-4.8,5.1-4.8h9.7c0.9,0,1.6-0.7,1.6-1.6V48.7
				c0-0.9-0.7-1.6-1.6-1.6h-13.3c-0.1,0-0.3,0-0.6,0c-2.3,0-10.4,0.5-16.7,6.3c-7,6.5-6.1,14.2-5.8,15.6v12.4H73.9
				c-0.9,0-1.6,0.7-1.6,1.6v16.7C72.2,100.6,73,101.3,73.9,101.3L73.9,101.3z"/>
		</g>
	</g>
</g>
</svg>
