<?xml version="1.0" encoding="utf-8"?>
<!-- Generator: Adobe Illustrator 22.1.0, SVG Export Plug-In . SVG Version: 6.00 Build 0)  -->
<svg version="1.1" id="Calque_1" xmlns="http://www.w3.org/2000/svg" xmlns:xlink="http://www.w3.org/1999/xlink" x="0px" y="0px"
	 viewBox="0 0 196 196" style="enable-background:new 0 0 196 196;" xml:space="preserve">
<g>
	<path class="st0" d="M185.5,37L37,185.5c-7.3,7.3-19.3,7.3-26.6,0l0,0c-7.3-7.3-7.3-19.3,0-26.6L159,10.5c7.3-7.3,19.3-7.3,26.6,0
		l0,0C192.8,17.8,192.8,29.7,185.5,37z"/>
	<path class="st0" d="M37,10.5L185.5,159c7.3,7.3,7.3,19.3,0,26.6l0,0c-7.3,7.3-19.3,7.3-26.6,0L10.5,37c-7.3-7.3-7.3-19.3,0-26.6
		l0,0C17.8,3.2,29.7,3.2,37,10.5z"/>
</g>
</svg>
