<?xml version="1.0" encoding="utf-8"?>
<!-- Generator: Adobe Illustrator 22.1.0, SVG Export Plug-In . SVG Version: 6.00 Build 0)  -->
<svg version="1.1" id="Layer_1" xmlns="http://www.w3.org/2000/svg" xmlns:xlink="http://www.w3.org/1999/xlink" x="0px" y="0px"
	 viewBox="0 0 196 196" style="enable-background:new 0 0 196 196;" xml:space="preserve">
<path d="M98.6,103.5c3.2,0,5.6,1,7.4,2.9c3.5,4,3.6,11.9-0.1,16c-1.8,2-4.3,3.1-7.7,3.1h-9.8v-22.1H98.6z M165.2,43.1L129.6,7.5
	C128,5.9,125.8,5,123.4,5h-2.2v46.5h46.5v-2.2C167.8,47,166.8,44.8,165.2,43.1z M109.6,54.4V5H37c-4.8,0-8.7,3.9-8.7,8.7v168.6
	c0,4.8,3.9,8.7,8.7,8.7H159c4.8,0,8.7-3.9,8.7-8.7V63.1h-49.4C113.5,63.1,109.6,59.2,109.6,54.4z M128.9,114.4
	c0,32.8-32.3,28.2-40.4,28.2v20.8c0,2.4-2,4.4-4.4,4.4H73c-2.4,0-4.4-2-4.4-4.4V90.8c0-2.4,2-4.4,4.4-4.4h29.4
	C118.6,86.4,128.9,98.4,128.9,114.4z"/>
</svg>
