<?xml version="1.0" encoding="utf-8"?>
<!-- Generator: Adobe Illustrator 22.1.0, SVG Export Plug-In . SVG Version: 6.00 Build 0)  -->
<svg version="1.1" id="Layer_1" xmlns="http://www.w3.org/2000/svg" xmlns:xlink="http://www.w3.org/1999/xlink" x="0px" y="0px"
	 viewBox="0 0 196 196" style="enable-background:new 0 0 196 196;" xml:space="preserve">
<path d="M109.6,54.4V5H37c-4.8,0-8.7,3.9-8.7,8.7v168.6c0,4.8,3.9,8.7,8.7,8.7H159c4.8,0,8.7-3.9,8.7-8.7V63.1h-49.4
	C113.5,63.1,109.6,59.2,109.6,54.4z M131.5,93.1l-21.8,34l21.8,34c1.9,2.9-0.2,6.7-3.7,6.7h-12.7c-1.6,0-3.1-0.9-3.9-2.3
	c-7.1-13.2-13.3-25-13.3-25c-2.3,5.4-3.6,7.3-13.3,25c-0.8,1.4-2.2,2.3-3.8,2.3H68.2c-3.5,0-5.5-3.8-3.7-6.7l21.9-34l-21.9-34
	c-1.9-2.9,0.2-6.7,3.7-6.7h12.6c1.6,0,3.1,0.9,3.9,2.3c9.5,17.7,7.3,12.2,13.3,24.9c0,0,2.2-4.3,13.3-24.9c0.8-1.4,2.3-2.3,3.9-2.3
	h12.6C131.2,86.4,133.3,90.2,131.5,93.1L131.5,93.1z M167.8,49.3v2.2h-46.5V5h2.2c2.3,0,4.5,0.9,6.2,2.5l35.6,35.6
	C166.8,44.8,167.8,47,167.8,49.3z"/>
</svg>
