<?xml version="1.0" encoding="utf-8"?>
<!-- Generator: Adobe Illustrator 22.1.0, SVG Export Plug-In . SVG Version: 6.00 Build 0)  -->
<svg version="1.1" id="Layer_1" xmlns="http://www.w3.org/2000/svg" xmlns:xlink="http://www.w3.org/1999/xlink" x="0px" y="0px"
	 viewBox="0 0 196 196" style="enable-background:new 0 0 196 196;" xml:space="preserve">
<path d="M109.6,54.4V5H37c-4.8,0-8.7,3.9-8.7,8.7v168.6c0,4.8,3.9,8.7,8.7,8.7H159c4.8,0,8.7-3.9,8.7-8.7V63.1h-49.4
	C113.5,63.1,109.6,59.2,109.6,54.4z M130.4,98h8.7c2.8,0,4.9,2.6,4.3,5.3l-13.8,61c-0.4,2-2.2,3.4-4.3,3.4h-13.8
	c-2,0-3.7-1.4-4.2-3.3c-9.4-37.6-7.6-29.5-9.3-40.1h-0.2c-0.4,5.2-0.9,6.3-9.3,40.1c-0.5,1.9-2.2,3.3-4.2,3.3H70.8
	c-2,0-3.8-1.4-4.3-3.4l-13.7-61c-0.6-2.7,1.5-5.3,4.3-5.3h8.9c2.1,0,3.9,1.5,4.3,3.5c5.7,28.3,7.3,39.8,7.6,44.4
	c0.6-3.7,2.7-11.9,10.7-44.6c0.5-2,2.2-3.3,4.3-3.3h10.6c2,0,3.8,1.4,4.3,3.3c8.7,36.5,10.5,45,10.8,47c-0.1-4.1-0.9-6.5,7.8-46.9
	C126.6,99.4,128.3,98,130.4,98z M167.8,49.3v2.2h-46.5V5h2.2c2.3,0,4.5,0.9,6.2,2.5l35.6,35.6C166.8,44.8,167.8,47,167.8,49.3z"/>
</svg>
