<?xml version="1.0" encoding="utf-8"?>
<!-- Generator: Adobe Illustrator 22.1.0, SVG Export Plug-In . SVG Version: 6.00 Build 0)  -->
<svg version="1.1" id="Layer_1" xmlns="http://www.w3.org/2000/svg" xmlns:xlink="http://www.w3.org/1999/xlink" x="0px" y="0px"
	 viewBox="0 0 196 196" style="enable-background:new 0 0 196 196;" xml:space="preserve">
<path d="M167.8,49.3v2.2h-46.5V5h2.2c2.3,0,4.5,0.9,6.2,2.6l35.6,35.6C166.8,44.8,167.7,47,167.8,49.3z M118.3,63.1
	c-4.8,0-8.7-3.9-8.7-8.7V5H37c-4.8,0-8.7,3.9-8.7,8.7v168.6c0,4.8,3.9,8.7,8.7,8.7H159c4.8,0,8.7-3.9,8.7-8.7V63.1H118.3z
	 M69.1,68.9c9.6,0,17.4,7.8,17.4,17.4s-7.8,17.4-17.4,17.4S51.7,96,51.7,86.4S59.5,68.9,69.1,68.9z M144.7,156.1h-93l0.2-17.6
	l14.4-14.4c1.7-1.7,4.3-1.5,6,0.2l14.4,14.4l37.6-37.6c1.7-1.7,4.5-1.7,6.2,0l14.4,14.4L144.7,156.1L144.7,156.1z"/>
</svg>
