<?xml version="1.0" encoding="utf-8"?>
<!-- Generator: Adobe Illustrator 22.1.0, SVG Export Plug-In . SVG Version: 6.00 Build 0)  -->
<svg version="1.1" id="Layer_1" xmlns="http://www.w3.org/2000/svg" xmlns:xlink="http://www.w3.org/1999/xlink" x="0px" y="0px"
	 viewBox="0 0 196 196" style="enable-background:new 0 0 196 196;" xml:space="preserve">
<path d="M94.3,98c-1.8-5.8-1.8-17-0.7-17C96.7,81,96.4,94.4,94.3,98z M93.7,115.2c-2.8,7.3-6.3,15.7-10.3,22.8
	c6.6-2.5,14.2-6.2,22.9-8C101.6,126.5,97.2,121.5,93.7,115.2L93.7,115.2z M59.5,160.5c0,0.3,4.8-2,12.7-14.6
	C69.8,148.2,61.6,154.8,59.5,160.5z M118.3,63.1h49.4v119.2c0,4.8-3.9,8.7-8.7,8.7H37c-4.8,0-8.7-3.9-8.7-8.7V13.7
	C28.2,8.9,32.1,5,37,5h72.7v49.4C109.6,59.2,113.5,63.1,118.3,63.1z M115.4,125.5c-7.3-4.4-12.1-10.5-15.5-19.5
	c1.6-6.7,4.2-16.9,2.3-23.3C100.5,72,86.8,73,84.8,80.2c-1.8,6.6-0.1,16,2.9,28c-4.2,10-10.4,23.5-14.8,31.2c0,0,0,0-0.1,0
	c-9.8,5-26.7,16.2-19.8,24.7c2,2.5,5.8,3.6,7.8,3.6c6.5,0,13-6.5,22.2-22.5c9.4-3.1,19.7-6.9,28.7-8.4c7.9,4.3,17.1,7.1,23.2,7.1
	c10.6,0,11.3-11.6,7.2-15.8C137.1,123.2,122.4,124.6,115.4,125.5z M165.2,43.1L129.6,7.5C128,5.9,125.8,5,123.4,5h-2.2v46.5h46.5
	v-2.2C167.8,47,166.8,44.8,165.2,43.1z M138.3,135.9c1.5-1-0.9-4.3-15.5-3.3C136.2,138.4,138.3,135.9,138.3,135.9z"/>
</svg>
