<?xml version="1.0" encoding="utf-8"?>
<!-- Generator: Adobe Illustrator 22.1.0, SVG Export Plug-In . SVG Version: 6.00 Build 0)  -->
<svg version="1.1" id="Calque_1" xmlns="http://www.w3.org/2000/svg" xmlns:xlink="http://www.w3.org/1999/xlink" x="0px" y="0px"
	 viewBox="0 0 196 196" style="enable-background:new 0 0 196 196;" xml:space="preserve">
<g>
	<g>
		<path class="st0" d="M8.4,36h10.3v13.8c0,1.9,1.6,3.4,3.4,3.4h41.3c1.9,0,3.4-1.6,3.4-3.4V36h120.6c1.9,0,3.4-1.6,3.4-3.4
			c0-1.9-1.5-3.4-3.4-3.4H67V15.3c0-1.9-1.5-3.4-3.4-3.4H22.2c-1.9,0-3.4,1.5-3.4,3.4v13.8H8.4c-1.9,0-3.4,1.5-3.4,3.4
			C5,34.5,6.5,36,8.4,36L8.4,36z M25.7,18.8h34.4v27.5H25.7V18.8z"/>
		<path class="st0" d="M187.5,94.6h-65.4V80.8c0-1.9-1.5-3.4-3.4-3.4H77.3c-1.9,0-3.4,1.6-3.4,3.4v13.8H8.4C6.5,94.6,5,96.1,5,98
			c0,1.9,1.5,3.4,3.4,3.4h65.4v13.8c0,1.9,1.5,3.4,3.4,3.4h41.3c1.9,0,3.4-1.6,3.4-3.4v-13.8h65.4c1.9,0,3.4-1.6,3.4-3.4
			C191,96.1,189.5,94.6,187.5,94.6L187.5,94.6z M115.2,111.8H80.8V84.2h34.4V111.8z"/>
		<path class="st0" d="M187.5,160h-10.3v-13.8c0-1.9-1.5-3.4-3.4-3.4h-41.3c-1.9,0-3.4,1.6-3.4,3.4V160H8.4c-1.9,0-3.4,1.6-3.4,3.4
			c0,1.9,1.5,3.4,3.4,3.4H129v13.8c0,1.9,1.5,3.4,3.4,3.4h41.3c1.9,0,3.4-1.5,3.4-3.4v-13.8h10.3c1.9,0,3.4-1.5,3.4-3.4
			C191,161.5,189.5,160,187.5,160L187.5,160z M170.3,177.2h-34.4v-27.5h34.4V177.2z"/>
	</g>
</g>
</svg>
