<?xml version="1.0" encoding="utf-8"?>
<!-- Generator: Adobe Illustrator 22.1.0, SVG Export Plug-In . SVG Version: 6.00 Build 0)  -->
<svg version="1.1" id="Calque_1" xmlns="http://www.w3.org/2000/svg" xmlns:xlink="http://www.w3.org/1999/xlink" x="0px" y="0px"
	 viewBox="0 0 196 196" style="enable-background:new 0 0 196 196;" xml:space="preserve">
<g>
	<path class="st0" d="M98,5C46.6,5,5,46.6,5,98s41.6,93,93,93s93-41.6,93-93S149.4,5,98,5z M131.1,126.6c3.7,2.1,5,6.9,2.8,10.6
		c-2.1,3.7-6.9,5-10.6,2.8l-58.4-33.7c-2.5-1.4-3.9-4.1-3.8-6.8c0-2.7,1.3-5.4,3.8-6.8l58.4-33.7c3.7-2.1,8.4-0.9,10.6,2.8
		c2.1,3.7,0.9,8.4-2.8,10.6L84,99.4L131.1,126.6z"/>
</g>
</svg>
