<?xml version="1.0" encoding="utf-8"?>
<!-- Generator: Adobe Illustrator 22.1.0, SVG Export Plug-In . SVG Version: 6.00 Build 0)  -->
<svg version="1.1" id="Calque_1" xmlns="http://www.w3.org/2000/svg" xmlns:xlink="http://www.w3.org/1999/xlink" x="0px" y="0px"
	 viewBox="0 0 196 196" style="enable-background:new 0 0 196 196;" xml:space="preserve">
<g>
	<path class="st0" d="M98,5C46.6,5,5,46.6,5,98s41.6,93,93,93s93-41.6,93-93C191,46.6,149.4,5,98,5z M132.5,106.3L74.1,140
		c-3.7,2.1-8.4,0.9-10.6-2.8c-2.1-3.7-0.9-8.4,2.8-10.6l47.1-27.2L66.4,72.3c-3.7-2.1-5-6.9-2.8-10.6c2.1-3.7,6.9-5,10.6-2.8
		l58.4,33.7c2.5,1.4,3.9,4.1,3.8,6.8C136.4,102.1,135,104.8,132.5,106.3z"/>
</g>
</svg>
