<?xml version="1.0" encoding="utf-8"?>
<!-- Generator: Adobe Illustrator 22.1.0, SVG Export Plug-In . SVG Version: 6.00 Build 0)  -->
<svg version="1.1" id="Calque_1" xmlns="http://www.w3.org/2000/svg" xmlns:xlink="http://www.w3.org/1999/xlink" x="0px" y="0px"
	 viewBox="0 0 196 196" style="enable-background:new 0 0 196 196;" xml:space="preserve">
<g>
	<path class="st0" d="M163.9,107.8V30.6h5.7c2,0,3.6-1.6,3.6-3.6V8.6c0-2-1.6-3.6-3.6-3.6H8.6C6.6,5,5,6.6,5,8.6v18.3
		c0,2,1.6,3.6,3.6,3.6h5.7v95.2H8.6c-2,0-3.6,1.6-3.6,3.6v18.3c0,2,1.6,3.6,3.6,3.6h76.8v11.3c-6.2,1.6-10.8,7.3-10.8,14
		c0,7.9,6.5,14.4,14.4,14.4s14.4-6.5,14.4-14.4c0-6.7-4.6-12.3-10.8-14v-11.3h12.2c1.8,22.2,20.4,39.6,43,39.6
		c23.8,0,43.1-19.3,43.1-43.1C191,129.8,179.8,114.2,163.9,107.8z M96.3,176.6c0,3.9-3.2,7.2-7.1,7.2c-3.9,0-7.2-3.2-7.2-7.2
		s3.2-7.2,7.2-7.2C93,169.4,96.3,172.6,96.3,176.6z M12.3,12.3h153.7v11l0,0H12.3l0,0V12.3z M21.6,45.2h74.7c2,0,3.6-1.6,3.6-3.6
		c0-2-1.6-3.6-3.6-3.6H21.6v-7.3h135v75.1c-2.5-0.5-5-0.8-7.6-0.9c0,0,0,0,0,0c-0.4,0-0.7,0-1.1,0c-0.4,0-0.9,0-1.3,0
		c-0.1,0-0.3,0-0.4,0c-0.3,0-0.6,0-0.9,0c-0.1,0-0.3,0-0.4,0c-0.3,0-0.7,0.1-1,0.1c-0.1,0-0.2,0-0.3,0c-0.4,0-0.8,0.1-1.3,0.1
		c-0.1,0-0.2,0-0.4,0.1c-0.3,0-0.6,0.1-0.9,0.1c-0.2,0-0.3,0.1-0.5,0.1c-0.2,0-0.5,0.1-0.7,0.1c-0.2,0-0.4,0.1-0.6,0.1
		c-0.2,0-0.4,0.1-0.6,0.1c-0.4,0.1-0.9,0.2-1.3,0.3c-0.1,0-0.2,0-0.2,0.1c-0.3,0.1-0.6,0.2-0.9,0.3c0,0-0.1,0-0.1,0
		c-3.8,1.1-7.5,2.7-10.8,4.8H81.9c-2,0-3.6,1.6-3.6,3.6c0,2,1.6,3.6,3.6,3.6h34.5c-2.1,2.2-3.9,4.7-5.5,7.3H21.6V45.2z M12.3,133.1
		L12.3,133.1h95.1c0,0,0,0.1,0,0.1c-0.1,0.4-0.3,0.8-0.4,1.2c0,0,0,0.1,0,0.1c-1,3.1-1.7,6.3-2,9.6H12.3V133.1z M147.9,183.7
		c-19.8,0-35.9-16.1-35.9-35.9c0,0,0-0.1,0-0.1c0,0,0,0,0,0c0-0.4,0-0.7,0-1.1c0,0,0-0.1,0-0.1c0-0.3,0-0.7,0.1-1c0,0,0,0,0,0
		c0.2-3.2,0.8-6.3,1.9-9.3c0-0.1,0.1-0.3,0.1-0.4c0-0.1,0.1-0.3,0.1-0.4c0.1-0.2,0.2-0.4,0.2-0.6c0,0,0,0,0,0
		c4.2-10.5,13.1-18.6,24.2-21.5c0.1,0,0.2-0.1,0.3-0.1c0.2-0.1,0.4-0.1,0.6-0.1c0.2,0,0.4-0.1,0.5-0.1c0.2,0,0.3-0.1,0.5-0.1
		c0.3-0.1,0.7-0.1,1-0.2c0.1,0,0.2,0,0.4-0.1c0.3,0,0.5-0.1,0.8-0.1c0.1,0,0.2,0,0.3,0c0.3,0,0.6-0.1,1-0.1c0,0,0.1,0,0.1,0
		c0.4,0,0.7-0.1,1.1-0.1c0.1,0,0.2,0,0.3,0c0.3,0,0.6,0,0.8,0c0.1,0,0.2,0,0.3,0c0.4,0,0.7,0,1.1,0c0.4,0,0.8,0,1.3,0
		c0.1,0,0.2,0,0.3,0c0.4,0,0.8,0,1.2,0.1c0.1,0,0.2,0,0.3,0c0.3,0,0.6,0.1,1,0.1c0.1,0,0.3,0,0.4,0c0.4,0,0.7,0.1,1.1,0.1
		c0.2,0,0.4,0.1,0.6,0.1c0.2,0,0.4,0.1,0.6,0.1c0.4,0.1,0.8,0.1,1.1,0.2c0.1,0,0.2,0.1,0.3,0.1c0.3,0.1,0.5,0.1,0.8,0.2
		c0,0,0.1,0,0.1,0c15.4,4,26.8,18.1,26.8,34.7C183.7,167.6,167.6,183.7,147.9,183.7z"/>
	<path class="st0" d="M147.9,118c-16.5,0-29.9,13.4-29.9,29.9s13.4,29.9,29.9,29.9s29.9-13.4,29.9-29.9S164.4,118,147.9,118z
		 M147.9,170.5c-12.5,0-22.6-10.2-22.6-22.6s10.2-22.6,22.6-22.6s22.6,10.2,22.6,22.6S160.4,170.5,147.9,170.5z"/>
	<path class="st0" d="M161.9,144.2h-10.4v-11.6c0-2-1.6-3.6-3.6-3.6s-3.6,1.6-3.6,3.6v15.3c0,2,1.6,3.6,3.6,3.6h14
		c2,0,3.6-1.6,3.6-3.6C165.5,145.9,163.9,144.2,161.9,144.2z"/>
	<path class="st0" d="M106.2,42.9c0.1,0.2,0.2,0.4,0.3,0.6c0.1,0.2,0.3,0.4,0.5,0.6c0.2,0.2,0.4,0.3,0.6,0.5
		c0.2,0.1,0.4,0.2,0.6,0.3c0.2,0.1,0.4,0.2,0.7,0.2s0.5,0.1,0.7,0.1s0.5,0,0.7-0.1c0.2,0,0.5-0.1,0.7-0.2c0.2-0.1,0.4-0.2,0.6-0.3
		c0.2-0.1,0.4-0.3,0.6-0.5c0.2-0.2,0.3-0.4,0.5-0.6c0.1-0.2,0.2-0.4,0.3-0.6c0.1-0.2,0.2-0.4,0.2-0.7c0-0.2,0.1-0.5,0.1-0.7
		c0-0.2,0-0.5-0.1-0.7c0-0.2-0.1-0.5-0.2-0.7c-0.1-0.2-0.2-0.4-0.3-0.6c-0.1-0.2-0.3-0.4-0.5-0.6c-0.8-0.8-2.1-1.2-3.3-1
		c-0.2,0-0.5,0.1-0.7,0.2c-0.2,0.1-0.4,0.2-0.6,0.3c-0.2,0.1-0.4,0.3-0.6,0.5c-0.2,0.2-0.3,0.4-0.5,0.6c-0.1,0.2-0.2,0.4-0.3,0.6
		c-0.1,0.2-0.2,0.4-0.2,0.7c0,0.2-0.1,0.5-0.1,0.7c0,0.2,0,0.5,0.1,0.7C106,42.5,106.1,42.7,106.2,42.9z"/>
	<path class="st0" d="M72,113.4c-0.1-0.2-0.2-0.4-0.3-0.6c-0.1-0.2-0.3-0.4-0.5-0.6c-0.8-0.8-2.1-1.2-3.3-1c-0.2,0-0.5,0.1-0.7,0.2
		c-0.2,0.1-0.4,0.2-0.6,0.3c-0.2,0.1-0.4,0.3-0.6,0.4c-0.2,0.2-0.3,0.4-0.5,0.6c-0.1,0.2-0.2,0.4-0.3,0.6c-0.1,0.2-0.2,0.4-0.2,0.7
		c0,0.2-0.1,0.5-0.1,0.7c0,0.2,0,0.5,0.1,0.7c0,0.2,0.1,0.5,0.2,0.7c0.1,0.2,0.2,0.4,0.3,0.6c0.1,0.2,0.3,0.4,0.5,0.6
		c0.2,0.2,0.4,0.3,0.6,0.5c0.2,0.1,0.4,0.2,0.6,0.3c0.2,0.1,0.5,0.2,0.7,0.2c0.2,0,0.5,0.1,0.7,0.1c1,0,1.9-0.4,2.6-1.1
		c0.2-0.2,0.3-0.4,0.5-0.6c0.1-0.2,0.2-0.4,0.3-0.6c0.1-0.2,0.2-0.4,0.2-0.7c0-0.2,0.1-0.5,0.1-0.7c0-0.2,0-0.5-0.1-0.7
		C72.2,113.9,72.1,113.6,72,113.4z"/>
	<path class="st0" d="M61.8,81.6c2,1,4.3,1.6,6.7,1.6c4.3,0,8.2-1.8,10.9-4.7l10.9,6.6c-0.4,1.3-0.5,2.6-0.5,4
		c0,8.3,6.8,15.1,15.1,15.1S120,97.4,120,89.1c0-2.8-0.8-5.5-2.2-7.8l13.7-11c2.3,1.4,4.9,2.1,7.7,2.1c8.3,0,15.1-6.8,15.1-15.1
		s-6.8-15.1-15.1-15.1s-15.1,6.8-15.1,15.1c0,2.8,0.8,5.5,2.2,7.8l-13.7,11c-2.3-1.4-4.9-2.1-7.7-2.1c-4.3,0-8.2,1.8-10.9,4.7
		L83,72.2c0.4-1.3,0.5-2.6,0.5-4c0-8.3-6.8-15.1-15.1-15.1s-15.1,6.8-15.1,15.1c0,3.2,1,6.2,2.8,8.7l-10.4,8.6c-2-1-4.3-1.6-6.8-1.6
		c-8.3,0-15.1,6.8-15.1,15.1s6.8,15.1,15.1,15.1s15.1-6.8,15.1-15.1c0-3.2-1-6.2-2.7-8.6L61.8,81.6z M139.2,49.7
		c4.3,0,7.8,3.5,7.8,7.8s-3.5,7.8-7.8,7.8c-4.3,0-7.8-3.5-7.8-7.8S134.9,49.7,139.2,49.7z M104.9,81.4c4.3,0,7.8,3.5,7.8,7.8
		c0,4.3-3.5,7.8-7.8,7.8c-4.3,0-7.8-3.5-7.8-7.8C97.1,84.8,100.6,81.4,104.9,81.4z M68.5,60.4c4.3,0,7.8,3.5,7.8,7.8
		c0,4.3-3.5,7.8-7.8,7.8c-4.3,0-7.8-3.5-7.8-7.8C60.7,63.8,64.2,60.4,68.5,60.4z M39,106.6c-4.3,0-7.8-3.5-7.8-7.8
		c0-4.3,3.5-7.8,7.8-7.8s7.8,3.5,7.8,7.8C46.8,103.2,43.3,106.6,39,106.6z"/>
</g>
</svg>
