<?xml version="1.0" encoding="utf-8"?>
<!-- Generator: Adobe Illustrator 22.1.0, SVG Export Plug-In . SVG Version: 6.00 Build 0)  -->
<svg version="1.1" id="Calque_1" xmlns="http://www.w3.org/2000/svg" xmlns:xlink="http://www.w3.org/1999/xlink" x="0px" y="0px"
	 viewBox="0 0 196 196" style="enable-background:new 0 0 196 196;" xml:space="preserve">
<g>
	<path class="st0" d="M175.6,120.2c2.6-2.9,4.2-6.7,4.2-10.9c0-9-7.3-16.3-16.3-16.3h-31.7c3.1-9.5,4.5-22.2,4.5-27.6v-5.4
		c0-12-9.8-21.8-21.8-21.8h-5.4c-2.5,0-4.7,1.7-5.3,4.1l-3,11.9c-4.2,16.6-17.4,35-31,38.3C67.2,86.3,61.3,82,54.4,82H21.7
		c-3,0-5.4,2.4-5.4,5.4v98.1c0,3,2.4,5.4,5.4,5.4h32.7c6.5,0,12.1-3.8,14.8-9.3l18.7,6.2c6.1,2,12.5,3.1,19,3.1h45.6
		c9,0,16.3-7.3,16.3-16.3c0-2.1-0.4-4.2-1.1-6c6.9-1.9,12-8.2,12-15.8c0-4.2-1.6-8-4.2-10.9c2.6-2.9,4.2-6.7,4.2-10.9
		S178.2,123.1,175.6,120.2z M59.9,174.7c0,3-2.4,5.4-5.4,5.4H27.2V92.9h27.2c3,0,5.4,2.4,5.4,5.4V174.7z M152.5,125.6h10.9
		c3,0,5.4,2.4,5.4,5.4s-2.4,5.4-5.4,5.4h-10.9c-3,0-5.4,2.4-5.4,5.4s2.4,5.4,5.4,5.4h10.9c3,0,5.4,2.4,5.4,5.4s-2.4,5.4-5.4,5.4
		h-10.9c-3,0-5.4,2.4-5.4,5.4s2.4,5.4,5.4,5.4c3,0,5.4,2.4,5.4,5.4s-2.4,5.4-5.4,5.4h-45.6c-5.3,0-10.5-0.8-15.5-2.5l-20.6-6.9
		v-67.4c8.5-1.6,16.9-7,24.5-15.9c7.4-8.7,13.4-20.1,16-30.7l1.9-7.7h1.2c6,0,10.9,4.9,10.9,10.9v5.4c0,7.3-2.3,21.3-5.2,27.6h-11.1
		c-3,0-5.4,2.4-5.4,5.4c0,3,2.4,5.4,5.4,5.4h54.5c3,0,5.4,2.4,5.4,5.4s-2.4,5.4-5.4,5.4h-10.9c-3,0-5.4,2.4-5.4,5.4
		C147,123.2,149.5,125.6,152.5,125.6z"/>
	<circle class="st0" cx="43.5" cy="163.8" r="5.4"/>
	<path class="st0" d="M125.2,21.7V10.4c0-3-2.4-5.4-5.4-5.4s-5.4,2.4-5.4,5.4v11.3c0,3,2.4,5.4,5.4,5.4
		C122.8,27.2,125.2,24.7,125.2,21.7z"/>
	<path class="st0" d="M96.7,36.7c2.1-2.1,2.1-5.6,0-7.7L89,21.3c-2.1-2.1-5.6-2.1-7.7,0s-2.1,5.6,0,7.7l7.7,7.7
		C91.1,38.9,94.6,38.9,96.7,36.7z"/>
	<path class="st0" d="M150.6,36.7l7.7-7.7c2.1-2.1,2.1-5.6,0-7.7c-2.1-2.1-5.6-2.1-7.7,0l-7.7,7.7c-2.1,2.1-2.1,5.6,0,7.7
		C145,38.9,148.5,38.9,150.6,36.7z"/>
</g>
</svg>
