<?xml version="1.0" encoding="utf-8"?>
<!-- Generator: Adobe Illustrator 22.1.0, SVG Export Plug-In . SVG Version: 6.00 Build 0)  -->
<svg version="1.1" id="Calque_1" xmlns="http://www.w3.org/2000/svg" xmlns:xlink="http://www.w3.org/1999/xlink" x="0px" y="0px"
	 viewBox="0 0 196 196" style="enable-background:new 0 0 196 196;" xml:space="preserve">
<g>
	<path class="st0" d="M191,118.1v68.8h-39.9v-64.2c0-16.1-5.8-27.1-20.2-27.1c-11,0-17.6,7.4-20.5,14.6c-1,2.6-1.3,6.1-1.3,9.7v67
		H69.3c0,0,0.5-108.7,0-119.9h39.9v17c-0.1,0.1-0.2,0.3-0.3,0.4h0.3v-0.4c5.3-8.2,14.8-19.8,35.9-19.8
		C171.3,64.1,191,81.3,191,118.1L191,118.1z M27.6,9.1C13.9,9.1,5,18.1,5,29.9c0,11.5,8.7,20.7,22,20.7h0.3
		c13.9,0,22.6-9.2,22.6-20.7C49.6,18.1,41.2,9.1,27.6,9.1L27.6,9.1z M7.4,186.9h39.9V66.9H7.4V186.9z"/>
</g>
</svg>
