<?xml version="1.0" encoding="utf-8"?>
<!-- Generator: Adobe Illustrator 22.1.0, SVG Export Plug-In . SVG Version: 6.00 Build 0)  -->
<svg version="1.1" id="Calque_1" xmlns="http://www.w3.org/2000/svg" xmlns:xlink="http://www.w3.org/1999/xlink" x="0px" y="0px"
	 viewBox="0 0 196 196" style="enable-background:new 0 0 196 196;" xml:space="preserve">
<g>
	<g>
		<path class="st0" d="M186.9,166.6l-38.3-38.3c9.2-13.3,13.9-28.2,13.9-44.6c0-10.7-2.1-20.8-6.2-30.6C152,43.4,146.5,35,139.4,28
			c-7-7-15.4-12.6-25.1-16.8S94.4,5,83.7,5s-20.8,2.1-30.6,6.2C43.4,15.3,35,20.9,28,28c-7,7-12.6,15.4-16.8,25.1
			C7.1,62.8,5,73,5,83.7s2.1,20.8,6.2,30.6c4.1,9.7,9.7,18.1,16.8,25.2c7,7,15.4,12.6,25.1,16.8c9.7,4.1,19.9,6.2,30.6,6.2
			c16.4,0,31.3-4.6,44.6-13.9l38.3,38.2c2.7,2.8,6,4.2,10.1,4.2c4,0,7.3-1.4,10.1-4.2c2.8-2.8,4.2-6.2,4.2-10.1
			C191,172.7,189.6,169.4,186.9,166.6L186.9,166.6z M119.1,119.1c-9.8,9.8-21.6,14.7-35.4,14.7s-25.6-4.9-35.4-14.7
			c-9.8-9.8-14.7-21.6-14.7-35.4s4.9-25.6,14.7-35.4c9.8-9.8,21.6-14.7,35.4-14.7s25.6,4.9,35.4,14.7c9.8,9.8,14.7,21.6,14.7,35.4
			S128.9,109.3,119.1,119.1L119.1,119.1z"/>
	</g>
</g>
</svg>
