<?xml version="1.0" encoding="utf-8"?>
<!-- Generator: Adobe Illustrator 22.1.0, SVG Export Plug-In . SVG Version: 6.00 Build 0)  -->
<svg version="1.1" id="Calque_1" xmlns="http://www.w3.org/2000/svg" xmlns:xlink="http://www.w3.org/1999/xlink" x="0px" y="0px"
	 viewBox="0 0 196 196" style="enable-background:new 0 0 196 196;" xml:space="preserve">
<style type="text/css">
	.st0{clip-path:url(#SVGID_2_);}
	.st1{clip-path:url(#SVGID_4_);}
</style>
<g>
	<g>
		<g>
			<defs>
				<rect id="SVGID_1_" x="29.7" y="5" width="136.6" height="186"/>
			</defs>
			<clipPath id="SVGID_2_">
				<use xlink:href="#SVGID_1_"  style="overflow:visible;"/>
			</clipPath>
			<path class="st0" d="M129.5,137.1h-0.4l-7.8-0.3l-5.8,5.3c-1.8,1.6-4.2,2.5-6.6,2.5c-1.3,0-2.5-0.2-3.7-0.7l-7.3-3l-7.3,3
				c-1.2,0.5-2.4,0.7-3.7,0.7c-2.5,0-4.8-0.9-6.6-2.5l-5.8-5.3l-7.8,0.3h-0.4c-3.7,0-7-2-8.7-5.3l-3.7-6.9l-0.3-0.1V186
				c0,3.7,3.9,6.1,7.2,4.4l34.9-17.5c1.4-0.7,3-0.7,4.4,0l34.9,17.6c3.3,1.7,7.2-0.7,7.2-4.4v-61.2l-0.3,0.1l-3.7,6.9
				C136.5,135.1,133.2,137.1,129.5,137.1L129.5,137.1z"/>
		</g>
		<g>
			<defs>
				<rect id="SVGID_3_" x="29.7" y="5" width="136.6" height="186"/>
			</defs>
			<clipPath id="SVGID_4_">
				<use xlink:href="#SVGID_3_"  style="overflow:visible;"/>
			</clipPath>
			<path class="st1" d="M165.3,75.1c1-1.6,1-3.6,0-5.3l-4.2-6.6c-0.7-1.1-0.9-2.4-0.7-3.7l1.7-7.7c0.4-1.9-0.3-3.8-1.8-4.9l-6.2-4.8
				c-1-0.8-1.7-1.9-1.9-3.2l-1.1-7.8c-0.3-1.9-1.6-3.4-3.4-4l-7.4-2.4c-1.2-0.4-2.3-1.3-2.8-2.4l-3.7-6.9c-0.8-1.6-2.5-2.6-4.4-2.6
				h-0.2l-7.8,0.3h-0.2c-1.2,0-2.4-0.5-3.3-1.3l-5.8-5.3c-0.9-0.8-2.1-1.3-3.3-1.3c-0.6,0-1.3,0.1-1.9,0.4l-7.3,3
				C99.2,8.8,98.6,9,97.9,9s-1.3-0.1-1.9-0.4l-7.3-3c-0.6-0.2-1.2-0.4-1.9-0.4c-1.2,0-2.4,0.4-3.3,1.3l-5.8,5.3
				c-0.9,0.8-2.1,1.3-3.3,1.3h-0.2l-7.8-0.3h-0.2c-1.8,0-3.5,1-4.4,2.6l-3.7,6.9c-0.6,1.1-1.6,2-2.8,2.4L48,27.1
				c-1.8,0.6-3.1,2.2-3.4,4l-1.1,7.8c-0.2,1.3-0.8,2.4-1.9,3.2L35.4,47c-1.5,1.2-2.2,3.1-1.8,4.9l1.7,7.7c0.3,1.3,0,2.6-0.7,3.7
				l-4.2,6.6c-1,1.6-1,3.6,0,5.3l4.2,6.6c0.7,1.1,0.9,2.4,0.7,3.7l-1.7,7.7c-0.4,1.9,0.3,3.8,1.8,4.9l6.2,4.8c1,0.8,1.7,1.9,1.9,3.2
				l1.1,7.8c0.3,1.9,1.6,3.4,3.4,4l5.7,1.8l1.8,0.6c1.2,0.4,2.3,1.3,2.8,2.4l3.7,6.9c0.8,1.6,2.5,2.6,4.4,2.6h0.2l7.8-0.3h0.2
				c1.2,0,2.4,0.5,3.3,1.3l5.8,5.3c0.9,0.8,2.1,1.3,3.3,1.3c0.6,0,1.3-0.1,1.9-0.4l7.3-3c0.6-0.2,1.2-0.4,1.9-0.4
				c0.6,0,1.3,0.1,1.9,0.4l7.3,3c0.6,0.2,1.2,0.4,1.9,0.4c1.2,0,2.4-0.4,3.3-1.3l5.8-5.3c0.9-0.8,2.1-1.3,3.3-1.3h0.2l7.8,0.3h0.2
				c1.8,0,3.5-1,4.4-2.6l3.7-6.9c0.6-1.1,1.6-2,2.8-2.4l1.8-0.6l5.7-1.8c1.8-0.6,3.1-2.2,3.4-4l1.1-7.8c0.2-1.3,0.8-2.4,1.9-3.2
				l6.2-4.8c1.5-1.2,2.2-3.1,1.8-4.9l-1.7-7.7c-0.3-1.3,0-2.6,0.7-3.7L165.3,75.1z M145.7,92.7c-1,2.4-2.2,4.6-3.5,6.8
				c-2.1,3.5-4.7,6.8-7.6,9.7c-4.8,4.8-10.3,8.5-16.5,11.1c-6.4,2.7-13.2,4.1-20.2,4.1s-13.8-1.4-20.2-4.1
				c-6.2-2.6-11.7-6.3-16.5-11.1c-2.9-2.9-5.5-6.2-7.6-9.7c-1.3-2.2-2.5-4.4-3.5-6.8C47.4,86.3,46,79.5,46,72.5
				c0-7,1.4-13.8,4.1-20.2c2.6-6.2,6.3-11.7,11.1-16.5c4.8-4.8,10.3-8.5,16.5-11.1c6.4-2.7,13.2-4.1,20.2-4.1s13.8,1.4,20.2,4.1
				c6.2,2.6,11.7,6.3,16.5,11.1c4.8,4.8,8.5,10.3,11.1,16.5c2.7,6.4,4.1,13.2,4.1,20.2C149.8,79.5,148.4,86.3,145.7,92.7L145.7,92.7
				z"/>
		</g>
	</g>
	<path class="st2" d="M97.9,26.5c-25.4,0-45.9,20.6-45.9,45.9c0,4.2,0.6,8.3,1.6,12.2c5.3,19.5,23.2,33.8,44.3,33.8
		c21.1,0,39-14.3,44.3-33.8c1.1-3.9,1.6-8,1.6-12.2C143.8,47.1,123.3,26.5,97.9,26.5L97.9,26.5z M118.3,93.8
		c0.9,4.2-3.6,7.4-7.3,5.3l-13.2-7.5l-13.2,7.5c-3.7,2.1-8.2-1.2-7.3-5.3l3.2-14.9l-10.3-9.3l-1.1-1c-3.1-2.8-1.5-8.1,2.7-8.6
		l15-1.8l6.5-14c1.8-3.8,7.2-3.8,9,0l6.5,14l15,1.8c4.2,0.5,5.8,5.7,2.7,8.6l-1.1,1l-10.3,9.3L118.3,93.8z"/>
</g>
</svg>
