<?xml version="1.0" encoding="utf-8"?>
<!-- Generator: Adobe Illustrator 22.1.0, SVG Export Plug-In . SVG Version: 6.00 Build 0)  -->
<svg version="1.1" id="Calque_1" xmlns="http://www.w3.org/2000/svg" xmlns:xlink="http://www.w3.org/1999/xlink" x="0px" y="0px"
	 viewBox="0 0 196 196" style="enable-background:new 0 0 196 196;" xml:space="preserve">
<g>
	<g>
		<path class="st0" d="M5,109.1c1.4-3.1,2.5-6.4,4.4-9.2c2.9-4.2,7.3-6.4,12.3-7c0.9-0.1,2.1,0.6,3,1.1c6.7,4.1,13.9,5.1,21.4,2.9
			c1.8-0.5,3.8-1.2,5.3-2.3c2.6-2,5.3-2,8.2-1.1c8,2.5,13.6,9.7,13.9,18c0.1,1.6,0,3.2,0,4.9c0,3.1-0.6,3.9-3.5,4.9
			c-6,2.1-12.3,3.1-18.6,3.6c-11.5,1-22.9,0.7-34.3-1.2c-3.2-0.6-6.4-1.6-9.5-2.6c-1-0.3-1.7-1.3-2.6-2C5,115.8,5,112.5,5,109.1z"/>
		<path class="st0" d="M191,119.2c-1.1,0.8-2.2,1.9-3.4,2.3c-7.8,2.8-16,3.5-24.3,3.9c-9.4,0.4-18.8-0.1-28.1-1.6
			c-3.4-0.6-6.7-1.6-9.9-2.7c-1.9-0.6-3.1-1.9-2.9-4.2c0.3-3.7-0.3-7.5,1.1-11.1c3-7.4,8.4-11.6,16.2-12.8c1.3-0.2,2.8,0.8,4.1,1.5
			c8.6,4.7,17.5,5.2,25.9,0.3c4.2-2.4,7.6-1.7,11.2,0.3c5.1,2.8,8.3,7.1,9.6,12.8c0.1,0.4,0.3,0.8,0.4,1.3
			C191,112.5,191,115.8,191,119.2z"/>
		<path class="st0" d="M97.5,160.8c-13.3-0.5-26.5-1-39.5-3.9c-4.4-1-8.7-2.4-13-3.8c-3.1-1-4-2.3-3.9-5.5
			c0.2-5.9-0.1-11.9,0.9-17.6c1.5-8.6,6.6-15.2,13.9-20c3.6-2.4,7.6-3.9,11.8-4.7c1.7-0.3,3.1-0.2,4.6,0.8
			c7.3,5.1,15.5,7.7,24.4,7.9c8.6,0.2,16.9-1.7,24-6.6c4.1-2.9,7.7-2.2,11.7-0.9c12.6,4.2,21.5,16.5,21.7,29.8c0,3.8,0,7.5,0,11.3
			c0,3.1-0.9,4.3-3.7,5.4c-8.1,3.2-16.5,4.9-25.1,5.8C116,159.7,106.8,160.1,97.5,160.8z"/>
		<path class="st0" d="M131.2,68.9c-0.1,18.5-15.2,33.6-33.7,33.6C79,102.4,64,87.3,64,68.8c0-18.5,15.1-33.6,33.7-33.6
			C116.2,35.2,131.3,50.4,131.2,68.9z M80.8,80.8c1.5,5.9,9.2,9.6,17.2,9.5c9.1-0.1,15.9-4.7,16.7-9.5
			C103.4,80.8,92.1,80.8,80.8,80.8z"/>
		<path class="st0" d="M58.4,72.5c-0.6,11.6-10.7,19.4-21,18.6c-11.8-0.9-18.9-10.4-18.6-20.3c0.5-13.1,11.5-20.1,21.3-19.3
			C51.2,52.5,59.4,62,58.4,72.5z M48.8,77.8c-6.9,0-13.6,0-20.4,0c1.1,3.3,5,5.5,9.9,5.6C43.1,83.5,48.1,81.2,48.8,77.8z"/>
		<path class="st0" d="M157.2,51.5c10.9,0.2,19.9,8.2,19.9,19.8c0,11.4-8.5,19.7-19.8,19.9c-10.9,0.2-19.9-9-19.9-19.9
			C137.5,60.5,146.4,51.5,157.2,51.5z M167.6,77.8c-6.9,0-13.6,0-20.4,0c0.6,3.2,5.5,5.7,10.3,5.6C162.3,83.4,166.4,81.2,167.6,77.8
			z"/>
	</g>
</g>
</svg>
