<?xml version="1.0" encoding="utf-8"?>
<!-- Generator: Adobe Illustrator 22.1.0, SVG Export Plug-In . SVG Version: 6.00 Build 0)  -->
<svg version="1.1" id="Calque_1" xmlns="http://www.w3.org/2000/svg" xmlns:xlink="http://www.w3.org/1999/xlink" x="0px" y="0px"
	 viewBox="0 0 196 196" style="enable-background:new 0 0 196 196;" xml:space="preserve">
<g>
	<path class="st0" d="M169.9,59.2c2.4-2.9,3.8-6.6,3.8-10.7v-3.3c0-9.3-7.6-16.9-16.9-16.9c-9.3,0-16.9,7.6-16.9,16.9v3.3
		c0,4,1.4,7.8,3.8,10.7c-2.9,0.8-5.6,2-8.2,3.7v-2.6c0-11-8.9-19.9-19.9-19.9h-2.3c2.8-3.4,4.5-7.8,4.5-12.6v-2.9
		C117.9,13.9,109,5,98,5s-19.8,8.9-19.8,19.8v2.9c0,4.8,1.7,9.1,4.5,12.6h-2.3c-11,0-19.9,8.9-19.9,19.9v2.7c-2.5-1.7-5.3-3-8.3-3.8
		c2.4-2.9,3.8-6.6,3.8-10.7v-3.3c0-9.3-7.6-16.9-16.9-16.9s-16.9,7.6-16.9,16.9v3.3c0,4,1.4,7.7,3.8,10.7C13.9,62.5,5,73.6,5,86.8
		v29.7c0,6.3,5.1,11.5,11.5,11.5h3v59.4c0,2,1.6,3.6,3.6,3.6h16c0,0,0,0,0,0c0,0,0,0,0,0h16c2,0,3.6-1.6,3.6-3.6V128h3.1
		c6.3,0,11.4-5.1,11.5-11.4c1.2,0.4,2.4,0.8,3.7,1v69.8c0,2,1.6,3.6,3.6,3.6h34.9c2,0,3.6-1.6,3.6-3.6v-35.2c0-2-1.6-3.6-3.6-3.6
		c-2,0-3.6,1.6-3.6,3.6v31.6h-10.2v-61.3c0-2-1.6-3.6-3.6-3.6s-3.6,1.6-3.6,3.6v61.3H84.2v-77.2h27.6v17.5c0,2,1.6,3.6,3.6,3.6
		c2,0,3.6-1.6,3.6-3.6v-6.4c1.2-0.2,2.4-0.5,3.6-1c0.1,6.3,5.2,11.4,11.5,11.4h3.1v59.4c0,2,1.6,3.6,3.6,3.6h16c0,0,0,0,0,0
		c0,0,0,0,0,0h16c2,0,3.6-1.6,3.6-3.6V128h3c6.3,0,11.5-5.1,11.5-11.5V86.8C191,73.6,182.1,62.5,169.9,59.2z M147.2,45.2
		c0-5.3,4.3-9.6,9.6-9.6c5.3,0,9.6,4.3,9.6,9.6v3.3c0,5.3-4.3,9.6-9.6,9.6s-9.6-4.3-9.6-9.6V45.2z M85.5,24.8
		c0-6.9,5.6-12.6,12.6-12.6s12.6,5.6,12.6,12.6v2.9c0,6.9-5.6,12.6-12.6,12.6s-12.6-5.6-12.6-12.6V24.8L85.5,24.8z M29.5,45.2
		c0-5.3,4.3-9.6,9.6-9.6s9.6,4.3,9.6,9.6v3.3c0,5.3-4.3,9.6-9.6,9.6s-9.6-4.3-9.6-9.6V45.2z M42.8,183.7v-55.9c0-2-1.6-3.6-3.6-3.6
		c-2,0-3.6,1.6-3.6,3.6v3.8c0,0.2,0,0.4,0,0.5v51.6h-8.7v-70.1h24.7v70.1H42.8z M61.8,120.7h-3.1v-19.3c0-2-1.6-3.6-3.6-3.6
		c-2,0-3.6,1.6-3.6,3.6v5H26.8V89.8c0-2-1.6-3.6-3.6-3.6s-3.6,1.6-3.6,3.6v30.9h-3c-2.3,0-4.2-1.9-4.2-4.2V86.8
		c0-11.8,9.6-21.4,21.4-21.4h11c6,0,11.8,2.6,15.9,7c0,0,0,0,0,0V98c0,5.3,2.1,10.2,5.5,13.8v4.8C66,118.9,64.1,120.7,61.8,120.7z
		 M115.5,56.6c-2,0-3.6,1.6-3.6,3.6v39.1H84.2V60.2c0-2-1.6-3.6-3.6-3.6c-2,0-3.6,1.6-3.6,3.6v49.9c-5.3-1.5-9.2-6.4-9.2-12.1V60.2
		c0-7,5.7-12.6,12.6-12.6h13.9v9.9c0,2,1.6,3.6,3.6,3.6s3.6-1.6,3.6-3.6v-9.9h14.2c7,0,12.6,5.7,12.6,12.6V98
		c0,5.8-3.9,10.7-9.2,12.1V60.2C119.1,58.2,117.5,56.6,115.5,56.6z M160.5,183.7v-51.6c0-0.2,0-0.4,0-0.5v-3.8c0-2-1.6-3.6-3.6-3.6
		c-2,0-3.6,1.6-3.6,3.6v55.9h-8.7v-70.1h24.7v70.1H160.5z M183.7,116.5c0,2.3-1.9,4.2-4.2,4.2h-3V89.8c0-2-1.6-3.6-3.6-3.6
		c-2,0-3.6,1.6-3.6,3.6v16.5h-24.7v-5c0-2-1.6-3.6-3.6-3.6c-2,0-3.6,1.6-3.6,3.6v19.3h-3.1c-2.3,0-4.2-1.9-4.2-4.2v-4.7
		c3.5-3.6,5.6-8.5,5.6-13.8V72.3c4-4.4,9.8-6.9,15.8-6.9h11c11.8,0,21.4,9.6,21.4,21.4L183.7,116.5L183.7,116.5z"/>
	<path class="st0" d="M115.5,134.2c-1,0-1.9,0.4-2.6,1.1c-0.7,0.7-1.1,1.6-1.1,2.6s0.4,1.9,1.1,2.6c0.7,0.7,1.6,1.1,2.6,1.1
		s1.9-0.4,2.6-1.1c0.7-0.7,1.1-1.6,1.1-2.6s-0.4-1.9-1.1-2.6C117.4,134.6,116.4,134.2,115.5,134.2z"/>
	<path class="st0" d="M97.9,67.5c-1,0-1.9,0.4-2.6,1.1c-0.7,0.7-1.1,1.6-1.1,2.6s0.4,1.9,1.1,2.6c0.7,0.7,1.6,1.1,2.6,1.1
		c1,0,1.9-0.4,2.6-1.1c0.7-0.7,1.1-1.6,1.1-2.6c0-1-0.4-1.9-1.1-2.6C99.8,67.9,98.9,67.5,97.9,67.5z"/>
</g>
</svg>
