<?xml version="1.0" encoding="utf-8"?>
<!-- Generator: Adobe Illustrator 22.1.0, SVG Export Plug-In . SVG Version: 6.00 Build 0)  -->
<svg version="1.1" id="Calque_1" xmlns="http://www.w3.org/2000/svg" xmlns:xlink="http://www.w3.org/1999/xlink" x="0px" y="0px"
	 viewBox="0 0 196 196" style="enable-background:new 0 0 196 196;" xml:space="preserve">
<g>
	<g>
		<path class="st0" d="M154,67.1c-11,0.1-20-8.7-20.2-19.7s8.7-20,19.7-20.2c11-0.1,20,8.7,20.2,19.7C173.8,58,165,67,154,67.1z
			 M153.7,37.5c-5.4,0.1-9.6,4.4-9.6,9.8s4.4,9.6,9.8,9.6c5.4-0.1,9.6-4.4,9.6-9.8C163.4,41.7,159,37.4,153.7,37.5z"/>
		<path class="st0" d="M51.6,166.4c-11,0.1-20-8.7-20.2-19.7s8.7-20,19.7-20.2s20,8.7,20.2,19.7C71.4,157.3,62.6,166.3,51.6,166.4z
			 M51.2,136.8c-5.4,0.1-9.6,4.4-9.6,9.8c0.1,5.4,4.4,9.6,9.8,9.6s9.6-4.4,9.6-9.8C61,141,56.6,136.7,51.2,136.8z"/>
		<path class="st0" d="M113.3,139.6c-11,0.1-20-8.7-20.2-19.7c-0.1-11,8.7-20,19.7-20.2s20,8.7,20.2,19.7S124.3,139.5,113.3,139.6z
			 M113,110c-5.4,0.1-9.6,4.4-9.6,9.8c0.1,5.4,4.4,9.6,9.8,9.6c5.4-0.1,9.6-4.4,9.6-9.8C122.7,114.2,118.3,109.9,113,110z"/>
		<rect x="106.2" y="78.8" transform="matrix(0.476 -0.8794 0.8794 0.476 -1.4532 163.1138)" class="st0" width="59.9" height="8"/>
		<polygon class="st0" points="58.1,138.5 100.3,119.8 103.5,127.1 61.3,145.8 		"/>
		<rect x="6.9" y="168" transform="matrix(0.6985 -0.7156 0.7156 0.6985 -114.6108 71.8493)" class="st0" width="42.1" height="8"/>
		
			<rect x="5.8" y="181.9" transform="matrix(0.9999 -1.210032e-02 1.210032e-02 0.9999 -2.2423 1.199)" class="st0" width="184.4" height="8"/>
		
			<rect x="181.2" y="5" transform="matrix(0.9999 -1.210032e-02 1.210032e-02 0.9999 -1.1353 2.2479)" class="st0" width="8" height="179.8"/>
	</g>
	<path class="st0" d="M185.3,28.1c0.2-1.2,0.7-2.3,1.2-3.3c0-0.4,0-0.9,0-1.3c0-0.8,0.5-1.5,1.1-1.8c0-0.2-0.1-0.4-0.1-0.6
		l-25.9,11.5l3.2,7.3l21.2-9.4C185.5,29.9,185.1,29.1,185.3,28.1z"/>
</g>
</svg>
