<?xml version="1.0" encoding="utf-8"?>
<!-- Generator: Adobe Illustrator 22.1.0, SVG Export Plug-In . SVG Version: 6.00 Build 0)  -->
<svg version="1.1" id="Calque_1" xmlns="http://www.w3.org/2000/svg" xmlns:xlink="http://www.w3.org/1999/xlink" x="0px" y="0px"
	 viewBox="0 0 196 196" style="enable-background:new 0 0 196 196;" xml:space="preserve">
<g>
	<path class="st0" d="M67.8,59.9h54.9c3.8,6.5,10.8,10.9,18.9,10.9c12,0,21.8-9.8,21.8-21.8s-9.8-21.8-21.8-21.8
		c-12,0-21.8,9.8-21.8,21.8H98H70.8c0-12-9.8-21.8-21.8-21.8S27.2,36.9,27.2,49S36.9,70.8,49,70.8C57,70.8,64,66.4,67.8,59.9z
		 M141.6,38.1c6,0,10.9,4.9,10.9,10.9s-4.9,10.9-10.9,10.9S130.7,55,130.7,49S135.6,38.1,141.6,38.1z M49,59.9
		c-6,0-10.9-4.9-10.9-10.9S42.9,38.1,49,38.1S59.9,42.9,59.9,49S55,59.9,49,59.9z"/>
	<path class="st0" d="M119.8,27.2c0-12-9.7-22.2-21.8-22.2C85.9,5,76.2,15.2,76.2,27.2C76.2,39.2,86,49,98,49S119.8,39.2,119.8,27.2
		z M98,38.1c-6,0-10.9-4.9-10.9-10.9c0-6.1,5-11.3,10.9-11.3c5.9,0,10.9,5.2,10.9,11.3C108.9,33.2,104,38.1,98,38.1z"/>
	<path class="st0" d="M163.4,70.8h-21.8h-10.9c-9,0-16.3,7.3-16.3,16.3c0,4.5,0,89.8,0,93h-10.9v-49.4c0-3-2.4-5.4-5.4-5.4
		c-3,0-5.4,2.4-5.4,5.4v49.4H81.7c0-3.3,0-88.6,0-93c0-9-7.3-16.3-16.3-16.3H49H32.6C17.5,70.8,5,82.9,5,98v21.8
		c0,9,7.7,16.3,16.7,16.3c1.9,0,3.7-0.3,5.4-0.9v50.3c0,3,2.4,5.4,5.4,5.4c2.5,0,128.4,0,130.8,0c3,0,5.4-2.4,5.4-5.4v-50.3
		c1.7,0.6,3.5,0.9,5.4,0.9c9,0,16.7-7.3,16.7-16.3V98C191,82.9,178.5,70.8,163.4,70.8z M38.1,119.8V98c0-3-2.4-5.4-5.4-5.4
		c-3,0-5.4,2.4-5.4,5.4v21.8c0,3-2.4,5.4-5.4,5.4c-3.1,0-5.8-2.5-5.8-5.4V98c0-8.9,7.7-16.3,16.7-16.3h32.7c3,0,5.4,2.4,5.4,5.4
		c0,4.5,0,89.8,0,93H59.9v-38.5c0-3-2.4-5.4-5.4-5.4s-5.4,2.4-5.4,5.4v38.5H38.1L38.1,119.8L38.1,119.8z M180.1,119.8
		c0,2.9-2.7,5.4-5.8,5.4c-3,0-5.4-2.4-5.4-5.4V98c0-3-2.4-5.4-5.4-5.4c-3,0-5.4,2.4-5.4,5.4v21.8v60.3H147v-38.5
		c0-3-2.4-5.4-5.4-5.4c-3,0-5.4,2.4-5.4,5.4v38.5h-10.9c0-3.3,0-88.6,0-93c0-3,2.4-5.4,5.4-5.4h10.9h21.8c9.1,0,16.7,7.5,16.7,16.3
		L180.1,119.8L180.1,119.8z"/>
</g>
</svg>
