<?xml version="1.0" encoding="utf-8"?>
<!-- Generator: Adobe Illustrator 22.1.0, SVG Export Plug-In . SVG Version: 6.00 Build 0)  -->
<svg version="1.1" id="Calque_1" xmlns="http://www.w3.org/2000/svg" xmlns:xlink="http://www.w3.org/1999/xlink" x="0px" y="0px"
	 viewBox="0 0 196 196" style="enable-background:new 0 0 196 196;" xml:space="preserve">
<g>
	<path class="st0" d="M187.4,114.4c-2.3-1.3-5.2-1-8,0.8l-51.5,32.4c-1.4,0.9-1.9,2.8-1,4.2c0.9,1.4,2.8,1.9,4.2,1l51.5-32.4
		c1.1-0.7,1.7-0.6,1.8-0.6c0.1,0,0.4,0.5,0.4,1.8c0,3.5-2.6,8.1-5.5,9.9l-49.9,31.4c-2.7,1.7-5.1,2.1-6.7,1.3
		c-1.6-0.9-2.5-3.2-2.5-6.3c0-7.9,5.7-18.2,12.4-22.5l56.8-35.8c0.9-0.6,1.4-1.5,1.4-2.6c0-1.1-0.5-2-1.4-2.6L80.4,25.7
		c-1-0.6-2.3-0.6-3.3,0L19.6,61.9C11.4,67.1,5,78.7,5,88.3V90c0,9.7,6.4,21.3,14.6,26.4l85.6,53.9c1.4,0.9,3.3,0.5,4.2-1
		c0.9-1.4,0.5-3.3-1-4.2l-85.6-53.9c-6.3-4-11.7-13.7-11.7-21.2v-1.6c0-7.5,5.4-17.2,11.7-21.2l55.9-35.2L182.2,97l-52.7,33.2
		c-8.6,5.4-15.3,17.5-15.3,27.7c0,5.5,2,9.7,5.6,11.7c1.5,0.8,3.1,1.2,4.8,1.2c2.5,0,5.3-0.9,8.1-2.6l49.9-31.4
		c4.7-2.9,8.4-9.6,8.4-15.1C191,118.3,189.7,115.7,187.4,114.4L187.4,114.4z"/>
	<path class="st0" d="M149.6,100.1c1,0,2-0.5,2.6-1.4c0.9-1.4,0.5-3.3-1-4.2L80.4,49.8c-1.4-0.9-3.3-0.5-4.2,1
		c-0.9,1.4-0.5,3.3,1,4.2l70.8,44.6C148.4,100,149,100.1,149.6,100.1L149.6,100.1z"/>
	<path class="st0" d="M137.3,108.3c1,0,2-0.5,2.6-1.4c0.9-1.4,0.5-3.3-1-4.2L109,83.8c-1.4-0.9-3.3-0.5-4.2,1
		c-0.9,1.4-0.5,3.3,1,4.2l29.9,18.8C136.2,108.1,136.8,108.3,137.3,108.3L137.3,108.3z"/>
	<path class="st0" d="M96.5,91.9c-1.4-0.9-3.3-0.5-4.2,1c-0.9,1.4-0.5,3.3,1,4.2l30.2,18.8c0.5,0.3,1.1,0.5,1.6,0.5
		c1,0,2-0.5,2.6-1.4c0.9-1.4,0.5-3.3-1-4.2L96.5,91.9z"/>
	<path class="st0" d="M64.4,57.9l-25.5,16c-0.9,0.6-1.4,1.5-1.4,2.6c0,1.1,0.6,2,1.4,2.6L69.3,98c0.5,0.3,1.1,0.5,1.6,0.5
		c0.6,0,1.2-0.2,1.7-0.5l6.8-4.4c1.4-0.9,1.8-2.8,0.9-4.2c-0.9-1.4-2.8-1.8-4.2-0.9l-5.1,3.3L46.3,76.5L66,64.1l24.2,15.2l-2.8,1.8
		c-1.4,0.9-1.8,2.8-0.9,4.2c0.9,1.4,2.8,1.8,4.2,0.9l6.9-4.4c0.9-0.6,1.4-1.5,1.4-2.6c0-1-0.5-2-1.4-2.6L67.6,57.9
		C66.6,57.2,65.4,57.2,64.4,57.9L64.4,57.9z"/>
	<path class="st0" d="M115.4,123.1c0.9-1.4,0.5-3.3-1-4.2L84,100c-1.4-0.9-3.3-0.5-4.2,1c-0.9,1.4-0.5,3.3,1,4.2l30.4,18.9
		c0.5,0.3,1.1,0.5,1.6,0.5C113.8,124.5,114.8,124,115.4,123.1L115.4,123.1z"/>
	<path class="st0" d="M26.9,83.8c-0.9,1.4-0.5,3.3,1,4.2l75,46.6c0.5,0.3,1.1,0.5,1.6,0.5c1,0,2-0.5,2.6-1.4c0.9-1.4,0.5-3.3-1-4.2
		l-75-46.6C29.7,82,27.8,82.4,26.9,83.8L26.9,83.8z"/>
</g>
</svg>
