<?xml version="1.0" encoding="utf-8"?>
<!-- Generator: Adobe Illustrator 22.1.0, SVG Export Plug-In . SVG Version: 6.00 Build 0)  -->
<svg version="1.1" id="Layer_1" xmlns="http://www.w3.org/2000/svg" xmlns:xlink="http://www.w3.org/1999/xlink" x="0px" y="0px"
	 viewBox="0 0 196 196" style="enable-background:new 0 0 196 196;" xml:space="preserve">
<style type="text/css">
	.st0{fill:#000000;}
</style>
<g>
	<g transform="translate(-1303 -1259)">
		<g>
			<path id="jizva" class="st0" d="M1435.1,1387.6c-0.7,0.3-2,0-3.6-0.4c-2.5-0.5-5.3-1.5-8.8-2.9c4-0.3,6.9-0.1,9,0.1
				c2.3,0.4,3.6,0.9,4.3,1.5c0.5,0.7,0.7,1.1,0.1,1.3C1435.9,1387.4,1435.7,1387.6,1435.1,1387.6z M1397.4,1369
				c2.9,5.6,6.6,10,11,13.3c-4,0.7-9.3,2.4-15.8,5l-4.4,1.9c2.9-4.9,6-11.7,9.3-20.2H1397.4z M1399.1,1345.3c0,4.1-0.3,7-1.1,8.8
				c-0.9-2.1-1.3-5.3-1.3-9c0-4,0.1-5.8,0.7-5.8C1398.6,1339.2,1399.1,1341.3,1399.1,1345.3L1399.1,1345.3z M1377.4,1397l1.5-1.1
				c-2.8,4.3-6.1,8.4-9.8,12c-0.9,0.7-1.3,0.9-1.3,0.7C1368.6,1405.6,1371.8,1401.9,1377.4,1397L1377.4,1397z M1416.3,1378.1
				c-6.1-3.7-10.6-9.3-13.4-17.1v-0.4c2.4-9.7,2.9-16.2,1.7-19.5c-0.4-3.2-1.7-5.3-4-6.4c-2.1-1.1-4.7-1.3-6.9-0.4
				c-2.4,0.8-3.9,2.4-4.4,4.5c-1.3,4.6-0.5,12.8,2.7,24.3c-4.9,11.2-9.3,20.2-13.2,27c-11.2,5.8-17.3,11.4-18.6,16.7
				c-0.1,1.6,0.4,3.5,1.6,5.3c1.2,1.7,3.1,2.7,5.6,2.9c2.7,0.3,5.3-0.9,8.5-3.6c4-3.3,8-8.6,12.4-15.9l4.4-1.5
				c9.3-3.2,15.9-5,20.3-5.8c6.3,3.6,13.4,5.7,20.6,6.2c2.7,0,4.8-0.9,6.1-2.7c1.3-1.7,2-3.8,2-6c0.1-2.1-0.7-4.1-2.1-5.6
				C1436.3,1377.1,1428.6,1376.3,1416.3,1378.1z M1348.7,1281.4h58.2v37.9c0,2.4,0.9,4.5,2.7,6.1c1.6,1.7,3.7,2.7,6.1,2.7h37.9
				v104.7h-104.8L1348.7,1281.4z M1424.3,1310.5v-27.6l27.6,27.6H1424.3z M1435.1,1269.1c-3.2-3.3-7.7-5.1-12.4-5h-74.1
				c-4.8,0-8.9,1.7-12.4,5c-3.3,3.5-5,7.6-5,12.4v151.2c0,4.8,1.7,8.9,5,12.4c3.5,3.3,7.6,5,12.4,5h104.7c4.8,0,8.9-1.7,12.4-5
				c3.3-3.5,5-7.6,5-12.4V1312c0-4.9-1.7-9-5-12.4L1435.1,1269.1z"/>
		</g>
	</g>
</g>
</svg>
