<?xml version="1.0" encoding="utf-8"?>
<!-- Generator: Adobe Illustrator 22.1.0, SVG Export Plug-In . SVG Version: 6.00 Build 0)  -->
<svg version="1.1" id="Calque_1" xmlns="http://www.w3.org/2000/svg" xmlns:xlink="http://www.w3.org/1999/xlink" x="0px" y="0px"
	 viewBox="0 0 196 196" style="enable-background:new 0 0 196 196;" xml:space="preserve">
<g>
	<g>
		<g>
			<path class="st0" d="M141.6,85.7l-40,40c-2,2-5.2,2-7.2,0l0,0c-2-2-2-5.2,0-7.2l40-40c2-2,5.2-2,7.2,0l0,0
				C143.6,80.5,143.6,83.7,141.6,85.7z"/>
		</g>
		<g>
			<path class="st0" d="M61.5,78.5l40,40c2,2,2,5.2,0,7.2l0,0c-2,2-5.2,2-7.2,0l-40-40c-2-2-2-5.2,0-7.2l0,0
				C56.3,76.6,59.6,76.6,61.5,78.5z"/>
		</g>
	</g>
	<g>
		<path class="st0" d="M98,191c-51.3,0-93-41.7-93-93C5,46.7,46.7,5,98,5c51.3,0,93,41.7,93,93C191,149.3,149.3,191,98,191z
			 M98,20.7c-42.6,0-77.3,34.7-77.3,77.3s34.7,77.3,77.3,77.3s77.3-34.7,77.3-77.3S140.6,20.7,98,20.7z"/>
	</g>
</g>
</svg>
