<?xml version="1.0" encoding="utf-8"?>
<!-- Generator: Adobe Illustrator 22.1.0, SVG Export Plug-In . SVG Version: 6.00 Build 0)  -->
<svg version="1.1" id="Calque_1" xmlns="http://www.w3.org/2000/svg" xmlns:xlink="http://www.w3.org/1999/xlink" x="0px" y="0px"
	 viewBox="0 0 196 196" style="enable-background:new 0 0 196 196;" xml:space="preserve">
<style type="text/css">
	.st0{fill:#000000;}
	.st1{fill:none;stroke:#000000;stroke-width:4;stroke-linecap:round;stroke-linejoin:round;stroke-miterlimit:10;}
</style>
<g>
	<g>
		<path class="st0" d="M134,166.5c-0.6,0-1.1-0.3-1.5-0.7l-50.2-59.2L4.4,80.1C3.5,79.8,3,79,3,78.1c0-0.9,0.7-1.6,1.5-1.9l186-46.7
			c0.7-0.2,1.5,0.1,2,0.6c0.5,0.6,0.6,1.4,0.3,2.1l-57,133c-0.3,0.6-0.9,1.1-1.5,1.2C134.2,166.5,134.1,166.5,134,166.5z M12.1,78.5
			L84,103c0.3,0.1,0.6,0.3,0.9,0.6l48.5,57.1l54.1-126.3L12.1,78.5z"/>
	</g>
	<g>
		<path class="st1" d="M69.9,100.3"/>
	</g>
	<g>
		<path class="st0" d="M69.9,150.7c-0.3,0-0.6-0.1-0.9-0.2c-0.7-0.3-1.1-1-1.1-1.8v-48.4c0-1.1,0.9-2,2-2s2,0.9,2,2v44.6l28.7-20
			c0.9-0.6,2.2-0.4,2.8,0.5c0.6,0.9,0.4,2.2-0.5,2.8L71,150.3C70.7,150.6,70.3,150.7,69.9,150.7z"/>
	</g>
	<g>
		<path class="st0" d="M83.4,106.9c-0.6,0-1.3-0.3-1.7-0.9c-0.6-0.9-0.4-2.2,0.5-2.8l30-20.4c0.9-0.6,2.2-0.4,2.8,0.5
			c0.6,0.9,0.4,2.2-0.5,2.8l-30,20.4C84.2,106.8,83.8,106.9,83.4,106.9z"/>
	</g>
</g>
</svg>
