<?xml version="1.0" encoding="utf-8"?>
<!-- Generator: Adobe Illustrator 22.1.0, SVG Export Plug-In . SVG Version: 6.00 Build 0)  -->
<svg version="1.1" id="Calque_1" xmlns="http://www.w3.org/2000/svg" xmlns:xlink="http://www.w3.org/1999/xlink" x="0px" y="0px"
	 viewBox="0 0 196 196" style="enable-background:new 0 0 196 196;" xml:space="preserve">
<path class="st0" d="M186.2,79.1c6.4-6.4,6.4-16.7,0-23.1L140,9.8c-6.4-6.4-16.7-6.4-23.1,0c-6.4,6.4-6.4,16.7,0,23.1l0,0l3.2,3.2
	L79.5,66.3C60.8,56.1,37,58.9,21.2,74.6c-1,1-1.6,2.4-1.6,3.9c0,1.4,0.6,2.8,1.6,3.9L55.9,117l-27,27c-8.7,8.7-15.9,18.7-21.4,29.7
	l0,0l-1.3,2.7c-2,3.9-1.2,8.5,1.9,11.6c3.1,3.1,7.7,3.8,11.6,1.9c12.1-6.1,22-12.4,32.4-22.8l27-27l34.7,34.7
	c1.1,1.1,2.5,1.6,3.9,1.6c1.4,0,2.8-0.5,3.9-1.6c9.3-9.3,14.4-21.6,14.4-34.7c0-8.4-2.1-16.4-6-23.6l30.1-40.6l3.2,3.2
	C169.5,85.5,179.8,85.5,186.2,79.1z M63.6,124.7c2.8,2.8,4.9,4.9,7.7,7.7l-27,27c-7.9,7.9-16.9,14.4-26.9,19.4L17,179l0.2-0.4
	c5-10,11.5-19,19.4-26.9L63.6,124.7z M82.9,82.3l30.8,30.8c7.2,7.2,11.2,16.8,11.2,27c0,8.3-2.7,16.3-7.6,22.8L33.1,78.7
	C48,67.6,69.3,68.8,82.9,82.3z M88.8,72.9l39.1-29l24.2,24.2l-29,39.1C121.8,105.8,90.2,74.2,88.8,72.9z M178.5,71.4
	c-2.1,2.1-5.6,2.1-7.7,0l-46.2-46.2l0,0c-2.1-2.1-2.1-5.6,0-7.7c2.1-2.1,5.6-2.1,7.7,0l46.2,46.2C180.6,65.8,180.6,69.3,178.5,71.4z
	"/>
</svg>
