<?xml version="1.0" encoding="utf-8"?>
<!-- Generator: Adobe Illustrator 22.1.0, SVG Export Plug-In . SVG Version: 6.00 Build 0)  -->
<svg version="1.1" id="Layer_1" xmlns="http://www.w3.org/2000/svg" xmlns:xlink="http://www.w3.org/1999/xlink" x="0px" y="0px"
	 viewBox="0 0 196 196" style="enable-background:new 0 0 196 196;" xml:space="preserve">
<style type="text/css">
	.st0{fill:#000000;}
</style>
<g>
	<g transform="translate(-893 -3067)">
		<g>
			<path id="_x33_slna" class="st0" d="M991,3228.9c15,0,28.3-4.6,39.8-13.8c11.3-8.8,19.1-21.3,22.3-35.2c0.2-1,0.8-1.8,1.7-2.4
				c0.8-0.6,1.7-0.9,2.7-0.9h17.9c1.5,0,2.6,0.5,3.5,1.7c0.8,1.1,1.1,2.2,0.9,3.5c-5.5,27.5-23.2,51-48.2,63.8
				c-12.5,6.4-26.4,9.7-40.5,9.6c-26.4,0.1-51.6-11.5-68.7-31.6l1.5,29.8c0.3,1.5,0,2.7-0.9,3.5c-0.9,0.9-2.2,1.3-3.5,1.3h-17.1
				c-1.2,0-2.3-0.5-3.1-1.3c-0.8-0.8-1.3-1.9-1.3-3.1V3181c0-1.3,0.4-2.3,1.3-3.1c0.8-0.9,1.8-1.3,3.1-1.3H975
				c1.3,0,2.3,0.4,3.1,1.3c0.9,0.8,1.3,1.8,1.3,3.1v17.1c0,1.2-0.4,2.2-1.3,3.1c-0.8,0.8-1.9,1.3-3.1,1.3l-37-1.9
				C949.8,3218.4,969.7,3229,991,3228.9L991,3228.9z M1058.2,3076.8c0-1.5,0.4-2.7,1.3-3.5c0.9-0.9,1.9-1.3,3.1-1.3h17.1
				c1.3,0,2.3,0.4,3.1,1.3c0.9,0.8,1.3,1.8,1.3,3.1v72.6c0,1.3-0.4,2.3-1.3,3.1c-0.8,0.8-1.9,1.3-3.1,1.3H1007
				c-1.2,0-2.3-0.5-3.1-1.3c-0.8-0.8-1.3-1.9-1.3-3.1v-17.1c0-1.2,0.4-2.2,1.3-3.1c0.9-0.9,2.1-1.4,3.4-1.3l36.7,1.9
				c-11.8-17.8-31.7-28.5-53-28.4c-15,0-28.3,4.6-39.8,13.8c-11.3,8.8-19.1,21.3-22.3,35.2c-0.2,1-0.8,1.8-1.7,2.4
				c-0.8,0.6-1.7,0.9-2.7,0.9h-17.9c-1.4,0-2.6-0.6-3.5-1.7c-0.8-1-1.1-2.2-0.9-3.5c5.5-27.5,23.2-51,48.2-63.8
				c12.5-6.4,26.4-9.7,40.5-9.6c26.4-0.1,51.6,11.5,68.7,31.6L1058.2,3076.8z"/>
		</g>
	</g>
</g>
</svg>
