<?xml version="1.0" encoding="utf-8"?>
<!-- Generator: Adobe Illustrator 22.1.0, SVG Export Plug-In . SVG Version: 6.00 Build 0)  -->
<svg version="1.1" id="Calque_1" xmlns="http://www.w3.org/2000/svg" xmlns:xlink="http://www.w3.org/1999/xlink" x="0px" y="0px"
	 viewBox="0 0 196 196" style="enable-background:new 0 0 196 196;" xml:space="preserve">
<g>
	<g>
		<path class="st0" d="M145.7,165.5H23.7c-2.1,0-3.8-1.7-3.8-3.8V83h7.5v75h114.4V12.5H27.5v45.4H20V8.8C20,6.7,21.7,5,23.7,5h121.9
			c2.1,0,3.8,1.7,3.8,3.8v153C149.4,163.9,147.7,165.5,145.7,165.5z"/>
	</g>
	<g>
		<rect x="20" y="63.8" class="st0" width="7.5" height="12.4"/>
	</g>
	<g>
		<path class="st0" d="M84.7,80H46.2c-2.1,0-3.8-1.7-3.8-3.8V37.4c0-2.1,1.7-3.8,3.8-3.8h38.5c2.1,0,3.8,1.7,3.8,3.8v38.9
			C88.5,78.3,86.8,80,84.7,80z M50,72.5h31V41.1H50V72.5z"/>
	</g>
	<g>
		<rect x="99" y="33.6" class="st0" width="27.8" height="7.5"/>
	</g>
	<g>
		<rect x="99" y="50.7" class="st0" width="27.8" height="7.5"/>
	</g>
	<g>
		<rect x="99" y="67.8" class="st0" width="27.8" height="7.5"/>
	</g>
	<g>
		<rect x="84.3" y="95.1" class="st0" width="42.6" height="7.5"/>
	</g>
	<g>
		<rect x="84.3" y="126.1" class="st0" width="42.6" height="7.5"/>
	</g>
	<g>
		<path class="st0" d="M54.8,113.4c-0.9,0-1.8-0.3-2.5-0.9l-8.6-7.7l5-5.6l5.9,5.2l13-13.9l5.5,5.1l-15.5,16.6
			C56.8,113,55.8,113.4,54.8,113.4z"/>
	</g>
	<g>
		<path class="st0" d="M54.8,141.9c-0.9,0-1.8-0.3-2.5-0.9l-8.6-7.7l5-5.6l5.9,5.2l13-13.9l5.5,5.1l-15.5,16.6
			C56.8,141.5,55.8,141.9,54.8,141.9z"/>
	</g>
	<g>
		<path class="st0" d="M159.3,178.1H52.1v-7.5h103.5V33.2h-2.8v-7.5h6.5c2.1,0,3.8,1.7,3.8,3.8v144.9
			C163.1,176.4,161.4,178.1,159.3,178.1z"/>
	</g>
	<g>
		<path class="st0" d="M172.3,191H65.1v-7.5h103.5V47.4h-2.8v-7.5h6.5c2.1,0,3.8,1.7,3.8,3.8v143.6C176,189.3,174.3,191,172.3,191z"
			/>
	</g>
</g>
</svg>
