<?xml version="1.0" encoding="utf-8"?>
<!-- Generator: Adobe Illustrator 22.1.0, SVG Export Plug-In . SVG Version: 6.00 Build 0)  -->
<svg version="1.1" id="Calque_1" xmlns="http://www.w3.org/2000/svg" xmlns:xlink="http://www.w3.org/1999/xlink" x="0px" y="0px"
	 viewBox="0 0 196 196" style="enable-background:new 0 0 196 196;" xml:space="preserve">
<g>
	<path class="st0" d="M190.7,132.3l-8.5,1c2.3,19.7-12,37.6-31.7,39.9l1,8.5C175.9,178.9,193.5,156.7,190.7,132.3L190.7,132.3z"/>
	<path class="st0" d="M175.5,134l-8.5,1c1.3,11.4-6.9,21.6-18.2,23l1,8.5C165.8,164.7,177.3,150.1,175.5,134L175.5,134z"/>
	<path class="st0" d="M5.3,63.7l8.5-1C11.6,43,25.8,25.1,45.5,22.8l-1-8.5C20.1,17.1,2.5,39.3,5.3,63.7L5.3,63.7z"/>
	<path class="st0" d="M20.5,62l8.5-1c-1.3-11.4,6.9-21.6,18.2-23l-1-8.5C30.2,31.3,18.7,45.9,20.5,62L20.5,62z"/>
	<path d="M63.1,46.3c0.3,0.6,0.9,0.8,1.5,0.6l17.9-7.9c0.6-0.3,0.8-0.9,0.6-1.5c-0.2-0.5-0.9-0.8-1.5-0.6l-17.9,7.9
		C63.1,45,62.9,45.7,63.1,46.3L63.1,46.3z"/>
	<path class="st0" d="M158.3,135.5L110.1,27c-2.1-4.7-7.6-6.8-12.2-4.7L42,47.1c-4.7,2.1-6.8,7.6-4.7,12.2l48.1,108.5
		c2.1,4.7,7.6,6.8,12.2,4.7l55.9-24.8C158.2,145.7,160.3,140.2,158.3,135.5z M123.7,155.9c-2.3,1-5.1,0-6.1-2.4
		c-1-2.3,0-5.1,2.3-6.1c2.3-1,5.1,0,6.1,2.3C127.1,152.1,126,154.9,123.7,155.9z M88.1,158L45.3,61.7l61.1-27.1l42.7,96.3L88.1,158z
		"/>
	<path d="M106.4,34.6"/>
</g>
</svg>
