<?xml version="1.0" encoding="utf-8"?>
<!-- Generator: Adobe Illustrator 22.1.0, SVG Export Plug-In . SVG Version: 6.00 Build 0)  -->
<svg version="1.1" id="Calque_1" xmlns="http://www.w3.org/2000/svg" xmlns:xlink="http://www.w3.org/1999/xlink" x="0px" y="0px"
	 viewBox="0 0 196 196" style="enable-background:new 0 0 196 196;" xml:space="preserve">
<g>
	<g>
		<path class="st0" d="M164.9,65c-4.7,2-9.6,3.4-14.8,4.1c5.3-3.2,9.4-8.2,11.3-14.2c-5,3-10.5,5.1-16.3,6.2
			c-4.7-5-11.5-8.1-18.8-8.1c-14.2,0-25.7,11.6-25.7,25.7c0,2,0.2,4,0.6,5.9c-21.4-1-40.3-11.3-53-26.9c-2.2,3.9-3.5,8.3-3.5,13
			c0,8.9,4.6,16.8,11.4,21.4c-4.1-0.1-8.2-1.3-11.6-3.2c0,0.1,0,0.2,0,0.3c0,12.5,8.9,22.9,20.6,25.3c-2.1,0.6-4.4,0.8-6.7,0.8
			c-1.6,0-3.3-0.1-4.9-0.4c3.3,10.2,12.8,17.7,24,17.9c-8.8,6.8-19.9,11-31.9,11c-2.1,0-4.1-0.1-6.2-0.4
			c11.4,7.3,24.9,11.5,39.5,11.5c47.3,0,73.2-39.2,73.2-73.2c0-1.1,0-2.2-0.1-3.3C157.1,74.7,161.4,70.2,164.9,65z"/>
	</g>
	<g>
		<path class="st0" d="M98,191c-51.3,0-93-41.7-93-93S46.7,5,98,5s93,41.7,93,93S149.3,191,98,191z M98,11.4
			c-47.7,0-86.6,38.8-86.6,86.6s38.8,86.6,86.6,86.6c47.7,0,86.6-38.8,86.6-86.6S145.7,11.4,98,11.4z"/>
	</g>
</g>
</svg>
