<?xml version="1.0" encoding="utf-8"?>
<!-- Generator: Adobe Illustrator 22.1.0, SVG Export Plug-In . SVG Version: 6.00 Build 0)  -->
<svg version="1.1" id="Calque_1" xmlns="http://www.w3.org/2000/svg" xmlns:xlink="http://www.w3.org/1999/xlink" x="0px" y="0px"
	 viewBox="0 0 196 196" style="enable-background:new 0 0 196 196;" xml:space="preserve">
<path class="st0" d="M191,40.3c-6.9,3-14.3,5-22,6c7.9-4.7,13.9-12.1,16.8-21.1c-7.4,4.4-15.5,7.5-24.2,9.2
	c-7-7.5-17-12.1-27.9-12.1c-21.1,0-38.1,17.1-38.1,38.1c0,3,0.3,5.9,0.9,8.7C64.8,67.7,36.8,52.5,18,29.4
	c-3.3,5.7-5.2,12.2-5.2,19.3c0,13.2,6.8,24.9,16.9,31.7c-6.1-0.1-12.1-1.9-17.2-4.7c0,0.1,0,0.3,0,0.4c0,18.5,13.2,33.9,30.6,37.5
	c-3.1,0.8-6.5,1.3-10,1.3c-2.4,0-4.9-0.1-7.2-0.7c4.9,15.1,19,26.2,35.6,26.6C48.4,150.9,32,157,14.1,157c-3.1,0-6.1-0.1-9.1-0.5
	c16.9,10.9,36.9,17.1,58.5,17.1c70.2,0,108.5-58.1,108.5-108.5c0-1.7-0.1-3.3-0.1-4.9C179.5,54.8,185.8,48,191,40.3z"/>
</svg>
