<?xml version="1.0" encoding="utf-8"?>
<!-- Generator: Adobe Illustrator 22.1.0, SVG Export Plug-In . SVG Version: 6.00 Build 0)  -->
<svg version="1.1" id="Layer_1" xmlns="http://www.w3.org/2000/svg" xmlns:xlink="http://www.w3.org/1999/xlink" x="0px" y="0px"
	 viewBox="0 0 196 196" style="enable-background:new 0 0 196 196;" xml:space="preserve">
<style type="text/css">
	.st0{enable-background:new    ;}
	.st1{fill:#000000;}
</style>
<g id="Content" transform="translate(473.000000, 178.000000)">
	<g id="Video" transform="translate(134.000000, 330.000000)">
		<g id="_xF144_">
			<g>
				<g class="st0">
					<path class="st1" d="M-509-503c16.8,0,32.2,4.2,46.5,12.6s25.6,19.7,33.9,33.9S-416-426.8-416-410c0,16.8-4.2,32.3-12.6,46.5
						s-19.7,25.6-33.9,33.9S-492.2-317-509-317s-32.2-4.2-46.5-12.6s-25.6-19.7-33.9-33.9S-602-393.2-602-410
						c0-16.8,4.2-32.2,12.6-46.5s19.7-25.6,33.9-33.9S-525.8-503-509-503z M-465.5-401c3-1.8,4.5-4.4,4.5-7.9s-1.5-6.1-4.5-7.9
						l-66-40.1c-3-1.8-6-1.8-9,0s-4.5,4.4-4.5,7.9v78c0,3.5,1.5,6.1,4.5,7.9s6,1.8,9,0L-465.5-401z"/>
				</g>
			</g>
		</g>
	</g>
</g>
</svg>
