<?xml version="1.0" encoding="utf-8"?>
<!-- Generator: Adobe Illustrator 22.1.0, SVG Export Plug-In . SVG Version: 6.00 Build 0)  -->
<svg version="1.1" id="Layer_1" xmlns="http://www.w3.org/2000/svg" xmlns:xlink="http://www.w3.org/1999/xlink" x="0px" y="0px"
	 viewBox="0 0 196 196" style="enable-background:new 0 0 196 196;" xml:space="preserve">
<path d="M129,16.6v162.7c0,10.4-12.6,15.5-19.8,8.2l-43.1-43.1H16.6c-6.4,0-11.6-5.2-11.6-11.6V63.1c0-6.4,5.2-11.6,11.6-11.6h49.4
	l43.1-43.1C116.4,1.1,129,6.2,129,16.6z M191,98c0-16.3-8.3-31.2-22.3-39.7c-7.3-4.5-16.8-2.2-21.3,5.1s-2.2,16.8,5.1,21.3
	c4.7,2.8,7.4,7.8,7.4,13.2c0,5.1-2.5,9.9-6.7,12.8c-7,4.9-8.8,14.5-3.9,21.6c4.9,7,14.5,8.8,21.6,3.9C183.5,127.5,191,113.2,191,98z
	"/>
</svg>
