<?xml version="1.0" encoding="UTF-8"?>
<svg width="531px" height="299px" viewBox="0 0 531 299" version="1.1" xmlns="http://www.w3.org/2000/svg" xmlns:xlink="http://www.w3.org/1999/xlink">
    <!-- Generator: Sketch 51.3 (57544) - http://www.bohemiancoding.com/sketch -->
    <title>404</title>
    <desc>Created with Sketch.</desc>
    <defs></defs>
    <g id="Login-/-Sign-up" stroke="none" stroke-width="1" fill="none" fill-rule="evenodd">
        <g id="Reso---404" transform="translate(-615.000000, -307.000000)" fill-rule="nonzero">
            <g id="404" transform="translate(615.000000, 307.000000)">
                <path d="M75.1807229,207.554217 L75.1807229,169.421687 L0.542168675,169.421687 L0.542168675,139.060241 L86.2048193,29.1807229 L109.518072,29.1807229 L109.518072,138.879518 L131.927711,138.879518 L131.927711,169.60241 L109.518072,169.60241 L109.518072,207.73494 L75.1807229,207.73494 L75.1807229,207.554217 Z M34.6987952,138.698795 L78.9759036,138.698795 L78.9759036,80.8674699 L34.6987952,138.698795 Z" id="Shape" fill="#FFFFFF"></path>
                <path d="M474.036145,207.554217 L474.036145,169.421687 L399.39759,169.421687 L399.39759,139.060241 L485.060241,29.1807229 L508.373494,29.1807229 L508.373494,138.879518 L530.783133,138.879518 L530.783133,169.60241 L508.373494,169.60241 L508.373494,207.73494 L474.036145,207.73494 L474.036145,207.554217 Z M433.73494,138.698795 L478.012048,138.698795 L478.012048,80.8674699 L433.73494,138.698795 Z" id="Shape" fill="#FFFFFF"></path>
                <path d="M374.917354,187.26343 L375.807229,188.216867 L375.733946,188.324308 L390.084337,202.674699 C391.168675,203.578313 391.168675,205.204819 390.084337,206.289157 L389.574712,206.798782 L456.048193,272.795181 C461.650602,278.39759 462.012048,287.253012 456.951807,293.216867 C451.349398,299.903614 441.048193,300.26506 434.903614,294.120482 L372.559326,232.371365 L368.216867,228.156627 L367.493976,228.879518 C366.590361,229.963855 364.963855,229.963855 363.879518,228.879518 L348.581078,213.581078 C329.200089,227.634384 305.38283,235.927711 279.662651,235.927711 C214.783133,235.927711 162.012048,183.156627 162.012048,118.277108 C162.012048,53.3975904 214.60241,0.626506024 279.662651,0.626506024 C344.722892,0.626506024 397.313253,53.3975904 397.313253,118.277108 C397.313253,144.027329 389.000542,167.870182 374.917354,187.26343 Z M267.5,216 C321.347763,216 365,172.347763 365,118.5 C365,64.6522369 321.347763,21 267.5,21 C213.652237,21 170,64.6522369 170,118.5 C170,172.347763 213.652237,216 267.5,216 Z" id="Combined-Shape" fill="#424242" opacity="0.121518"></path>
                <g id="loop" transform="translate(148.000000, 0.000000)">
                    <path d="M294.048193,272.795181 L218.506024,197.795181 L197.180723,219.120482 L272.903614,294.120482 C279.048193,300.26506 289.349398,299.903614 294.951807,293.216867 C300.012048,287.253012 299.650602,278.39759 294.048193,272.795181 Z" id="Shape" fill="#424242"></path>
                    <path d="M181.819277,208.819277 L201.879518,228.879518 C202.963855,229.963855 204.590361,229.963855 205.493976,228.879518 L228.084337,206.289157 C229.168675,205.204819 229.168675,203.578313 228.084337,202.674699 L208.024096,182.614458 L181.819277,208.819277 Z" id="Shape" fill="#E0E0E0"></path>
                    <polygon id="Shape" fill="#BDBDBD" points="211.277108 185.506024 213.807229 188.216867 192.481928 219.481928 183.084337 210.084337"></polygon>
                    <polygon id="Shape" fill="#212121" opacity="0.64" points="206.216867 228.156627 227.542169 206.831325 228.987952 208.277108 212.361446 234.120482"></polygon>
                    <path d="M117.662651,0.626506024 C52.6024096,0.626506024 0.0120481928,53.3975904 0.0120481928,118.277108 C0.0120481928,183.156627 52.7831325,235.927711 117.662651,235.927711 C182.542169,235.927711 235.313253,183.156627 235.313253,118.277108 C235.313253,53.3975904 182.722892,0.626506024 117.662651,0.626506024 Z M117.662651,211.710843 C66.1566265,211.710843 24.2289157,169.963855 24.2289157,118.277108 C24.2289157,66.7710843 65.9759036,24.8433735 117.662651,24.8433735 C169.349398,24.8433735 211.096386,66.5903614 211.096386,118.277108 C211.096386,169.783133 169.168675,211.710843 117.662651,211.710843 Z" id="Shape" fill="#F5F5F5"></path>
                </g>
            </g>
        </g>
    </g>
</svg>