<?xml version="1.0" standalone="no"?>
<!DOCTYPE svg PUBLIC "-//W3C//DTD SVG 1.1//EN" "http://www.w3.org/Graphics/SVG/1.1/DTD/svg11.dtd" >
<svg xmlns="http://www.w3.org/2000/svg">
<metadata>Generated by IcoMoon</metadata>
<defs>
<font id="icomoon" horiz-adv-x="1024">
<font-face units-per-em="1024" ascent="960" descent="-64" />
<missing-glyph horiz-adv-x="1024" />
<glyph unicode="&#x20;" horiz-adv-x="512" d="" />
<glyph unicode="&#xe900;" glyph-name="three-dots" d="M238.237 448c0-58.574-47.483-106.057-106.057-106.057s-106.057 47.483-106.057 106.057c0 58.574 47.483 106.057 106.057 106.057s106.057-47.483 106.057-106.057zM618.057 448c0-58.574-47.483-106.057-106.057-106.057s-106.057 47.483-106.057 106.057c0 58.574 47.483 106.057 106.057 106.057s106.057-47.483 106.057-106.057zM997.878 448c0-58.574-47.483-106.057-106.057-106.057s-106.057 47.483-106.057 106.057c0 58.574 47.483 106.057 106.057 106.057s106.057-47.483 106.057-106.057z" />
<glyph unicode="&#xe901;" glyph-name="angle-left" d="M313.469 358.661c-22.988 0-48.065 8.882-63.739 27.167-36.571 33.959-40.751 86.727 0 127.478l398.629 393.927c36.571 33.959 93.518 36.571 127.478 0 36.571-33.959 36.571-93.518 0-127.478l-398.629-393.927c-18.286-18.286-40.751-27.167-63.739-27.167zM313.469 319.478c36.571 0 68.441 13.584 93.518 38.661l63.739 63.739 303.020-303.020c36.571-36.571 33.959-93.518 0-129.567-18.286-18.286-40.751-27.167-63.739-27.167-25.078 0-48.065 8.882-65.829 27.167l-330.71 330.188z" />
<glyph unicode="&#xe902;" glyph-name="angle-right" d="M646.792 385.829l-398.629 393.927c-36.571 33.959-36.571 93.518 0 127.478 33.959 36.571 90.906 33.959 127.478 0l398.629-393.927c40.751-40.751 36.571-93.518 0-127.478-16.196-18.286-40.751-27.167-63.739-27.167s-45.453 8.882-63.739 27.167zM380.343-10.71c-18.286-18.286-40.751-27.167-65.829-27.167-22.988 0-45.453 8.882-63.739 27.167-33.959 36.571-36.571 93.518 0 129.567l303.020 303.020 63.739-63.739c25.078-25.078 56.947-38.661 93.518-38.661l-330.71-330.188z" />
<glyph unicode="&#xe903;" glyph-name="document" d="M972.8 845.061c-14.106 0-25.078-11.494-25.078-25.078v-668.212c0-70.531-57.469-128-128-128h-615.445c-70.531 0-128 57.469-128 128v720.98h737.176v-648.359c0-14.106 11.494-25.078 25.078-25.078s25.078 11.494 25.078 25.078v673.437c0 14.106-11.494 25.078-25.078 25.078h-787.331c-13.584 0-25.078-11.494-25.078-25.078v-746.057c0-98.22 79.935-178.155 178.155-178.155h614.922c98.22 0 178.155 79.935 178.155 178.155v667.69c0.522 14.106-10.449 25.6-24.555 25.6v0zM717.322 726.988c13.584 0 25.078 11.494 25.078 25.078s-11.494 25.078-25.078 25.078h-549.094c-14.106 0-25.078-11.494-25.078-25.078s11.494-25.078 25.078-25.078h549.094zM717.322 264.098h-549.094c-14.106 0-25.078-11.494-25.078-25.078 0-14.106 11.494-25.078 25.078-25.078h548.571c14.106 0 25.078 11.494 25.078 25.078 0 14.106-10.971 25.078-24.555 25.078v0zM717.322 135.053h-461.845c-14.106 0-25.078-11.494-25.078-25.078 0-14.106 11.494-25.078 25.078-25.078h461.845c13.584 0 25.078 11.494 25.078 25.078 0 14.106-11.494 25.078-25.078 25.078v0zM134.792 639.216v-272.196c0-13.584 11.494-25.078 25.078-25.078h273.241c14.106 0 25.078 11.494 25.078 25.078v272.196c0 13.584-11.494 25.078-25.078 25.078h-273.241c-14.106 0-25.078-10.971-25.078-25.078v0zM184.947 614.139h223.086v-222.041h-223.086v222.041zM730.384 639.216h-181.29c-14.106 0-25.078-11.494-25.078-25.078 0-14.106 11.494-25.078 25.078-25.078h181.29c14.106 0 25.078 11.494 25.078 25.078s-10.971 25.078-25.078 25.078v0zM730.384 525.322h-181.29c-14.106 0-25.078-11.494-25.078-25.078s11.494-25.078 25.078-25.078h181.29c14.106 0 25.078 11.494 25.078 25.078 0 14.106-10.971 25.078-25.078 25.078v0zM755.461 379.559c0 14.106-11.494 25.078-25.078 25.078h-181.29c-14.106 0-25.078-11.494-25.078-25.078s11.494-25.078 25.078-25.078h181.29c14.106 0 25.078 10.971 25.078 25.078v0z" />
<glyph unicode="&#xe904;" glyph-name="link" d="M252.865-37.878c-125.388 0-226.743 101.878-226.743 226.743 0 60.082 24.033 117.551 66.351 159.869l205.845 206.367c42.318 42.841 100.31 66.351 160.392 66.351 43.363 0 85.682-12.539 122.253-36.049 13.584-8.882 26.645-18.808 38.139-30.824 13.061-13.061 19.853-31.347 18.808-49.633-1.045-15.673-7.837-30.302-18.808-41.273-25.6-24.033-65.306-24.033-90.906 0-38.139 38.139-99.265 38.139-137.404 0l-206.89-206.367c-38.139-38.139-38.139-99.265 0-137.404s99.265-38.139 137.404 0v0l122.253 122.253c4.702 4.702 11.494 6.269 17.763 3.657 32.914-13.584 67.918-20.376 103.445-19.853h6.269c8.882 0 16.196-7.314 16.196-16.196 0-4.18-1.567-8.359-4.702-11.494l-169.796-170.318c-42.318-42.318-99.788-65.829-159.869-65.829zM565.812 274.547h-12.016c-7.837 0.522-16.196 1.045-24.033 2.090-6.792 1.045-13.061 2.612-19.853 4.18l-9.404 2.612c-3.657 1.045-6.792 2.090-10.449 3.657-3.657 1.045-6.792 2.612-10.449 3.657-3.657 1.567-6.792 2.612-10.449 4.18-24.033 10.971-45.976 26.645-64.784 45.453-13.061 13.061-19.853 31.347-18.808 49.633 1.045 15.673 7.837 30.302 18.808 41.273 25.6 24.033 65.306 24.033 90.906 0 38.139-38.139 99.265-38.139 137.404 0l53.29 53.29 1.045 1.567 152.033 151.51c38.139 38.139 38.139 99.265 0 137.404s-99.265 38.139-137.404 0l-121.731-121.731c-4.702-4.702-11.494-6.269-17.763-3.657-32.914 13.584-67.918 20.376-103.445 20.376h-5.747c-6.792 0-12.539 3.657-15.151 9.927s-1.045 13.061 3.657 17.763l169.796 169.796c88.294 88.294 231.967 88.294 320.784 0s88.294-231.967 0-320.784l-206.367-206.367c-29.257-29.257-65.306-49.633-105.012-59.559h-1.567l-9.404-2.090-5.224-1.045-10.971-1.567h-5.747c-4.18 0-7.837-1.045-11.494-1.045l-10.449-0.522z" />
<glyph unicode="&#xe905;" glyph-name="check" d="M512-37.878c-268.016 0-485.878 217.861-485.878 485.878s217.861 485.878 485.878 485.878 485.878-217.861 485.878-485.878-217.861-485.878-485.878-485.878zM512 780.8c-183.38 0-332.8-149.42-332.8-332.8s149.42-332.8 332.8-332.8 332.8 149.42 332.8 332.8-149.42 332.8-332.8 332.8zM456.098 265.143l-148.376 130.090 50.678 57.469 90.384-79.412 208.98 238.759 57.469-50.678z" />
<glyph unicode="&#xe906;" glyph-name="uncheck" d="M512-37.878c-268.016 0-485.878 217.861-485.878 485.878s217.861 485.878 485.878 485.878 485.878-217.861 485.878-485.878-217.861-485.878-485.878-485.878zM512 780.8c-183.38 0-332.8-149.42-332.8-332.8s149.42-332.8 332.8-332.8 332.8 149.42 332.8 332.8-149.42 332.8-332.8 332.8z" />
<glyph unicode="&#xe907;" glyph-name="comment" d="M900.702 901.486h-777.404c-52.767 0-97.176-44.408-97.176-97.176v-534.465c0-52.767 44.408-97.176 97.176-97.176h462.367l157.257-172.931c3.135-3.657 7.314-5.224 12.016-5.224 2.090 0 4.18 0.522 5.747 1.045 6.269 2.612 10.449 8.359 10.449 15.151v161.959h129.567c52.767 0 97.176 44.408 97.176 97.176v534.465c0 52.767-44.408 97.176-97.176 97.176v0zM285.257 480.392c-35.527 0-64.784 29.257-64.784 64.784s29.257 64.784 64.784 64.784c35.527 0 64.784-29.257 64.784-64.784s-29.257-64.784-64.784-64.784v0zM512 480.392c-35.527 0-64.784 29.257-64.784 64.784s29.257 64.784 64.784 64.784c35.527 0 64.784-29.257 64.784-64.784s-29.257-64.784-64.784-64.784v0zM738.743 480.392c-35.527 0-64.784 29.257-64.784 64.784s29.257 64.784 64.784 64.784c35.527 0 64.784-29.257 64.784-64.784s-29.257-64.784-64.784-64.784v0z" />
<glyph unicode="&#xe908;" glyph-name="pencil" d="M926.824 882.155c-32.914 32.914-77.322 50.678-123.82 50.155s-90.384-18.808-122.776-51.722l-520.882-525.584c-3.135-3.135-5.224-6.792-6.792-10.971l-116.506-327.053c-3.657-10.449-1.045-22.465 6.792-30.824 5.747-5.747 13.584-9.404 21.42-8.882 3.135 0 5.747 0.522 8.882 1.567l294.661 92.473c4.702 1.567 8.882 4.18 12.016 7.314l549.094 556.931c32.392 32.914 50.678 77.322 50.155 123.82s-18.808 90.384-52.245 122.776v0zM332.8 122.514l-110.237-35.004c-6.269 18.808-16.718 35.527-30.302 49.11-12.016 12.016-25.6 20.898-40.229 28.212l49.633 139.494 68.441 0.522 0.522-59.037c0-16.718 13.584-29.78 29.78-29.257l52.245 0.522-19.853-94.563zM766.955 556.147l-359.445-364.147 9.927 49.11c2.090 8.882-0.522 17.763-6.269 24.555s-14.106 10.971-22.988 10.971l-59.037-0.522-0.522 59.559c0 16.196-13.584 29.78-29.78 29.257l-47.020-0.522 350.563 353.698 0.522-0.522c21.42 21.943 50.678 33.959 80.98 34.482 30.824 0 60.082-11.494 81.502-33.437 21.943-21.42 33.959-50.155 34.482-80.98s-11.494-59.559-32.914-81.502v0zM886.073 677.355l-27.69-27.69c-3.135 42.318-20.898 82.024-51.2 111.804-30.302 30.302-70.008 47.543-112.849 49.633l27.69 27.69c21.42 21.943 50.155 33.959 80.98 33.959s59.559-11.494 81.502-32.914c21.943-21.42 33.959-50.678 34.482-80.98 0.522-30.824-10.971-59.559-32.914-81.502v0zM691.2 685.714l-294.661-298.841c-11.494-11.494-11.494-30.302 0.522-41.796 5.747-5.747 13.584-8.359 20.898-8.359 7.837 0 15.151 3.135 20.898 8.882l294.661 298.841c11.494 11.494 11.494 30.302-0.522 41.796-11.494 10.971-30.302 10.971-41.796-0.522v0z" />
<glyph unicode="&#xe909;" glyph-name="hand-with-icon" d="M769.567 738.482c0-10.387-8.421-18.808-18.808-18.808s-18.808 8.421-18.808 18.808c0 10.387 8.421 18.808 18.808 18.808s18.808-8.421 18.808-18.808zM200.62 167.967c0-10.387-8.421-18.808-18.808-18.808s-18.808 8.421-18.808 18.808c0 10.387 8.421 18.808 18.808 18.808s18.808-8.421 18.808-18.808zM627.984 615.184c14.629-13.584 22.988-32.392 22.988-52.767v-24.033c0-15.673 7.314-29.78 18.808-38.661v-55.38c0-25.6 20.898-46.498 46.498-46.498h68.963c25.6 0 46.498 20.898 46.498 46.498v54.857c11.494 8.882 18.808 22.988 18.808 38.661v24.033c0 19.853 8.359 39.184 23.51 52.767 38.139 34.482 60.082 84.114 60.082 135.314 0 49.633-19.331 95.608-54.335 130.612-35.527 35.004-82.024 53.812-131.657 53.29-47.543-0.522-92.473-19.853-126.433-53.29-33.959-33.959-53.29-78.367-54.335-126.433-0.522-52.767 21.42-103.445 60.604-138.971zM794.122 443.82c0-4.702-3.657-8.882-8.882-8.882h-68.963c-4.702 0-8.882 3.657-8.882 8.882v44.408h86.727v-44.408zM748.669 895.739c0.522 0 1.567 0 2.090 0 38.661 0 74.71-14.629 101.878-41.796 27.69-27.69 43.363-64.261 43.363-103.445 0-40.751-17.241-79.935-47.543-107.624-22.988-20.898-36.049-50.155-36.049-80.98v-24.033c0-6.269-5.224-11.494-11.494-11.494h-31.347v137.404c0 10.449-8.359 18.808-18.808 18.808s-18.808-8.359-18.808-18.808v-137.404h-31.347c-6.269 0-11.494 5.224-11.494 11.494v24.033c0 30.824-13.061 60.082-35.527 80.98-30.824 28.212-48.588 68.441-47.543 110.237 1.045 77.845 65.306 141.584 142.629 142.629zM988.996 300.147c-16.718 37.616-60.082 54.335-97.698 37.616 0 0 0 0-0.522 0l-122.776-56.947c-9.404-4.18-13.584-15.673-9.404-25.078s15.673-13.584 25.078-9.404l123.298 56.947c18.286 7.837 39.706-0.522 47.543-18.286 7.837-18.286 0-39.706-18.286-47.543l-252.343-111.282c-40.229-17.763-85.159-16.718-124.343 2.612l-92.473 45.976c-49.11 24.555-106.58 25.6-156.735 3.657l-1.567-0.522-68.963 156.212 95.608 42.318c45.453 20.376 96.653 21.943 143.673 4.702l185.992-68.441c16.718-6.269 26.122-25.078 19.853-42.318-5.747-17.241-25.078-26.645-42.318-20.898l-143.673 48.588c-9.927 3.135-20.898-2.090-24.033-12.016s2.090-20.898 12.016-24.033l143.673-48.588c7.314-2.612 15.151-3.657 22.988-3.657 29.78 0 57.469 18.808 67.396 48.065 12.539 36.571-6.792 76.8-42.841 89.861l-185.992 68.441c-55.902 20.376-117.029 18.808-171.886-5.747l-96.653-42.318c-12.539 19.331-37.616 27.167-59.559 17.763l-123.298-54.857c-6.792-3.135-11.494-9.927-11.494-17.241l-1.045-332.8c0-6.792 3.135-12.539 8.882-16.196 3.135-2.090 6.269-2.612 9.927-2.612 3.135 0 5.747 0.522 8.359 2.090l240.849 121.731c21.943 9.927 32.392 33.959 26.122 56.424l2.090 1.045c40.229 17.763 85.159 16.718 124.343-2.612l92.473-45.976c49.11-24.555 106.58-25.6 156.735-3.657l252.343 111.282c38.661 16.718 55.38 60.082 38.661 97.698zM281.078 120.424c-0.522 0-0.522-0.522-1.045-0.522l-213.682-107.624v82.547l55.38 27.167c9.404 4.702 13.061 16.196 8.882 25.6-4.702 9.404-16.196 13.061-25.6 8.882l-38.661-18.808 0.522 164.571 111.804 49.11c5.224 2.090 10.971 0 13.061-5.224l88.816-201.143c0 0 0 0 0 0l4.702-10.971c3.135-5.747 0.522-11.494-4.18-13.584z" />
<glyph unicode="&#xe90a;" glyph-name="envelope" d="M997.878 732.735c0 47.020-38.139 85.159-85.159 85.159h-801.437c-47.020 0-85.159-38.139-85.159-85.159v-569.469c0-47.020 38.139-85.159 85.159-85.159h800.914c47.020 0 85.159 38.139 85.159 85.159v569.469zM83.069 721.241l274.286-271.673-274.286-274.286c0 0 0 545.959 0 545.959zM513.567 374.335l-390.269 386.612h776.882l-386.612-386.612zM397.584 409.339l96.131-95.086c10.971-10.971 29.257-10.971 40.229 0l93.518 93.518 272.718-272.718h-776.882l274.286 274.286zM668.212 448l272.718 272.718v-545.959l-272.718 273.241z" />
<glyph unicode="&#xe90b;" glyph-name="facebook-bordered" d="M512-37.878c-268.016 0-485.878 217.861-485.878 485.878s217.861 485.878 485.878 485.878 485.878-217.861 485.878-485.878-217.861-485.878-485.878-485.878zM512 900.441c-249.208 0-452.441-202.71-452.441-452.441s202.71-452.441 452.441-452.441c249.208 0 452.441 202.71 452.441 452.441s-203.233 452.441-452.441 452.441zM386.090 430.759h58.514v-240.327c0-4.702 3.657-8.359 8.359-8.359h98.743c4.702 0 8.359 3.657 8.359 8.359v239.282h66.873c4.18 0 7.837 3.135 8.359 7.837l10.449 88.294c0.522 2.612-0.522 4.702-2.090 6.792-1.567 1.567-4.18 2.612-6.269 2.612h-77.322v55.38c0 16.718 8.882 25.078 26.645 25.078h50.678c4.702 0 8.359 3.657 8.359 8.359v81.502c0 4.702-3.657 8.359-8.359 8.359h-69.486c-0.522 0-1.567 0-3.135 0-12.016 0-54.335-2.612-87.249-32.914-36.571-33.959-31.869-74.188-30.302-81.502v-64.784h-61.127c-4.702 0-8.359-3.657-8.359-8.359v-87.249c-0.522-4.702 3.657-8.359 8.359-8.359v0z" />
<glyph unicode="&#xe90c;" glyph-name="facebook" d="M282.122 416.131h106.58v-438.335c0-8.882 6.792-15.673 15.673-15.673h180.767c8.882 0 15.673 6.792 15.673 15.673v436.245h122.253c7.837 0 14.629 5.747 15.673 14.106l18.808 161.437c0.522 4.18-1.045 8.882-3.657 12.016-3.135 3.135-7.314 5.224-11.494 5.224h-141.061v101.355c0 30.302 16.196 45.976 48.588 45.976h91.951c8.882 0 15.673 6.792 15.673 15.673v148.376c0 8.882-6.792 15.673-15.673 15.673h-126.955c-1.045 0-3.135 0-5.747 0-21.943 0-98.743-4.18-159.347-60.082-67.396-61.649-57.992-135.837-55.902-148.376v-118.596h-111.804c-8.882 0-15.673-6.792-15.673-15.673v-159.347c0-8.359 7.314-15.673 15.673-15.673v0z" />
<glyph unicode="&#xe90d;" glyph-name="close" d="M969.143 766.694l-775.837-775.837c-38.139-38.139-100.833-38.139-138.971 0v0c-38.139 38.139-38.139 100.833 0 138.971l776.359 775.314c38.139 38.139 100.833 38.139 138.971 0v0c37.616-38.139 37.616-100.31-0.522-138.449zM193.306 905.143l775.837-775.837c38.139-38.139 38.139-100.833 0-138.971v0c-38.139-38.139-100.833-38.139-138.971 0l-775.314 776.359c-38.139 38.139-38.139 100.833 0 138.971v0c38.139 37.616 100.31 37.616 138.449-0.522z" />
<glyph unicode="&#xe90e;" glyph-name="filter" d="M43.886 771.918h53.812v-72.098c0-9.927 8.359-17.763 17.763-17.763h215.771c9.927 0 17.763 8.359 17.763 17.763v72.098h630.073c9.927 0 17.763 8.359 17.763 17.763 0 9.927-7.837 17.763-17.763 17.763h-629.029v72.62c0 9.927-7.837 17.763-17.763 17.763h-216.294c-9.927 0-17.763-7.837-17.763-17.763v-72.098h-54.335c-9.927 0-17.763-7.837-17.763-17.763 0-10.449 7.837-18.286 17.763-18.286v0zM134.269 861.78h179.722v-143.673h-179.722v143.673zM979.592 465.763h-341.682v72.098c0 9.927-7.837 17.763-17.763 17.763h-216.294c-9.927 0-17.763-8.359-17.763-17.763v-72.098h-342.204c-9.927 0-17.763-7.837-17.763-17.763s7.837-17.763 17.763-17.763h341.682v-72.098c0-9.927 7.837-17.763 17.763-17.763h215.771c9.927 0 17.763 8.359 17.763 17.763v72.098h341.682c9.927 0 17.763 8.359 17.763 17.763 1.567 9.927-6.269 17.763-16.718 17.763v0zM601.861 375.902h-179.722v144.196h179.722v-144.196zM979.592 124.082h-53.812v72.098c0 9.927-7.837 17.763-17.763 17.763h-215.771c-9.927 0-17.763-8.359-17.763-17.763v-72.098h-630.596c-9.927 0-17.763-8.359-17.763-17.763 0-9.927 7.837-17.763 17.763-17.763h630.073v-72.098c0-9.927 7.837-17.763 17.763-17.763h215.771c9.927 0 17.763 7.837 17.763 17.763v72.098h53.812c9.927 0 17.763 7.837 17.763 17.763 1.045 9.927-6.792 17.763-17.241 17.763v0zM889.731 34.22h-179.722v143.673h179.722v-143.673z" />
<glyph unicode="&#xe90f;" glyph-name="angle-down-square" d="M997.878 583.314l-484.833-512-486.922 512v241.371l486.922-512.522 484.833 512.522v-241.371z" />
<glyph unicode="&#xe910;" glyph-name="angle-right-square" d="M52.245 933.878h470.727l448.784-487.967-448.784-483.788h-470.727l448.261 483.788-448.261 487.967z" />
<glyph unicode="&#xe911;" glyph-name="angle-left-rounded" d="M512 933.878c-268.539 0-485.878-217.339-485.878-485.878s217.339-485.878 485.878-485.878 485.878 217.339 485.878 485.878-217.339 485.878-485.878 485.878zM684.931 298.58c19.331-10.971 26.122-36.049 14.629-55.38-10.971-19.331-36.049-26.122-55.38-14.629l-305.11 176.065c-13.061 7.314-20.376 21.42-19.853 35.527 0 14.106 6.792 28.212 19.853 35.527l305.11 176.065c19.331 10.971 43.886 4.702 55.38-14.629 10.971-19.331 4.702-43.886-14.629-55.38l-246.073-141.061 246.073-142.106z" />
<glyph unicode="&#xe912;" glyph-name="angle-right-rounded" d="M512 933.878c-268.539 0-485.878-217.339-485.878-485.878s217.339-485.878 485.878-485.878 485.878 217.339 485.878 485.878c0 268.539-217.339 485.878-485.878 485.878zM692.245 404.637l-305.11-176.065c-19.331-10.971-43.886-4.702-55.38 14.629-10.971 19.331-4.702 43.886 14.629 55.38l246.073 142.106-245.551 141.584c-19.331 10.971-26.122 36.049-14.629 55.38 10.971 19.331 36.049 26.122 55.38 14.629l305.11-176.065c13.061-7.314 20.376-21.42 19.853-35.527 0-14.106-7.314-28.212-20.376-36.049z" />
<glyph unicode="&#xe913;" glyph-name="graphic" d="M856.294 396.8v403.331h29.78c10.449 0 18.808 8.359 18.808 18.808v96.131c0 10.449-8.359 18.808-18.808 18.808h-841.143c-10.449 0-18.808-8.359-18.808-18.808v-95.608c0-10.449 8.359-18.808 18.808-18.808h29.78v-497.371h-29.78c-10.449 0-18.808-8.359-18.808-18.808v-95.608c0-10.449 8.359-18.808 18.808-18.808h401.241v-59.037c-32.392-8.359-56.424-38.139-56.424-73.143 0-41.273 33.959-75.233 75.233-75.233s75.233 33.959 75.233 75.233c0 35.004-24.033 64.261-56.424 73.143v59.037h63.739c9.404-115.984 106.58-206.89 224.653-206.89 124.343 0 225.176 100.833 225.176 225.176 0.522 93.518-57.992 175.020-141.061 208.457zM503.118 37.355c0-20.376-16.718-37.616-37.094-37.616s-37.616 16.718-37.616 37.616 16.718 37.616 37.616 37.616c19.853 0 37.094-16.718 37.094-37.616zM64.261 895.739h803.004v-57.469h-803.004v57.469zM112.849 723.853h390.269c10.449 0 18.808 8.359 18.808 18.808s-8.359 18.808-18.808 18.808h-390.269v38.139h705.306v-392.359c-13.061 2.612-26.122 4.18-39.706 4.702 0 0 0 0 0 0-2.090 0-3.657 0-5.747 0s-4.702 0-6.792 0c-0.522 0-1.567 0-2.090 0-1.567 0-3.135 0-4.702 0-0.522 0-1.567 0-2.090 0-1.567 0-3.657-0.522-5.224-0.522-0.522 0-1.045 0-1.567 0-2.090 0-4.18-0.522-6.792-0.522-0.522 0-1.045 0-2.090-0.522-1.567 0-3.135-0.522-4.702-0.522-1.045 0-1.567-0.522-2.612-0.522s-2.612-0.522-3.657-0.522c-1.045 0-2.090-0.522-3.135-0.522s-2.090-0.522-3.135-0.522-4.702-1.045-6.792-1.567c-0.522 0-1.045 0-1.045-0.522-1.567-0.522-3.135-1.045-4.702-1.567 0 0-0.522 0-0.522 0-19.853-5.747-39.184-14.106-56.424-25.078h-226.743c-10.449 0-18.808-8.359-18.808-18.808s8.359-18.808 18.808-18.808h180.245c-10.971-11.494-20.376-24.555-28.735-38.139h-466.547v420.571zM64.261 264.62v0h496.849c0 0 0-0.522 0-0.522-0.522-2.090-1.567-4.18-2.090-6.269 0 0 0-0.522 0-0.522-5.224-16.196-8.882-32.914-10.449-50.155h-484.31v57.469zM772.702 0.261c-103.445 0-187.559 84.114-187.559 187.559 0 0 0 0.522 0 0.522s0 0 0 0c0 2.090 0 3.657 0 5.747 0 0 0 0.522 0 0.522 0 1.567 0 3.657 0.522 5.224 0 0 0 0 0 0 1.045 16.718 4.18 32.914 9.927 48.588 0 0.522 0.522 1.567 0.522 2.090s0.522 1.567 0.522 2.090c0.522 1.045 1.045 2.090 1.045 3.135 0 0 0 0 0 0 21.943 54.857 68.441 97.176 126.433 112.327 0.522 0 1.045 0.522 1.567 0.522 1.045 0.522 2.090 0.522 3.135 0.522s2.090 0.522 2.612 0.522c1.045 0 1.567 0.522 2.612 0.522 1.567 0.522 3.657 0.522 5.224 1.045 0.522 0 1.045 0 2.090 0.522 1.567 0 2.612 0.522 4.18 0.522 0.522 0 1.045 0 1.567 0 1.567 0 3.135 0.522 5.224 0.522 0 0 0.522 0 0.522 0 2.090 0 3.657 0.522 5.747 0.522 0.522 0 1.045 0 1.567 0 1.567 0 3.135 0 4.18 0 0.522 0 1.045 0 1.567 0 2.090 0 3.657 0 5.747 0s4.18 0 6.792 0c0.522 0 1.045 0 1.567 0 2.090 0 4.18 0 6.269-0.522 0.522 0 1.045 0 1.567 0 1.567 0 3.135-0.522 5.224-0.522 0.522 0 1.567 0 2.090 0 2.090 0 3.657-0.522 5.747-0.522 1.045 0 2.090-0.522 3.135-0.522s2.090-0.522 3.135-0.522 4.18-0.522 5.747-1.045c0.522 0 1.045-0.522 1.567-0.522 1.567-0.522 2.612-0.522 4.18-1.045 0 0 0.522 0 0.522 0 80.457-20.898 140.016-94.563 140.016-181.29 0.522-102.4-83.592-186.514-186.514-186.514zM772.702 343.51c-86.204 0-156.212-70.008-156.212-156.212s70.008-156.212 156.212-156.212 156.212 70.008 156.212 156.212-70.008 156.212-156.212 156.212zM772.702 69.224c-65.306 0-118.073 53.29-118.073 118.073s53.29 118.073 118.073 118.073 118.073-53.29 118.073-118.073-52.767-118.073-118.073-118.073zM845.845 206.629h-54.335v60.604c0 10.449-8.359 18.808-18.808 18.808s-18.808-8.359-18.808-18.808v-79.935c0-10.449 8.359-18.808 18.808-18.808h73.143c10.449 0 18.808 8.359 18.808 18.808s-8.359 19.331-18.808 19.331zM554.841 735.869c0.522-1.045 1.045-2.090 1.567-3.135s1.567-2.090 2.612-3.135c1.045-1.045 2.090-1.567 3.135-2.612 1.045-0.522 2.090-1.045 3.135-1.567s2.090-1.045 3.657-1.045 2.612-0.522 3.657-0.522 2.612 0 3.657 0.522c1.045 0 2.612 0.522 3.657 1.045s2.090 1.045 3.135 1.567c1.045 0.522 2.090 1.567 3.135 2.612s1.567 2.090 2.612 3.135c0.522 1.045 1.045 2.090 1.567 3.135s1.045 2.090 1.045 3.657c0 1.045 0.522 2.612 0.522 3.657s0 2.612-0.522 3.657c0 1.045-0.522 2.612-1.045 3.657s-1.045 2.090-1.567 3.135c-0.522 1.045-1.567 2.090-2.612 3.135-4.18 4.18-10.971 6.269-17.241 5.224-1.045 0-2.612-0.522-3.657-1.045s-2.090-1.045-3.135-1.567c-1.045-0.522-2.090-1.567-3.135-2.612s-1.567-2.090-2.612-3.135c-0.522-1.045-1.045-2.090-1.567-3.135s-1.045-2.090-1.045-3.657c0-1.045-0.522-2.612-0.522-3.657s0-2.612 0.522-3.657c0-1.567 0.522-2.612 1.045-3.657zM376.163 367.543c-0.522 1.045-1.045 2.090-1.567 3.135s-1.567 2.090-2.612 3.135c-4.18 4.18-10.971 6.269-17.241 5.224-1.045 0-2.612-0.522-3.657-1.045s-2.090-1.045-3.135-1.567c-1.045-0.522-2.090-1.567-3.135-2.090-1.045-1.045-1.567-2.090-2.612-3.135-0.522-1.045-1.045-2.090-1.567-3.135s-1.045-2.090-1.045-3.657c0-1.045-0.522-2.612-0.522-3.657s0-2.612 0.522-3.657c0-1.045 0.522-2.612 1.045-3.657s1.045-2.090 1.567-3.135c0.522-1.045 1.567-2.090 2.612-3.135s2.090-1.567 3.135-2.612c1.045-0.522 2.090-1.045 3.135-1.567s2.612-1.045 3.657-1.045c1.045 0 2.612-0.522 3.657-0.522 5.224 0 9.927 2.090 13.584 5.747 1.045 1.045 1.567 2.090 2.612 3.135 0.522 1.045 1.045 2.090 1.567 3.135s1.045 2.090 1.045 3.657c0 1.045 0.522 2.612 0.522 3.657s0 2.612-0.522 3.657c0 0.522-0.522 2.090-1.045 3.135zM322.873 533.682c10.449-5.224 22.465-8.359 35.004-8.359 22.465 0 42.841 9.404 56.947 24.555l56.947-34.482c-2.090-6.792-2.612-13.584-2.612-20.898 0-43.363 35.527-78.89 78.89-78.89s78.89 35.527 78.89 78.89c0 14.629-4.18 28.735-11.494 40.751l71.576 57.469c12.016-7.314 25.6-10.971 40.229-10.971 43.363 0 78.89 35.527 78.89 78.89s-35.527 78.89-78.89 78.89-78.89-35.527-78.89-78.89c0-14.629 4.18-28.735 11.494-40.751l-71.576-57.469c-12.016 7.314-25.6 10.971-40.229 10.971-22.465 0-42.841-9.404-56.947-24.555l-57.469 33.959c2.090 6.792 2.612 13.584 2.612 20.898 0 43.363-35.527 78.89-78.89 78.89s-78.89-35.527-78.89-78.89c0-16.718 5.224-32.392 14.629-45.453l-54.335-44.931c-10.449 5.224-22.465 8.359-35.527 8.359-43.363 0-78.89-35.527-78.89-78.89s35.527-78.89 78.89-78.89 78.89 35.527 78.89 78.89c0 16.718-5.224 32.392-14.106 44.931l54.857 45.976zM727.249 700.343c22.465 0 40.751-18.286 40.751-40.751s-18.286-40.751-40.751-40.751c-22.465 0-40.751 18.286-40.751 40.751s18.286 40.751 40.751 40.751zM548.049 534.727c22.465 0 40.751-18.286 40.751-40.751s-18.286-40.751-40.751-40.751c-22.465 0-40.751 18.286-40.751 40.751 0 22.988 18.286 40.751 40.751 40.751zM357.878 644.441c22.465 0 40.751-18.286 40.751-40.751s-18.286-40.751-40.751-40.751c-22.465 0-40.751 18.286-40.751 40.751 0 22.988 18.286 40.751 40.751 40.751zM203.755 403.069c-22.465 0-40.751 18.286-40.751 40.751s18.286 40.751 40.751 40.751 40.751-18.286 40.751-40.751c0-22.988-18.286-40.751-40.751-40.751z" />
<glyph unicode="&#xe914;" glyph-name="like" d="M917.42 332.016c13.584 15.151 21.943 35.004 21.943 56.947 0 47.020-38.139 85.159-85.159 85.159h-165.616c16.196 49.633 23.51 115.984 23.51 144.196v28.212c0 62.694-51.2 113.894-113.894 113.894h-28.212c-13.061 0-24.555-8.882-27.69-21.42l-15.673-62.171c-21.943-86.727-90.906-182.857-161.959-200.098-13.584 32.392-44.408 54.857-80.457 54.857h-170.841c-15.673 0-28.212-12.539-28.212-28.212v-512.522c0-15.673 12.539-28.212 28.212-28.212h170.841c33.959 0 63.216 19.853 77.322 48.588l97.698-32.392c31.869-10.449 65.306-16.196 99.265-16.196h238.237c47.020 0 85.159 38.139 85.159 85.159 0 10.971-2.090 21.943-5.747 31.347 36.049 9.927 62.694 42.841 62.694 82.547 0 21.943-8.359 41.796-21.943 56.947 13.584 15.151 21.943 35.004 21.943 56.947s-7.837 41.273-21.42 56.424zM312.947 47.282c0-15.673-12.539-28.212-28.212-28.212h-142.629v455.576h142.106c15.673 0 28.212-12.539 28.212-28.212v-399.151zM796.735 303.804h56.947c15.673 0 28.212-12.539 28.212-28.212s-12.539-28.212-28.212-28.212h-56.947c-15.673 0-28.212-12.539-28.212-28.212s12.539-28.212 28.212-28.212h56.947c15.673 0 28.212-12.539 28.212-28.212s-12.539-28.212-28.212-28.212h-56.947c-15.673 0-28.212-12.539-28.212-28.212s12.539-28.212 28.212-28.212c15.673 0 28.212-12.539 28.212-28.212s-12.539-28.212-28.212-28.212h-238.237c-27.69 0-54.857 4.18-80.98 13.061l-107.624 36.049v352.131c44.408 8.359 88.294 36.571 128 83.069 38.661 45.453 70.008 105.012 83.592 160.392l9.927 40.229h6.269c31.347 0 56.947-25.6 56.947-56.947v-28.212c0-38.139-12.016-111.282-27.167-144.196h-57.992c-15.673 0-28.212-12.539-28.212-28.212s12.539-28.212 28.212-28.212h284.735c15.673 0 28.212-12.539 28.212-28.212s-12.539-28.212-28.212-28.212h-56.947c-15.673 0-28.212-12.539-28.212-28.212-1.045-19.853 12.016-32.392 27.69-32.392zM255.478 104.229c0-15.581-12.631-28.212-28.212-28.212s-28.212 12.631-28.212 28.212c0 15.581 12.631 28.212 28.212 28.212s28.212-12.631 28.212-28.212zM654.106 846.629v59.037c0 15.673-12.539 28.212-28.212 28.212s-28.212-12.539-28.212-28.212v-59.037c0-15.673 12.539-28.212 28.212-28.212 15.673-0.522 28.212 12.539 28.212 28.212zM505.208 768.261c10.971 10.971 10.971 29.257 0 40.229l-40.229 40.229c-10.971 10.971-29.257 10.971-40.229 0s-10.971-29.257 0-40.229l40.229-40.229c10.971-11.494 29.257-11.494 40.229 0zM786.808 768.261l40.229 40.229c10.971 10.971 10.971 29.257 0 40.229s-29.257 10.971-40.229 0l-40.229-40.229c-10.971-10.971-10.971-29.257 0-40.229 10.971-11.494 29.257-11.494 40.229 0z" />
<glyph unicode="&#xe915;" glyph-name="linkedin" d="M997.878 342.988v-359.445h-208.457v335.412c0 84.114-30.302 141.584-105.535 141.584-57.469 0-91.951-38.661-107.102-76.278-5.224-13.584-6.792-31.869-6.792-50.678v-350.041h-207.935c0 0 2.612 567.902 0 626.416h208.457v-88.816c-0.522-0.522-1.045-1.567-1.567-2.090h1.567v2.090c27.69 42.841 77.322 103.445 187.559 103.445 136.882 0.522 239.804-89.339 239.804-281.6v0zM144.196 912.457c-71.576 0-118.073-47.020-118.073-108.669 0-60.082 45.453-108.147 114.939-108.147h1.567c72.62 0 118.073 48.065 118.073 108.147-1.567 61.649-45.453 108.669-116.506 108.669v0zM38.661-16.457h208.457v626.939h-208.457v-626.939z" />
<glyph unicode="&#xe916;" glyph-name="magnifier" d="M976.457 89.6l-200.098 200.098c48.065 69.486 72.62 147.331 72.62 233.012 0 55.902-10.971 108.669-32.392 159.869-22.465 50.678-51.2 94.563-88.294 131.135-36.571 36.571-80.457 65.829-131.135 87.771s-103.967 32.392-159.869 32.392-108.669-10.971-159.869-32.392c-50.678-21.42-94.563-50.678-131.135-87.771-36.571-36.571-65.829-80.457-87.771-131.135-21.42-50.678-32.392-103.967-32.392-159.869s10.971-108.669 32.392-159.869c21.42-50.678 50.678-94.563 87.771-131.657 36.571-36.571 80.457-65.829 131.135-87.771 50.678-21.42 103.967-32.392 159.869-32.392 85.682 0 163.527 24.033 233.012 72.62l200.098-199.576c14.106-14.629 31.347-21.943 52.767-21.943 20.898 0 38.139 7.314 52.767 21.943s21.943 32.392 21.943 52.767c0 20.898-7.314 38.139-21.42 52.767v0zM622.237 337.763c-51.2-51.2-112.849-76.8-184.947-76.8s-133.747 25.6-184.947 76.8c-51.2 51.2-76.8 112.849-76.8 184.947s25.6 133.747 76.8 184.947c51.2 51.2 112.849 76.8 184.947 76.8s133.747-25.6 184.947-76.8c51.2-51.2 76.8-112.849 76.8-184.947s-25.6-133.747-76.8-184.947v0z" />
<glyph unicode="&#xe917;" glyph-name="medal" d="M676.571 243.722h-2.090l-40.751 1.567-30.302-27.69c-9.404-8.359-21.943-13.061-34.482-13.061-6.792 0-13.061 1.045-19.331 3.657l-38.139 15.673-38.139-15.673c-6.269-2.612-12.539-3.657-19.331-3.657-13.061 0-25.078 4.702-34.482 13.061l-30.302 27.69-40.751-1.567h-2.090c-19.331 0-36.571 10.449-45.453 27.69l-19.331 36.049-1.567 0.522v-319.739c0-19.331 20.376-31.869 37.616-22.988l182.335 91.429c7.314 3.657 15.673 3.657 22.988 0l182.335-91.951c17.241-8.882 37.616 3.657 37.616 22.988v319.739l-1.567-0.522-19.331-36.049c-8.882-16.718-26.122-27.167-45.453-27.167v0zM863.608 567.641c5.224 8.359 5.224 18.808 0 27.69l-21.943 34.482c-3.657 5.747-4.702 12.539-3.657 19.331l8.882 40.229c2.090 9.927-1.567 19.853-9.404 25.6l-32.392 25.078c-5.224 4.18-8.882 9.927-9.927 16.718l-5.747 40.751c-1.567 9.927-8.359 17.763-17.763 20.898l-38.661 12.539c-6.269 2.090-12.016 6.792-14.629 12.539l-19.331 36.049c-4.18 8.359-13.061 13.584-22.988 13.584h-1.045l-41.796-1.567c-6.269 0-12.539 2.612-17.241 6.792l-30.302 27.69c-4.702 4.18-10.971 6.792-17.241 6.792-3.135 0-6.792-0.522-9.927-2.090l-38.139-15.673c-2.090-1.045-5.224-2.090-8.882-2.090s-6.792 0.522-9.927 2.090l-38.139 15.673c-3.135 1.045-6.269 2.090-9.927 2.090-6.269 0-12.539-2.090-17.241-6.792l-30.302-27.69c-4.702-4.18-10.971-6.792-17.241-6.792h-1.045l-41.796 1.567c-9.404 0-18.286-5.224-22.988-13.584l-19.331-36.049c-3.135-5.747-8.359-10.449-14.629-12.539l-38.139-12.539c-9.404-3.135-16.196-11.494-17.763-20.898l-5.747-40.751c-1.045-6.792-4.18-12.539-9.927-16.718l-32.392-25.6c-7.837-6.269-11.494-16.196-9.404-25.6l8.882-40.229c1.567-6.792 0-13.584-3.657-19.331l-21.943-34.482c-5.224-8.359-5.224-18.808 0-27.69l21.943-34.482c3.657-5.747 4.702-12.539 3.657-19.331l-8.882-40.229c-2.090-9.927 1.567-19.853 9.404-25.6l32.392-25.078c5.224-4.18 8.882-9.927 9.927-16.718l5.747-40.751c1.567-9.927 8.359-17.763 17.763-20.898l29.78-9.404 9.404-3.135c6.269-2.090 12.016-6.792 14.629-12.539l19.331-36.049c4.18-8.359 13.061-13.584 22.988-13.584h1.045l41.796 1.567c6.269 0 12.539-2.612 17.241-6.792l30.302-27.69c4.702-4.18 10.971-6.792 17.241-6.792 3.135 0 6.792 0.522 9.927 2.090l38.139 15.673c3.135 1.045 6.269 2.090 9.927 2.090 3.135 0 6.792-0.522 9.927-2.090l38.139-15.673c3.135-1.045 6.269-2.090 9.927-2.090 6.269 0 12.539 2.090 17.241 6.792l30.302 27.69c4.702 4.18 10.971 6.792 17.241 6.792h1.045l41.796-1.567c9.404 0 18.286 5.224 22.988 13.584l19.331 36.049c3.135 5.747 8.359 10.449 14.629 12.539l9.404 3.135 29.78 9.404c9.404 3.135 16.196 11.494 17.763 20.898l5.747 40.751c1.045 6.792 4.18 12.539 9.927 16.718l32.392 25.078c7.837 6.269 11.494 16.196 9.404 25.6l-8.882 40.229c-1.567 6.792 0 13.584 3.657 19.331l19.331 35.004zM761.208 475.69c-5.224-12.539-11.494-24.033-18.286-35.527-10.971-18.286-24.555-35.527-39.706-50.678-25.078-25.078-53.812-44.408-86.204-57.992-33.437-14.106-68.963-21.42-105.535-21.42s-72.098 7.314-105.535 21.42c-32.392 13.584-61.127 32.914-86.204 57.992-15.151 15.151-28.735 32.392-39.706 50.678-6.792 11.494-13.061 22.988-18.286 35.527-14.106 33.437-21.42 68.963-21.42 105.535s7.314 72.098 21.42 105.535c13.584 32.392 32.914 61.127 57.992 86.204s53.812 44.408 86.204 57.992c33.437 14.106 68.963 21.42 105.535 21.42s72.098-7.314 105.535-21.42c32.392-13.584 61.127-32.914 86.204-57.992s44.408-53.812 57.992-86.204c14.106-33.437 21.42-68.963 21.42-105.535s-7.314-72.098-21.42-105.535v0zM511.478 821.551c-132.702 0-239.804-107.624-239.804-239.804 0-21.943 3.135-43.363 8.359-63.739 27.69-101.878 121.208-176.588 231.445-176.588s203.755 74.71 231.445 176.588c5.747 20.376 8.359 41.796 8.359 63.739 0 132.18-107.102 239.804-239.804 239.804v0zM618.057 469.943c4.702-21.943-18.808-38.661-38.139-27.69l-68.963 39.184-68.963-39.184c-19.331-10.971-42.841 6.269-38.139 27.69l16.718 77.845-59.559 53.812c-16.196 14.629-7.837 42.318 14.106 44.931l78.367 9.404 33.959 73.143c9.404 19.853 37.616 19.853 47.020 0l33.959-73.143 78.367-9.404c21.943-2.612 30.302-29.78 14.106-44.931l-5.747-5.224-53.812-48.588 16.718-77.845z" />
<glyph unicode="&#xe918;" glyph-name="members" d="M887.641 650.71c12.539 15.151 19.853 34.482 19.853 55.902v17.241c0 48.588-39.706 88.294-88.294 88.294s-88.294-39.706-88.294-88.294v-17.241c0-20.898 7.314-40.751 19.853-55.902-15.151-4.18-29.257-10.449-42.841-19.331v13.584c0 57.469-46.498 103.967-103.967 103.967h-12.016c14.629 17.763 23.51 40.751 23.51 65.829v15.151c0.522 57.469-45.976 103.967-103.445 103.967s-103.445-46.498-103.445-103.445v-15.151c0-25.078 8.882-47.543 23.51-65.829h-12.016c-57.469 0-103.967-46.498-103.967-103.967v-14.106c-13.061 8.882-27.69 15.673-43.363 19.853 12.539 15.151 19.853 34.482 19.853 55.902v17.241c0 48.588-39.706 88.294-88.294 88.294s-88.294-39.706-88.294-88.294v-17.241c0-20.898 7.314-40.229 19.853-55.902-63.216-17.763-109.714-75.755-109.714-144.718v-155.167c0-32.914 26.645-60.082 60.082-60.082h15.673v-310.335c0-10.449 8.359-18.808 18.808-18.808h83.592c0 0 0 0 0 0s0 0 0 0h83.592c10.449 0 18.808 8.359 18.808 18.808v310.335h16.196c32.914 0 59.559 26.645 60.082 59.559 6.269-2.090 12.539-4.18 19.331-5.224v-364.669c0-10.449 8.359-18.808 18.808-18.808h182.335c10.449 0 18.808 8.359 18.808 18.808v183.902c0 10.449-8.359 18.808-18.808 18.808s-18.808-8.359-18.808-18.808v-165.094h-53.29v320.261c0 10.449-8.359 18.808-18.808 18.808s-18.808-8.359-18.808-18.808v-320.261h-53.812v403.331h144.196v-91.429c0-10.449 8.359-18.808 18.808-18.808s18.808 8.359 18.808 18.808v33.437c6.269 1.045 12.539 2.612 18.808 5.224 0.522-32.914 27.167-59.559 60.082-59.559h16.196v-310.335c0-10.449 8.359-18.808 18.808-18.808h83.592c0 0 0 0 0 0s0 0 0 0h83.592c10.449 0 18.808 8.359 18.808 18.808v310.857h15.673c32.914 0 60.082 26.645 60.082 60.082v155.167c0.522 68.963-45.976 126.955-109.714 144.196zM769.045 723.853c0 27.69 22.465 50.155 50.155 50.155s50.155-22.465 50.155-50.155v-17.241c0-27.69-22.465-50.155-50.155-50.155s-50.155 22.465-50.155 50.155v17.241zM446.694 830.433c0 36.049 29.257 65.829 65.829 65.829s65.829-29.257 65.829-65.829v-15.151c0-36.049-29.257-65.829-65.829-65.829s-65.829 29.257-65.829 65.829v15.151zM154.122 723.853c0 27.69 22.465 50.155 50.155 50.155s50.155-22.465 50.155-50.155v-17.241c0-27.69-22.465-50.155-50.155-50.155s-50.155 22.465-50.155 50.155v17.241zM223.608 0.261v292.049c0 10.449-8.359 18.808-18.808 18.808s-18.808-8.359-18.808-18.808v-19.853c0-1.045 0-2.090 0-2.612v-269.584h-45.453v366.237h129.045v-366.237h-45.976zM322.873 329.404h-16.196v100.833c0 10.449-8.359 18.808-18.808 18.808s-18.808-8.359-18.808-18.808v-26.122h-129.045v86.727c0 10.449-8.359 18.808-18.808 18.808s-18.808-8.359-18.808-18.808v-161.437h-15.673c-12.016 0-21.943 9.927-21.943 21.943v155.167c0 61.649 50.155 111.804 111.804 111.804h57.469c31.347 0 61.649-13.584 83.069-36.571 0 0 0 0 0 0v-133.747c0-27.69 10.971-53.29 28.735-72.098v-25.078c-1.045-12.016-10.971-21.42-22.988-21.42zM603.429 664.294c-10.449 0-18.808-8.359-18.808-18.808v-204.278h-144.718v204.278c0 10.449-8.359 18.808-18.808 18.808s-18.808-8.359-18.808-18.808v-260.702c-27.69 7.837-48.065 33.437-48.065 63.216v197.486c0 36.571 29.78 65.829 65.829 65.829h72.62v-51.722c0-10.449 8.359-18.808 18.808-18.808s18.808 8.359 18.808 18.808v51.722h74.188c36.571 0 65.829-29.78 65.829-65.829v-197.486c0-30.302-20.376-55.902-48.065-63.216v260.702c0 10.449-8.359 18.808-18.808 18.808zM838.531 0.261v269.584c0 1.045 0 2.090 0 2.612v19.853c0 10.449-8.359 18.808-18.808 18.808s-18.808-8.359-18.808-18.808v-292.049h-45.453v366.237h129.045v-366.237h-45.976zM959.739 351.347c0-12.016-9.927-21.943-21.943-21.943h-15.673v161.437c0 10.449-8.359 18.808-18.808 18.808s-18.808-8.359-18.808-18.808v-86.204h-129.045v26.122c0 10.449-8.359 18.808-18.808 18.808s-18.808-8.359-18.808-18.808v-100.833h-16.196c-12.016 0-21.943 9.927-21.943 21.943v24.555c18.286 18.808 29.257 44.408 29.257 72.098v133.747c20.898 22.988 51.2 36.049 82.547 36.049h57.469c61.649 0 111.804-50.155 111.804-111.804l-1.045-155.167zM603.429 258.873c-5.224 0-9.927-2.090-13.584-5.747s-5.747-8.359-5.747-13.584 2.090-9.927 5.747-13.584c3.657-3.657 8.359-5.747 13.584-5.747s9.927 2.090 13.584 5.747c3.657 3.657 5.747 8.359 5.747 13.584s-2.090 9.927-5.747 13.584c-3.657 3.657-8.882 5.747-13.584 5.747zM511.478 607.347c-5.224 0-9.927-2.090-13.584-5.747s-5.747-8.359-5.747-13.584 2.090-9.927 5.747-13.584c3.657-3.657 8.359-5.747 13.584-5.747s9.927 2.090 13.584 5.747c3.657 3.657 5.747 8.359 5.747 13.584s-2.090 9.927-5.747 13.584c-3.657 3.657-8.359 5.747-13.584 5.747z" />
<glyph unicode="&#xe919;" glyph-name="members-heads" d="M26.122 390.008c7.314 16.196 13.061 33.437 22.988 48.065 15.151 21.943 38.139 33.437 64.261 36.571 4.702 0.522 10.971-3.135 15.673-5.747 35.004-21.42 72.62-26.645 111.804-15.151 9.404 2.612 19.853 6.269 27.69 12.016 13.584 10.449 27.69 10.449 42.841 5.747 41.796-13.061 71.053-50.678 72.62-94.041 0.522-8.359 0-16.718 0-25.6 0-16.196-3.135-20.376-18.286-25.6-31.347-10.971-64.261-16.196-97.176-18.808-60.082-5.224-119.641-3.657-179.2 6.269-16.718 3.135-33.437 8.359-49.633 13.584-5.224 1.567-8.882 6.792-13.584 10.449 0 17.241 0 34.482 0 52.245zM997.878 337.241c-5.747-4.18-11.494-9.927-17.763-12.016-40.751-14.629-83.592-18.286-126.955-20.376-49.11-2.090-98.22 0.522-146.808 8.359-17.763 3.135-35.004 8.359-51.722 14.106-9.927 3.135-16.196 9.927-15.151 21.943 1.567 19.331-1.567 39.184 5.747 57.992 15.673 38.661 43.886 60.604 84.637 66.873 6.792 1.045 14.629-4.18 21.42-7.837 44.931-24.555 91.429-27.167 135.314-1.567 21.943 12.539 39.706 8.882 58.514-1.567 26.645-14.629 43.363-37.094 50.155-66.873 0.522-2.090 1.567-4.18 2.090-6.792 0.522-17.241 0.522-34.482 0.522-52.245zM509.388 119.902c-69.486 2.612-138.449 5.224-206.367 20.376-22.988 5.224-45.453 12.539-67.918 19.853-16.196 5.224-20.898 12.016-20.376 28.735 1.045 30.824-0.522 62.171 4.702 91.951 7.837 44.931 34.482 79.412 72.62 104.49 18.808 12.539 39.706 20.376 61.649 24.555 8.882 1.567 16.196 1.045 24.033-4.18 38.139-26.645 80.98-40.229 127.478-41.273 44.931-1.045 88.294 8.882 125.388 34.482 21.42 15.151 40.229 11.494 61.127 4.702 65.829-21.943 112.327-86.204 113.371-155.69 0-19.853 0-39.184 0-59.037 0-16.196-4.702-22.465-19.331-28.212-42.318-16.718-86.204-25.6-131.135-30.302-48.588-4.702-96.653-6.792-145.241-10.449zM685.453 600.033c-0.522-96.653-79.412-175.543-176.065-175.543-96.653 0.522-175.020 79.412-175.020 176.065s78.89 175.543 176.065 175.543c96.653 0 175.543-79.412 175.020-176.065zM422.139 537.861c7.837-30.824 48.065-50.155 89.861-49.633 47.543 0.522 83.069 24.555 87.249 49.633-59.037 0-118.073 0-177.11 0zM305.11 581.224c-3.135-60.604-55.902-101.355-109.714-97.176-61.649 4.702-98.743 54.335-97.176 106.057 2.612 68.441 60.082 105.012 111.282 100.833 57.992-5.224 100.833-54.857 95.608-109.714zM254.955 553.535c-36.049 0-71.053 0-106.58 0 5.747-17.241 26.122-28.735 51.722-29.257 25.078-0.522 51.2 11.494 54.857 29.257zM821.29 690.939c56.947-1.045 103.967-42.841 103.967-103.445 0-59.559-44.408-102.922-103.445-103.967-56.947-1.045-103.967 47.020-103.967 103.967 0.522 56.424 47.020 103.445 103.445 103.445zM875.624 553.535c-36.049 0-71.053 0-106.58 0 3.135-16.718 28.735-29.78 53.812-29.257 25.078 0 46.498 11.494 52.767 29.257z" />
<glyph unicode="&#xe91a;" glyph-name="book" d="M979.069 362.318c-12.016 6.792-27.167 5.224-41.796-4.18l-269.061-169.273c-7.314-4.702-9.927-14.629-5.224-21.943s14.629-9.927 21.943-5.224l269.061 169.273c5.747 3.657 8.882 3.135 9.404 3.135s2.090-2.612 2.090-9.404c0-18.286-13.584-42.318-28.735-51.722l-260.702-164.049c-14.106-8.882-26.645-10.971-35.004-6.792-8.359 4.702-13.061 16.718-13.061 32.914 0 41.273 29.78 95.086 64.784 117.551l296.751 187.037c4.702 3.135 7.314 7.837 7.314 13.584s-2.612 10.449-7.314 13.584l-569.469 358.922c-5.224 3.135-12.016 3.135-17.241 0l-300.408-189.127c-42.841-27.167-76.278-87.771-76.278-137.927v-8.882c0-50.678 33.437-111.282 76.278-137.927l447.216-281.6c7.314-4.702 17.241-2.612 21.943 5.224 4.702 7.314 2.612 17.241-5.224 21.943l-447.216 281.6c-32.914 20.898-61.127 71.576-61.127 110.759v8.359c0 39.184 28.212 89.861 61.127 110.759l292.049 183.902 540.735-339.592-275.331-173.453c-44.931-28.212-79.935-91.429-79.935-144.718 0-28.735 10.449-50.678 29.257-61.127 7.837-4.18 16.196-6.269 25.078-6.269 13.061 0 27.69 4.702 42.318 13.584l260.702 164.049c24.555 15.151 43.886 50.155 43.886 78.89 0 17.763-6.792 31.347-18.808 38.139v0zM781.584 437.029c5.224 0 10.449 2.612 13.584 7.314 4.702 7.314 2.612 17.241-5.224 21.943l-369.894 233.535c-7.314 4.702-17.241 2.612-21.943-5.224-4.702-7.314-2.612-17.241 5.224-21.943l369.894-233.012c2.090-2.090 5.224-2.612 8.359-2.612v0zM717.322 394.188c5.224 0 10.449 2.612 13.584 7.314 4.702 7.314 2.612 17.241-5.224 21.943l-156.212 98.743c-7.314 4.702-17.241 2.612-21.943-5.224-4.702-7.314-2.612-17.241 5.224-21.943l156.212-98.22c2.612-1.567 5.747-2.612 8.359-2.612v0zM504.163 479.869c-7.314 4.702-17.241 2.612-21.943-5.224-4.702-7.314-2.612-17.241 5.224-21.943l157.78-98.22c2.612-1.567 5.747-2.612 8.359-2.612 5.224 0 10.449 2.612 13.584 7.314 4.702 7.314 2.612 17.241-5.224 21.943l-157.78 98.743zM336.457 657.502l-133.224-83.592c-4.702-3.135-7.314-7.837-7.314-13.584s3.135-10.449 7.314-13.584l158.824-98.743c2.612-1.567 5.747-2.612 8.359-2.612 3.135 0 6.269 1.045 8.882 2.612l35.527 22.988c7.314 4.702 9.404 14.629 4.702 21.943s-14.629 9.404-21.943 4.702l-26.645-17.241-129.045 79.935 102.922 64.784 126.433-79.412-14.629-9.404c-7.314-4.702-9.404-14.629-4.702-21.943s14.629-9.404 21.943-4.702l36.049 22.988c4.702 3.135 7.314 7.837 7.314 13.584 0 5.224-2.612 10.449-7.314 13.584l-156.735 97.698c-5.224 3.657-11.494 3.657-16.718 0v0zM602.906 316.865c4.702 7.314 2.612 17.241-5.224 21.943l-158.824 98.743c-7.314 4.702-17.241 2.612-21.943-5.224-4.702-7.314-2.612-17.241 5.224-21.943l158.824-98.743c2.612-1.567 5.747-2.612 8.359-2.612 5.224 0.522 10.449 3.135 13.584 7.837v0zM140.539 522.188c-4.702-7.314-2.612-17.241 5.224-21.943l391.837-243.461c2.612-1.567 5.747-2.612 8.359-2.612 5.224 0 10.449 2.612 13.584 7.314 4.702 7.314 2.612 17.241-5.224 21.943l-391.837 243.461c-7.314 4.702-17.241 2.612-21.943-4.702v0z" />
<glyph unicode="&#xe91b;" glyph-name="members-alt" d="M354.22 647.053h286.824c19.853-33.959 56.424-56.947 98.743-56.947 62.694 0 113.894 51.2 113.894 113.894s-51.2 113.894-113.894 113.894c-62.694 0-113.894-51.2-113.894-113.894h-256c0 62.694-51.2 113.894-113.894 113.894s-113.894-50.678-113.894-113.894 50.678-113.894 113.894-113.894c41.796 0 78.367 22.988 98.22 56.947zM739.788 760.947c31.347 0 56.947-25.6 56.947-56.947s-25.6-56.947-56.947-56.947-56.947 25.6-56.947 56.947 25.6 56.947 56.947 56.947zM256 647.053c-31.347 0-56.947 25.6-56.947 56.947s25.078 56.947 56.947 56.947 56.947-25.078 56.947-56.947-25.6-56.947-56.947-56.947zM625.894 817.894c0 62.694-50.678 115.984-113.894 115.984s-113.894-53.29-113.894-115.984c0-62.694 51.2-113.894 113.894-113.894s113.894 51.2 113.894 113.894zM512 760.947c-31.347 0-56.947 25.6-56.947 56.947 0 31.869 26.122 59.037 56.947 59.037s56.947-27.167 56.947-59.037c0-31.347-25.6-56.947-56.947-56.947zM853.682 590.106h-170.841c-47.020 0-85.159-38.139-85.159-85.159 0-23.51 0-469.159 0-485.878h-56.947v258.090c0 15.673-12.539 28.212-28.212 28.212s-28.212-12.539-28.212-28.212v-258.090h-57.469c0 17.241 0 462.89 0 485.878 0 47.020-38.139 85.159-85.159 85.159h-171.363c-78.89 0-144.196-63.216-144.196-142.106v-113.894c0-47.020 40.229-85.159 87.249-85.159 9.927 0 19.331 1.567 28.212 4.702v-262.792c0-15.673 12.539-28.212 28.212-28.212 13.061 0 670.824 0 683.363 0 15.673 0 28.212 12.539 28.212 28.212v262.792c8.882-3.135 18.286-4.702 28.212-4.702 47.020 0 87.249 38.139 87.249 85.159v113.894c1.045 78.89-64.261 142.106-143.151 142.106zM199.053 334.106v113.894c0 15.673-12.539 28.212-28.212 28.212s-28.212-12.539-28.212-28.212v-113.894c0-15.673-12.539-28.212-28.212-28.212-16.196 0-30.302 13.061-30.302 28.212v113.894c0 46.498 40.229 85.159 87.249 85.159h170.841c15.673 0 28.212-12.539 28.212-28.212 0-23.51 0-469.159 0-485.878h-57.469v201.143c0 15.673-12.539 28.212-28.212 28.212s-28.212-12.539-28.212-28.212v-201.143h-57.469v315.037zM940.931 334.106c0-15.151-14.106-28.212-30.302-28.212-15.673 0-28.212 12.539-28.212 28.212v113.894c0 15.673-12.539 28.212-28.212 28.212s-28.212-12.539-28.212-28.212v-428.931h-57.992v201.143c0 15.673-12.539 28.212-28.212 28.212s-28.212-12.539-28.212-28.212v-201.143h-56.947c0 17.241 0 462.89 0 485.878 0 15.673 12.539 28.212 28.212 28.212h170.841c47.543 0 87.249-39.184 87.249-85.159v-113.894z" />
<glyph unicode="&#xe91c;" glyph-name="chart" d="M804.571 609.437c-57.469-0.522-104.49 45.453-105.535 102.922s45.453 104.49 102.922 105.535c57.469 0.522 104.49-45.453 105.535-102.922 0.522-57.992-45.453-105.012-102.922-105.535zM803.004 764.082c-28.212-0.522-50.155-22.988-50.155-51.2s22.988-50.155 51.2-50.155c28.212 0.522 50.155 22.988 50.155 51.2-0.522 28.212-23.51 50.678-51.2 50.155zM269.584 90.645c-57.469-0.522-104.49 45.453-105.535 102.922s45.453 104.49 102.922 105.535 104.49-45.453 105.535-102.922c0.522-57.992-45.453-105.012-102.922-105.535zM267.494 245.29c-28.212-0.522-50.155-22.988-50.155-51.2 0.522-28.212 22.988-50.155 51.2-50.155s50.155 22.988 50.155 51.2c0 28.212-22.988 50.678-51.2 50.155zM591.935 230.661c-57.469-0.522-104.49 45.453-105.535 102.922-0.522 57.469 45.453 104.49 102.922 105.535s104.49-45.453 105.535-102.922-45.453-105.012-102.922-105.535zM590.367 385.306c-28.212-0.522-50.155-22.988-50.155-51.2 0.522-28.212 22.988-50.155 51.2-50.155 28.212 0.522 50.155 22.988 50.155 51.2-0.522 28.212-23.51 50.678-51.2 50.155zM618.552 399.776l148.963 275.206 36.755-19.895-148.963-275.206-36.755 19.895zM303.543 236.408l220.473 97.698 16.718-38.139-220.473-97.698zM54.49-2.663l153.636 157.397 29.909-29.194-153.636-157.397-29.909 29.194zM30.083 3.863l963.3 11.657 0.506-41.792-963.3-11.657-0.506 41.792zM940.968 933.591l41.792 0.506 11.367-939.269-41.792-0.506-11.367 939.269zM968.098 813.192c1.045 6.269 3.657 12.016 6.269 17.241 0 2.090 0 4.702 0 6.792 0 4.18 2.612 7.837 5.747 9.404 0 1.045-0.522 2.090-0.522 3.135l-135.314-60.082 16.718-38.139 110.759 49.11c-2.612 3.135-4.702 7.314-3.657 12.539z" />
<glyph unicode="&#xe91d;" glyph-name="angle-down-bordered" d="M739.788 512.261l-208.98-208.98c-10.449-10.449-27.167-10.449-37.616 0v0c-10.449 10.449-10.449 27.167 0 37.616l208.98 208.98c10.449 10.449 27.167 10.449 37.616 0v0c10.449-10.449 10.449-27.167 0-37.616zM321.306 549.878l208.98-208.98c10.449-10.449 10.449-27.167 0-37.616v0c-10.449-10.449-27.167-10.449-37.616 0l-208.98 208.98c-10.449 10.449-10.449 27.167 0 37.616v0c10.449 9.927 27.69 9.927 37.616 0zM512-37.878c-268.016 0-485.878 217.861-485.878 485.878s217.861 485.878 485.878 485.878c268.016 0 485.878-217.861 485.878-485.878s-217.861-485.878-485.878-485.878zM512 851.853c-222.563 0-403.853-181.29-403.853-403.853s181.29-403.853 403.853-403.853 403.853 181.29 403.853 403.853-181.29 403.853-403.853 403.853z" />
<glyph unicode="&#xe91e;" d="M997.878 448c0-268.343-217.535-485.878-485.878-485.878s-485.878 217.535-485.878 485.878c0 268.343 217.535 485.878 485.878 485.878s485.878-217.535 485.878-485.878z" />
<glyph unicode="&#xe91f;" d="M713.143 412.473h-174.498v-176.065h-54.335v176.065h-173.453v50.678h173.453v175.543h54.335v-176.065h174.498v-50.155z" />
<glyph unicode="&#xe920;" glyph-name="paper-airplane" d="M700.082 90.122c-3.135 0-5.747 1.567-7.837 3.657l-262.269 309.29-406.988 138.449c-4.702 1.567-7.314 5.747-7.314 10.449s3.657 8.359 7.837 9.927l971.755 243.984c3.657 1.045 7.837-0.522 10.449-3.135 2.612-3.135 3.135-7.314 1.567-10.971l-297.796-694.857c-1.567-3.135-4.702-5.747-7.837-6.269-0.522-0.522-1.045-0.522-1.567-0.522zM63.216 549.878l375.641-128c1.567-0.522 3.135-1.567 4.702-3.135l253.388-298.318 282.645 659.853-916.376-230.4zM365.192 172.669c-1.567 0-3.135 0.522-4.702 1.045-3.657 1.567-5.747 5.224-5.747 9.404v252.865c0 5.747 4.702 10.449 10.449 10.449s10.449-4.702 10.449-10.449v-233.012l149.943 104.49c4.702 3.135 11.494 2.090 14.629-2.612s2.090-11.494-2.612-14.629l-166.661-115.461c-1.567-1.567-3.657-2.090-5.747-2.090zM435.722 401.502c-3.135 0-6.792 1.567-8.882 4.702-3.135 4.702-2.090 11.494 2.612 14.629l156.735 106.58c4.702 3.135 11.494 2.090 14.629-2.612s2.090-11.494-2.612-14.629l-156.735-106.58c-1.567-1.567-3.657-2.090-5.747-2.090z" />
<glyph unicode="&#xe921;" glyph-name="paper-airplane-alt" d="M700.082 90.122c-3.135 0-5.747 1.567-7.837 3.657l-262.269 309.29-406.988 138.449c-4.702 1.567-7.314 5.747-7.314 10.449s3.657 8.359 7.837 9.927l971.755 243.984c3.657 1.045 7.837-0.522 10.449-3.135 2.612-3.135 3.135-7.314 1.567-10.971l-297.796-694.857c-1.567-3.135-4.702-5.747-7.837-6.269-0.522-0.522-1.045-0.522-1.567-0.522zM63.216 549.878l375.641-128c1.567-0.522 3.135-1.567 4.702-3.135l253.388-298.318 282.645 659.853-916.376-230.4zM365.192 172.669c-1.567 0-3.135 0.522-4.702 1.045-3.657 1.567-5.747 5.224-5.747 9.404v252.865c0 5.747 4.702 10.449 10.449 10.449s10.449-4.702 10.449-10.449v-233.012l149.943 104.49c4.702 3.135 11.494 2.090 14.629-2.612s2.090-11.494-2.612-14.629l-166.661-115.461c-1.567-1.567-3.657-2.090-5.747-2.090zM435.722 401.502c-3.135 0-6.792 1.567-8.882 4.702-3.135 4.702-2.090 11.494 2.612 14.629l156.735 106.58c4.702 3.135 11.494 2.090 14.629-2.612s2.090-11.494-2.612-14.629l-156.735-106.58c-1.567-1.567-3.657-2.090-5.747-2.090zM650.449 561.371c-3.657 0-6.792 1.567-8.882 4.702-3.135 4.702-1.567 11.494 3.135 14.629l347.429 223.608c4.702 3.135 11.494 1.567 14.629-3.135s1.567-11.494-3.135-14.629l-347.429-223.608c-2.090-1.045-3.657-1.567-5.747-1.567z" />
<glyph unicode="&#xe922;" glyph-name="pin" d="M972.8 546.743c33.437 33.437 33.437 87.249 0 120.686l-241.371 241.371c-33.437 33.437-87.249 33.437-120.686 0s-33.437-87.249 0-120.686v0l16.718-16.718-212.114-157.78c-97.698 53.29-222.041 38.661-304.588-43.363-5.224-5.224-8.359-12.539-8.359-20.376 0-7.314 3.135-14.629 8.359-20.376l181.29-180.767-141.061-141.061c-45.453-45.453-83.069-97.698-111.804-155.167v0l-6.792-14.106c-10.449-20.376-6.269-44.408 9.927-60.604s40.229-19.853 60.604-9.927c63.216 31.869 114.939 64.784 169.273 119.118l141.061 141.061 181.29-181.29c5.747-5.747 13.061-8.359 20.376-8.359s14.629 2.612 20.376 8.359c48.588 48.588 75.233 112.849 75.233 181.29 0 43.886-10.971 85.682-31.347 123.298l157.257 212.114 16.718-16.718c32.392-33.437 86.204-33.437 119.641 0zM332.278 308.506c14.629-14.629 25.6-25.6 40.229-40.229l-141.061-141.061c-41.273-41.273-88.294-75.233-140.539-101.355l-2.090-1.045 1.045 2.090c26.122 52.245 60.082 99.265 101.355 140.539l141.061 141.061zM433.11 530.024l160.914-160.914c37.616-37.616 58.514-87.771 58.514-141.061 0-43.363-14.106-85.159-39.706-119.118l-439.902 439.902c77.845 57.992 189.127 51.722 260.18-18.808zM463.935 579.135l204.278 151.51 126.433-126.433-151.51-204.278c-6.792 7.314-171.886 172.408-179.2 179.2zM932.571 586.971c-10.971-10.971-29.257-10.971-40.229 0l-241.371 241.371c-10.971 10.971-10.971 29.257 0 40.229s29.257 10.971 40.229 0l241.371-241.371c10.971-10.971 10.971-29.257 0-40.229z" />
<glyph unicode="&#xe923;" glyph-name="cog" d="M947.2 551.445l-67.918 11.494c-7.314 22.988-16.196 44.931-27.167 65.829l40.229 55.902c17.241 24.033 14.629 56.424-6.269 77.322l-60.604 60.604c-11.494 11.494-26.122 17.763-42.318 17.763-12.539 0-24.555-3.657-34.482-10.971l-56.424-40.229c-21.943 11.494-44.931 20.898-68.441 28.212l-11.494 67.396c-4.702 28.735-29.78 50.155-59.037 50.155h-85.682c-29.257 0-54.335-20.898-59.037-50.155l-11.494-69.486c-22.465-7.314-44.931-16.196-65.829-27.69l-55.902 40.229c-9.927 7.314-22.465 10.971-35.004 10.971-16.196 0-31.347-6.269-42.318-17.763l-60.604-60.082c-20.898-20.898-23.51-53.29-6.269-77.322l40.751-56.947c-10.971-21.42-19.853-43.363-27.167-66.351l-67.396-11.494c-28.735-4.702-50.155-29.257-50.155-59.037v-85.159c0-29.257 20.898-54.335 50.155-59.037l68.963-11.494c7.314-22.465 16.196-44.931 27.69-65.829l-39.706-55.38c-17.241-24.033-14.629-56.424 6.269-77.322l60.604-60.604c11.494-11.494 26.122-17.763 42.318-17.763 12.539 0 24.555 3.657 34.482 10.971l56.947 40.751c20.376-10.971 41.796-19.331 64.261-26.122l11.494-67.918c4.702-28.735 29.78-50.155 59.037-50.155h85.682c29.257 0 54.335 20.898 59.037 50.155l11.494 67.918c22.988 7.314 44.931 16.196 65.829 27.167l55.902-40.229c9.927-7.314 22.465-10.971 35.004-10.971 16.196 0 30.824 6.269 42.318 17.763l60.604 60.604c20.898 20.898 23.51 53.29 6.269 77.322l-40.229 55.902c10.971 21.42 20.376 43.363 27.167 65.829l67.918 11.494c28.735 4.702 50.155 29.78 50.155 59.037v85.159c0.522 29.78-20.376 54.335-49.633 59.559v0zM943.020 406.727c0-2.612-1.567-4.702-4.702-5.224l-85.159-14.106c-10.971-1.567-19.331-9.927-21.943-19.853-7.837-29.78-19.331-58.514-35.004-84.637-5.224-9.404-5.224-20.898 1.045-29.78l50.155-70.531c1.567-2.090 1.045-5.224-0.522-6.792l-60.604-60.604c-1.567-1.567-2.612-1.567-3.657-1.567s-2.090 0.522-3.135 1.045l-70.531 50.155c-8.882 6.269-20.376 6.792-29.78 1.045-26.645-15.673-54.857-27.69-84.637-35.004-10.449-2.612-18.286-11.494-19.853-21.943l-14.629-85.159c-0.522-2.612-2.612-4.702-5.224-4.702h-85.159c-2.612 0-4.702 1.567-5.224 4.702l-14.106 84.637c-1.567 10.971-9.927 19.331-19.853 21.943-28.735 7.314-56.947 18.808-83.069 33.959-4.18 2.612-8.882 3.657-13.584 3.657-5.224 0-10.971-1.567-15.673-5.224l-71.053-50.678c-1.045-0.522-2.090-1.045-3.135-1.045s-2.612 0-3.657 1.567l-60.604 60.604c-1.567 1.567-2.090 4.702-0.522 6.792l49.633 70.008c6.269 8.882 6.792 20.898 1.045 29.78-15.673 26.122-28.212 54.857-35.527 84.637-2.612 10.449-11.494 18.286-21.943 19.853l-85.682 14.629c-2.612 0.522-4.702 2.612-4.702 5.224v85.682c0 2.612 1.567 4.702 4.702 5.224l84.637 14.106c10.971 1.567 19.331 9.927 21.943 20.376 7.314 29.78 18.808 58.514 34.482 85.159 5.224 9.404 4.702 20.898-1.567 29.78l-50.678 71.053c-1.567 2.090-1.045 5.224 0.522 6.792l60.604 60.082c1.567 1.567 2.612 1.567 3.657 1.567s2.090-0.522 3.135-1.045l70.008-49.633c8.882-6.269 20.898-6.792 29.78-1.045 26.122 15.673 54.857 28.212 84.637 35.527 10.449 2.612 18.286 11.494 19.853 21.943l14.629 85.682c0.522 2.612 2.612 4.702 5.224 4.702h85.159c2.612 0 4.702-1.567 5.224-4.702l14.106-84.637c1.567-10.971 9.927-19.331 20.376-21.943 30.824-7.837 59.559-19.853 86.727-35.527 9.404-5.224 20.898-5.224 29.78 1.045l70.008 50.155c1.045 0.522 2.090 1.045 3.135 1.045s2.612 0 3.657-1.567l60.604-60.604c1.567-1.567 2.090-4.702 0.522-6.792l-49.11-70.008c-6.269-8.882-6.792-20.376-1.045-29.78 15.673-26.645 27.69-54.857 35.004-84.637 2.612-10.449 11.494-18.286 21.943-19.853l85.159-14.629c2.612-0.522 4.702-2.612 4.702-5.224l-0.522-85.682zM512.522 658.547c-115.461 0-209.502-93.518-209.502-208.98s94.041-209.502 209.502-209.502c115.461 0 209.502 94.041 209.502 209.502-0.522 115.461-94.041 208.98-209.502 208.98v0zM512.522 294.922c-85.159 0-154.645 69.486-154.645 154.645s69.486 154.645 154.645 154.645 154.645-69.486 154.645-154.645c-0.522-85.159-69.486-154.645-154.645-154.645v0z" />
<glyph unicode="&#xe924;" glyph-name="triangle-down" d="M26.122 737.437h971.755l-485.878-578.873z" />
<glyph unicode="&#xe925;" glyph-name="document-alt" d="M761.208 95.347h-637.388c-10.971 0-19.853 8.882-19.853 19.853v411.167h39.184v-391.837h597.682v760.163h-597.159v-237.192h-39.184v256.522c0 10.971 8.882 19.853 19.331 19.853h636.865c10.971 0 19.853-8.882 19.853-19.853v-799.347c0-10.971-8.882-19.331-19.331-19.331zM104.49 626.678h39.184v-64.784h-39.184v64.784zM442.514 542.041h-201.143c-10.971 0-19.853 8.882-19.853 19.853v202.71c0 10.971 8.882 19.853 19.853 19.853h201.143c10.971 0 19.853-8.882 19.853-19.853v-203.233c0-10.449-8.882-19.331-19.853-19.331zM261.224 581.224h161.959v164.049h-161.959v-164.049zM517.224 784.457h145.241v-39.184h-145.241v39.184zM517.224 695.118h145.241v-39.184h-145.241v39.184zM517.224 605.78h145.241v-39.184h-145.241v39.184zM440.424 463.151h222.563v-39.184h-222.563v39.184zM440.424 301.192h222.563v-39.184h-222.563v39.184zM286.302 367.543c-4.702 0-9.404 1.567-13.061 4.702l-44.931 40.229 26.122 29.257 30.824-27.167 67.918 72.62 28.735-26.645-80.98-86.727c-4.18-4.18-9.404-6.269-14.629-6.269zM286.302 218.645c-4.702 0-9.404 1.567-13.061 4.702l-44.931 40.229 26.122 29.257 30.824-27.167 67.918 72.62 28.735-26.645-80.98-86.727c-4.18-4.18-9.404-6.269-14.629-6.269zM832.261 29.518h-560.065v39.184h540.735v717.845h-14.629v39.184h33.959c10.971 0 19.853-8.882 19.853-19.853v-757.029c0-10.449-8.882-19.331-19.853-19.331zM900.18-37.878h-560.065v39.184h540.735v711.053h-14.629v39.184h33.959c10.971 0 19.853-8.882 19.853-19.853v-750.237c-0.522-10.449-9.404-19.331-19.853-19.331z" />
<glyph unicode="&#xe926;" glyph-name="phone" d="M996.31 268.8l-44.408-5.224c12.016-102.922-62.694-196.441-165.616-208.457l5.224-44.408c127.478 14.629 219.429 130.612 204.8 258.090v0zM916.898 259.918l-44.408-5.224c6.792-59.559-36.049-112.849-95.086-120.163l5.224-44.408c83.592 9.404 143.673 85.682 134.269 169.796v0zM27.69 627.2l44.408 5.224c-11.494 102.922 62.694 196.441 165.616 208.457l-5.224 44.408c-127.478-14.629-219.429-130.612-204.8-258.090v0zM107.102 636.082l44.408 5.224c-6.792 59.559 36.049 112.849 95.086 120.163l-5.224 44.408c-83.592-9.404-143.673-85.682-134.269-169.796v0zM329.665 718.106c1.567-3.135 4.702-4.18 7.837-3.135l93.518 41.273c3.135 1.567 4.18 4.702 3.135 7.837-1.045 2.612-4.702 4.18-7.837 3.135l-93.518-41.273c-3.135-1.045-4.18-4.702-3.135-7.837v0zM827.037 252.082l-251.82 566.857c-10.971 24.555-39.706 35.527-63.739 24.555l-292.049-129.567c-24.555-10.971-35.527-39.706-24.555-63.739l251.298-566.857c10.971-24.555 39.706-35.527 63.739-24.555l292.049 129.567c24.555 10.449 35.527 39.184 25.078 63.739zM646.269 145.502c-12.016-5.224-26.645 0-31.869 12.539-5.224 12.016 0 26.645 12.016 31.869s26.645 0 31.869-12.016c5.747-12.539 0-27.167-12.016-32.392zM460.278 134.531l-223.608 503.118 319.216 141.584 223.086-503.118-318.694-141.584z" />
<glyph unicode="&#xe927;" glyph-name="twitter-bordered" d="M861.518 620.408c-24.555-10.449-50.155-17.763-77.322-21.42 27.69 16.718 49.11 42.841 59.037 74.188-26.122-15.673-54.857-26.645-85.159-32.392-24.555 26.122-60.082 42.318-98.22 42.318-74.188 0-134.269-60.604-134.269-134.269 0-10.449 1.045-20.898 3.135-30.824-111.804 5.224-210.547 59.037-276.898 140.539-11.494-20.376-18.286-43.363-18.286-67.918 0-46.498 24.033-87.771 59.559-111.804-21.42 0.522-42.841 6.792-60.604 16.718 0-0.522 0-1.045 0-1.567 0-65.306 46.498-119.641 107.624-132.18-10.971-3.135-22.988-4.18-35.004-4.18-8.359 0-17.241 0.522-25.6 2.090 17.241-53.29 66.873-92.473 125.388-93.518-45.976-35.527-103.967-57.469-166.661-57.469-10.971 0-21.42 0.522-32.392 2.090 59.559-38.139 130.090-60.082 206.367-60.082 247.118 0 382.433 204.8 382.433 382.433 0 5.747 0 11.494-0.522 17.241 26.645 19.331 49.11 42.841 67.396 70.008zM512-37.878c-268.016 0-485.878 217.861-485.878 485.878s217.861 485.878 485.878 485.878 485.878-217.861 485.878-485.878-217.861-485.878-485.878-485.878zM512 900.441c-249.208 0-452.441-202.71-452.441-452.441s202.71-452.441 452.441-452.441c249.208 0 452.441 202.71 452.441 452.441s-203.233 452.441-452.441 452.441z" />
<glyph unicode="&#xe928;" glyph-name="twitter" d="M997.878 749.453c-36.049-15.673-74.71-26.122-114.939-31.347 41.273 24.555 72.62 63.216 87.771 110.237-38.661-22.988-80.98-39.184-126.433-48.065-36.571 39.184-88.816 63.216-145.763 63.216-110.237 0-199.053-89.339-199.053-199.053 0-15.673 1.567-30.824 4.702-45.453-165.616 7.314-311.902 86.727-410.122 207.412-17.241-29.78-27.167-63.739-27.167-100.833 0-68.963 35.527-130.090 88.294-165.616-31.869 0.522-63.216 9.927-89.861 24.555 0-0.522 0-1.567 0-2.090 0-96.653 68.963-177.11 159.869-195.918-16.196-4.18-33.959-6.792-52.245-6.792-12.539 0-25.6 0.522-37.616 3.657 25.6-78.89 99.265-136.882 185.992-138.971-68.441-52.767-154.122-84.637-247.641-84.637-16.196 0-31.869 0.522-47.543 2.612 88.294-56.947 192.784-89.339 305.633-89.339 366.759 0 566.857 303.543 566.857 566.857 0 8.882-0.522 17.241-0.522 25.6 39.706 28.212 72.62 63.739 99.788 103.967z" />
<glyph unicode="&#xe929;" glyph-name="skills" d="M631.118 263.576c-2.612-6.269-7.314-10.971-13.061-13.584l-162.482-69.486c6.792-25.6 30.302-43.363 56.947-43.363 32.392 0 59.037 26.122 59.037 59.037 0 13.584 10.971 24.555 24.555 24.555s24.555-10.971 24.555-24.555c0-59.559-48.588-108.147-108.147-108.147s-108.147 48.588-108.147 108.147c0 9.927 5.747 18.808 15.151 22.465l179.2 76.8c12.539 5.224 27.167-0.522 32.392-13.061 0 0 0 0 0 0 2.612-5.747 2.612-12.539 0-18.808v0zM720.457 425.535c-25.078-39.184-60.604-70.008-102.4-89.861-0.522 0-0.522-0.522-1.045-0.522l-176.065-75.233c-12.539-5.224-27.167 0.522-32.392 13.061 0 0 0 0 0 0-5.224 12.539 0.522 27.167 13.061 32.392l176.065 75.233c68.441 32.914 112.849 103.445 112.849 179.2 0 109.714-89.339 198.531-198.531 198.531-109.714 0-198.531-89.339-198.531-198.531 0-72.098 38.661-138.449 101.355-173.453l130.090 55.902c12.539 5.224 27.167-0.522 32.392-13.061 0 0 0 0 0 0 2.612-5.747 2.612-12.539 0.522-18.808-2.612-6.269-7.314-10.971-13.061-13.584l-140.539-60.604c-1.045-0.522-2.090-0.522-3.135-1.045-5.747-1.567-12.016-1.045-17.763 1.567-41.273 20.376-75.755 51.2-100.31 89.861-25.078 39.706-38.661 85.682-38.661 132.702 0 66.351 25.6 128.522 72.62 175.543s109.192 72.62 175.543 72.62c66.351 0 128.522-25.6 175.543-72.62s72.62-109.192 72.62-175.543c-0.522-47.543-14.629-93.518-40.229-133.747v0zM536.555 711.314c0-13.584-10.971-24.555-24.555-24.555-70.008 0-126.955-56.947-126.955-126.955 0-13.584-10.971-24.555-24.555-24.555s-24.555 10.971-24.555 24.555c0 97.176 78.89 176.065 176.065 176.065 13.584 0 24.555-10.971 24.555-24.555zM512 933.878c-268.539 0-485.878-217.339-485.878-485.878s217.339-485.878 485.878-485.878 485.878 217.339 485.878 485.878c0 268.539-217.339 485.878-485.878 485.878zM509.91 15.412c-240.327 0-434.678 194.873-434.678 434.678 0 240.327 194.873 434.678 434.678 434.678 240.327 0 434.678-194.873 434.678-434.678s-194.873-434.678-434.678-434.678v0z" />
<glyph unicode="&#xe92a;" glyph-name="camera" d="M931.527 93.78h-839.053c-37.616 0-66.351 28.735-66.351 66.351v485.878c0 37.616 28.735 66.351 66.351 66.351h192.261c8.882 0 15.673 4.18 19.853 10.971l19.853 41.796c8.882 21.943 32.914 37.616 59.559 37.616h253.91c26.645 0 50.678-15.673 59.559-37.616l19.853-37.616c4.18-6.792 10.971-10.971 19.853-10.971h194.351c37.616 0 66.351-28.735 66.351-66.351v-485.878c0-42.318-28.735-70.531-66.351-70.531zM92.473 667.951c-13.061 0-21.943-8.882-21.943-21.943v-485.878c0-13.061 8.882-21.943 21.943-21.943h839.053c13.061 0 21.943 8.882 21.943 21.943v485.878c0 13.061-8.882 21.943-21.943 21.943h-194.351c-24.033 0-46.498 13.061-59.559 35.527l-19.853 39.706c-4.18 8.882-10.971 10.971-19.853 10.971h-253.91c-8.882 0-15.673-4.18-19.853-10.971l-19.853-41.796c-8.882-21.943-32.914-37.616-59.559-37.616h-192.261v4.18zM512 182.073c-121.208 0-220.996 99.265-220.996 220.996s99.265 220.996 220.996 220.996 220.996-99.265 220.996-220.996-99.788-220.996-220.996-220.996zM512 579.657c-97.176 0-176.588-79.412-176.588-176.588s79.412-176.588 176.588-176.588 176.588 79.412 176.588 176.588-79.412 176.588-176.588 176.588z" />
<glyph unicode="&#xe92b;" glyph-name="chat" d="M933.616 183.641c14.106-33.437 34.482-64.784 59.037-91.429 4.18-4.18 5.747-9.404 3.135-14.629-2.090-6.269-6.269-8.882-11.494-8.882-51.722 0-101.878 14.106-149.943 41.796-58.514-28.212-122.776-42.841-187.559-41.796-67.918-1.045-135.314 14.629-195.918 45.453-53.812 26.122-98.743 67.918-128.522 119.641 87.771-10.971 176.588 3.135 256.522 40.751 58.514 26.122 109.192 66.873 148.376 118.073 42.318 55.902 61.649 125.91 52.245 195.918 64.261-20.376 116.506-53.29 157.257-98.743 40.229-45.453 60.604-96.131 60.604-152.555s-21.42-107.624-64.261-154.122v0.522zM727.771 555.102c0-48.588-15.673-94.041-47.020-135.837-31.347-41.273-74.188-74.188-128-98.743-53.29-23.51-111.804-36.049-176.065-36.049-64.784-0.522-129.045 13.584-187.559 41.796-48.065-27.69-98.743-41.796-149.943-41.796-6.269 0-9.927 3.135-12.539 8.882-2.090 5.747-0.522 10.449 3.657 14.629 4.18 4.702 10.971 13.584 20.376 27.167 16.718 21.42 29.78 43.363 38.661 64.261-77.845 78.367-85.159 203.233-16.718 289.959 30.824 41.796 74.188 74.71 126.955 98.743 53.812 24.555 112.327 36.571 176.588 36.571s122.776-12.539 176.065-36.571c53.812-24.033 96.131-56.947 128-98.743 31.869-41.273 47.543-86.204 47.543-134.269z" />
<glyph unicode="&#xe92c;" glyph-name="refresh" d="M512 114.155c78.367 0 147.853 24.033 207.935 72.098 59.037 45.976 99.788 111.282 116.506 183.902 1.045 5.224 4.18 9.404 8.882 12.539 4.18 3.135 8.882 4.702 14.106 4.702h93.518c7.837 0 13.584-2.612 18.286-8.882 4.18-5.747 5.747-11.494 4.702-18.286-28.735-143.673-121.208-266.449-251.82-333.322-65.306-33.437-137.927-50.678-211.592-50.155-137.927-0.522-269.584 60.082-358.922 165.094l7.837-155.69c1.567-7.837 0-14.106-4.702-18.286-4.702-4.702-11.494-6.792-18.286-6.792h-89.339c-6.269 0-12.016 2.612-16.196 6.792s-6.792 9.927-6.792 16.196v380.343c0 6.792 2.090 12.016 6.792 16.196 4.18 4.702 9.404 6.792 16.196 6.792h379.298c6.792 0 12.016-2.090 16.196-6.792 4.702-4.18 6.792-9.404 6.792-16.196v-89.339c0-6.269-2.090-11.494-6.792-16.196-4.18-4.18-9.927-6.792-16.196-6.792l-193.306 9.927c61.649-92.996 165.616-148.376 276.898-147.853v0zM863.086 908.8c0 7.837 2.090 14.106 6.792 18.286 4.702 4.702 9.927 6.792 16.196 6.792h89.339c6.792 0 12.016-2.090 16.196-6.792 4.702-4.18 6.792-9.404 6.792-16.196v-379.298c0-6.792-2.090-12.016-6.792-16.196-4.18-4.18-9.927-6.792-16.196-6.792h-379.82c-6.269 0-12.016 2.612-16.196 6.792s-6.792 9.927-6.792 16.196v89.339c0 6.269 2.090 11.494 6.792 16.196s10.971 7.314 17.763 6.792l191.739-9.927c-61.649 92.996-165.616 148.898-276.898 148.376-78.367 0-147.853-24.033-207.935-72.098-59.037-45.976-99.788-111.282-116.506-183.902-1.045-5.224-4.18-9.404-8.882-12.539-4.18-3.135-8.882-4.702-14.106-4.702h-93.518c-7.314 0-13.584 3.135-18.286 8.882-4.18 5.224-5.747 11.494-4.702 18.286 28.735 143.673 121.208 266.449 251.82 333.322 65.306 33.437 137.927 50.678 211.592 50.155 137.927 0.522 269.584-60.082 358.922-165.094l-7.314 154.122z" />
<glyph unicode="&#xe92d;" glyph-name="chevron-right" d="M136.882 934.4h241.371l512.522-486.922-512.522-484.833h-241.371l512.522 484.833z" />
<glyph unicode="&#xe92e;" glyph-name="chevron-left" d="M648.359-37.355l-512 484.833 512 486.922h241.371l-512-486.922 512-484.833z" />
<glyph unicode="&#xe92f;" glyph-name="pdf" d="M690.155 288.131c-3.657-1.567-10.449 0-18.808 2.090-13.061 2.612-27.69 7.837-45.976 15.151 20.898 1.567 36.049 0.522 47.020-0.522 12.016-2.090 18.808-4.702 22.465-7.837 2.612-3.657 3.657-5.747 0.522-6.792-1.045-1.045-2.090-2.090-5.224-2.090zM493.192 385.306c15.151-29.257 34.482-52.245 57.469-69.486-20.898-3.657-48.588-12.539-82.547-26.122l-22.988-9.927c15.151 25.6 31.347 61.127 48.588 105.535h-0.522zM502.073 509.127c0-21.42-1.567-36.571-5.747-45.976-4.702 10.971-6.792 27.69-6.792 47.020 0 20.898 0.522 30.302 3.657 30.302 6.269 0.522 8.882-10.449 8.882-31.347v0zM388.702 239.020l7.837 5.747c-14.629-22.465-31.869-43.886-51.2-62.694-4.702-3.657-6.792-4.702-6.792-3.657 4.18 15.673 20.898 35.004 50.155 60.604v0zM591.935 337.763c-31.869 19.331-55.38 48.588-70.008 89.339v2.090c12.539 50.678 15.151 84.637 8.882 101.878-2.090 16.718-8.882 27.69-20.898 33.437-10.971 5.747-24.555 6.792-36.049 2.090-12.539-4.18-20.376-12.539-22.988-23.51-6.792-24.033-2.612-66.873 14.106-126.955-25.6-58.514-48.588-105.535-68.963-141.061-58.514-30.302-90.384-59.559-97.176-87.249-0.522-8.359 2.090-18.286 8.359-27.69 6.269-8.882 16.196-14.106 29.257-15.151 14.106-1.567 27.69 4.702 44.408 18.808 20.898 17.241 41.796 44.931 64.784 83.069l22.988 7.837c48.588 16.718 83.069 26.122 106.057 30.302 32.914-18.808 70.008-29.78 107.624-32.392 14.106 0 25.078 4.702 31.869 14.106 6.792 8.882 10.449 19.853 10.449 31.347 0.522 10.971-3.657 21.42-10.971 29.257-17.241 15.673-57.469 19.853-121.731 10.449zM238.759 842.971h304.065v-198.008c0-12.539 4.702-23.51 14.106-31.869 8.359-8.882 19.331-14.106 31.869-14.106h198.008v-547.004h-547.527l-0.522 790.988zM633.731 690.939v144.196l144.196-144.196h-144.196zM690.155 907.233c-16.718 17.241-40.229 26.645-64.784 26.122h-387.135c-25.078 0-46.498-8.882-64.784-26.122-17.241-18.286-26.122-39.706-26.122-64.784v-789.943c0-25.078 8.882-46.498 26.122-64.784 18.286-17.241 39.706-26.122 64.784-26.122h547.004c25.078 0 46.498 8.882 64.784 26.122 17.241 18.286 26.122 39.706 26.122 64.784v630.596c0 25.6-8.882 47.020-26.122 64.784l-159.869 159.347z" />
<glyph unicode="&#xe930;" glyph-name="excel" d="M572.604 675.788v258.090h-379.298c-25.078 0-45.453-20.376-45.453-45.453v-880.849c0-25.078 20.376-45.453 45.453-45.453h637.388c25.078 0 45.453 20.376 45.453 45.453v622.759h-258.090c-25.078 0-45.453 20.376-45.453 45.453zM687.020 473.6l-113.894-177.633 113.894-177.633c9.927-15.151-1.045-35.004-19.331-35.004h-66.351c-8.359 0-16.196 4.702-20.376 12.016-37.094 68.963-69.486 130.612-69.486 130.612-12.016-28.212-18.808-38.139-69.486-130.612-4.18-7.314-11.494-12.016-19.853-12.016h-65.829c-18.286 0-28.735 19.853-19.331 35.004l114.416 177.633-114.416 177.633c-9.927 15.151 1.045 35.004 19.331 35.004h65.829c8.359 0 16.196-4.702 20.376-12.016 49.633-92.473 38.139-63.739 69.486-130.090 0 0 11.494 22.465 69.486 130.090 4.18 7.314 12.016 12.016 20.376 12.016h65.829c17.763 0 28.735-19.853 19.331-35.004v0zM876.669 702.433v-11.494h-242.939v242.939h11.494c12.016 0 23.51-4.702 32.392-13.061l185.992-185.992c7.837-8.882 13.061-20.376 13.061-32.392z" />
<glyph unicode="&#xe931;" glyph-name="image" d="M876.669 702.433v-11.494h-242.939v242.939h11.494c12.016 0 23.51-4.702 32.392-13.584l185.992-185.992c7.837-8.359 12.539-19.853 13.061-31.869zM618.057 630.335c-25.078 0-45.453 20.376-45.453 45.453v258.090h-379.298c-25.078 0-45.453-20.376-45.453-45.453v-880.849c0-25.078 20.376-45.453 45.453-45.453h637.388c25.078 0 45.453 20.376 45.453 45.453v622.759h-258.090zM361.012 600.033c50.155 0 90.906-40.751 90.906-90.906s-40.751-90.906-90.906-90.906-90.906 40.229-90.906 90.384 40.751 91.429 90.906 91.429zM755.984 144.457h-485.878l1.045 91.951 75.233 75.233c8.882 8.882 22.465 7.837 31.347-1.045l75.233-75.233 196.441 196.441c8.882 8.882 23.51 8.882 32.392 0l75.233-75.233-1.045-212.114z" />
<glyph unicode="&#xe932;" glyph-name="pdf-alt" d="M492.669 448c-9.404 30.302-9.404 88.816-3.657 88.816 16.196 0 14.629-70.008 3.657-88.816zM489.535 358.139c-14.629-38.139-32.914-82.024-53.812-119.118 34.482 13.061 74.188 32.392 119.641 41.796-24.555 18.286-47.543 44.408-65.829 77.322v0zM310.857 121.469c0-1.567 25.078 10.449 66.351 76.278-12.539-12.016-55.38-46.498-66.351-76.278zM618.057 630.335h258.090v-622.759c0-25.078-20.376-45.453-45.453-45.453h-637.388c-25.078 0-45.453 20.376-45.453 45.453v880.849c-0.522 25.078 19.853 45.453 45.453 45.453h379.82v-258.090c-0.522-25.078 19.853-45.453 44.931-45.453zM602.906 304.327c-38.139 22.988-63.216 54.857-80.98 101.878 8.359 35.004 21.943 88.294 12.016 121.731-8.882 55.902-80.457 50.678-90.906 13.061-9.404-34.482-0.522-83.592 15.151-146.286-21.943-52.245-54.335-122.776-77.322-163.004 0 0 0 0-0.522 0-51.2-26.122-139.494-84.637-103.445-129.045 10.449-13.061 30.302-18.808 40.751-18.808 33.959 0 67.918 33.959 115.984 117.551 49.11 16.196 102.922 36.049 149.943 43.886 41.273-22.465 89.339-37.094 121.208-37.094 55.38 0 59.037 60.604 37.616 82.547-26.122 25.6-102.922 18.286-139.494 13.584zM863.086 734.824l-185.992 185.992c-8.359 8.359-19.853 13.061-32.392 13.061h-11.494v-242.939h242.939v11.494c0.522 12.016-4.702 23.51-13.061 32.392zM722.547 249.992c7.837 5.224-4.702 22.465-80.98 17.241 70.008-30.302 80.98-17.241 80.98-17.241z" />
<glyph unicode="&#xe933;" glyph-name="powerpoint" d="M515.135 419.265c16.718 0 29.257-5.224 38.661-15.151 18.286-20.898 18.808-62.171-0.522-83.592-9.404-10.449-22.465-16.196-40.229-16.196h-51.2v115.461h53.29zM863.086 734.824l-185.992 185.992c-8.359 8.359-19.853 13.061-32.392 13.061h-11.494v-242.939h242.939v11.494c0.522 12.016-4.702 23.51-13.061 32.392zM572.604 675.788v258.090h-379.298c-25.078 0-45.453-20.376-45.453-45.453v-880.849c0-25.078 20.376-45.453 45.453-45.453h637.388c25.078 0 45.453 20.376 45.453 45.453v622.759h-258.090c-25.078 0-45.453 20.376-45.453 45.453zM673.437 362.318c0-171.363-168.751-147.331-211.069-147.331v-108.669c0-12.539-10.449-22.988-22.988-22.988h-57.992c-12.539 0-22.988 10.449-22.988 22.988v379.298c0 12.539 10.449 22.988 22.988 22.988h153.6c84.637 0 138.449-62.694 138.449-146.286z" />
<glyph unicode="&#xe934;" glyph-name="file-word" d="M572.604 675.788v258.090h-379.298c-25.078 0-45.453-20.376-45.453-45.453v-880.849c0-25.078 20.376-45.453 45.453-45.453h637.388c25.078 0 45.453 20.376 45.453 45.453v622.759h-258.090c-25.078 0-45.453 20.376-45.453 45.453zM681.273 448h45.453c14.629 0 25.6-13.584 22.465-27.69l-72.098-318.694c-2.090-10.449-11.494-17.763-22.465-17.763h-72.098c-10.449 0-19.331 7.314-21.943 17.241-49.11 196.441-39.706 154.122-48.588 209.502h-1.045c-2.090-27.167-4.702-32.914-48.588-209.502-2.612-9.927-11.494-17.241-21.943-17.241h-70.531c-10.449 0-19.853 7.314-22.465 17.763l-71.576 318.694c-3.135 14.106 7.837 27.69 22.465 27.69h46.498c10.971 0 20.376-7.837 22.465-18.286 29.78-147.853 38.139-207.935 39.706-231.967 3.135 19.331 14.106 62.171 55.902 233.012 2.612 10.449 11.494 17.241 22.465 17.241h55.38c10.449 0 19.853-7.314 22.465-17.241 45.453-190.694 54.857-235.102 56.424-245.551-0.522 21.42-4.702 33.959 40.751 245.029 1.045 10.449 9.927 17.763 20.898 17.763zM876.669 702.433v-11.494h-242.939v242.939h11.494c12.016 0 23.51-4.702 32.392-13.061l185.992-185.992c7.837-8.882 13.061-20.376 13.061-32.392z" />
<glyph unicode="&#xe935;" glyph-name="play" d="M512 933.878c87.771 0 168.229-21.943 242.939-65.829s133.747-102.922 177.11-177.11 65.829-155.167 65.829-242.939c0-87.771-21.943-168.751-65.829-242.939s-102.922-133.747-177.11-177.11-155.167-65.829-242.939-65.829-168.229 21.943-242.939 65.829-133.747 102.922-177.11 177.11-65.829 155.167-65.829 242.939c0 87.771 21.943 168.229 65.829 242.939s102.922 133.747 177.11 177.11 155.167 65.829 242.939 65.829zM739.265 400.98c15.673 9.404 23.51 22.988 23.51 41.273s-7.837 31.869-23.51 41.273l-344.816 209.502c-15.673 9.404-31.347 9.404-47.020 0s-23.51-22.988-23.51-41.273v-407.51c0-18.286 7.837-31.869 23.51-41.273s31.347-9.404 47.020 0l344.816 198.008z" />
<glyph unicode="&#xe936;" glyph-name="unmute" d="M673.959 873.273v-850.024c0-54.335-65.829-80.98-103.445-42.841l-225.176 225.176h-258.612c-33.437 0-60.604 27.167-60.604 60.604v364.147c0 33.437 27.167 60.604 60.604 60.604h258.090l225.176 225.176c38.139 38.139 103.967 11.494 103.967-42.841zM997.878 448c0 85.159-43.363 163.004-116.506 207.412-38.139 23.51-87.771 11.494-111.282-26.645s-11.494-87.771 26.645-111.282c24.555-14.629 38.661-40.751 38.661-68.963 0-26.645-13.061-51.722-35.004-66.873-36.571-25.6-45.976-75.755-20.376-112.849 25.6-36.571 75.755-45.976 112.849-20.376 65.829 45.453 105.012 120.163 105.012 199.576z" />
<glyph unicode="&#xe937;" glyph-name="acronym" d="M439.38 690.939v-485.878h146.286c79.935 0.522 145.241 65.829 145.241 145.763 0 51.722-26.645 97.176-67.396 122.776 12.016 20.898 18.808 45.453 18.808 71.576 0 80.457-65.306 145.763-145.763 145.763v0 0h-97.176zM220.473 690.939l-194.351-485.878h97.176l18.808 48.588h156.735l18.808-48.588h97.176c-63.739 170.318-130.612 316.082-194.351 485.878zM997.878 690.939c-134.269 0-242.939-108.669-242.939-242.939s108.669-242.939 242.939-242.939v97.176c-80.457 0-145.763 65.306-145.763 145.763s65.306 145.763 145.763 145.763v97.176zM536.555 593.763v0c26.645 0 48.588-21.943 48.588-48.588s-21.943-48.588-48.588-48.588v97.176zM220.473 455.314l40.751-104.49h-81.502l40.751 104.49zM584.62 399.412v0 0c26.645 0 48.588-21.943 48.588-48.588s-21.943-48.588-48.588-48.588v0h-48.588v97.176c2.612 0 48.588 0 48.588 0z" />
<glyph unicode="&#xe938;" glyph-name="bell" d="M510.955-35.788c-80.98 0-147.331 66.351-147.331 147.331 0 11.494 9.404 20.376 20.376 20.376h252.865c11.494 0 20.376-9.404 20.376-20.376 1.045-80.98-65.306-147.331-146.286-147.331zM408.033 90.122c10.449-48.065 52.767-84.637 102.922-84.637s93.518 36.571 102.922 84.637h-205.845zM883.461 90.122h-745.535c-61.649 0-110.759 50.155-110.759 110.759 0 56.947 42.318 103.967 98.22 110.759 9.404 20.376 28.735 72.098 28.735 143.151 0 7.837 0 16.196 0 26.122-2.090 80.98-6.792 251.298 97.176 356.833 60.604 61.649 148.376 94.041 261.747 94.041s201.143-30.824 261.747-93.518c102.922-106.58 98.22-275.331 97.176-356.833 0-10.449 0-19.331 0-26.122 0-71.053 19.331-122.253 28.735-143.151 54.857-6.792 98.22-53.812 98.22-110.759-4.702-61.127-54.857-111.282-115.461-111.282zM510.955 889.469c-101.878 0-179.722-27.69-230.922-79.935-90.384-92.996-87.249-245.029-84.637-327.053 0-10.449 0-19.331 0-27.69 0-103.967-36.571-170.318-38.661-173.976-3.657-6.792-10.449-10.449-18.286-10.449-37.616 0-69.486-30.824-69.486-69.486 0-37.616 30.824-69.486 69.486-69.486h745.535c37.616 0 69.486 30.824 69.486 69.486 0 37.616-30.824 69.486-69.486 69.486-7.837 0-14.629 4.702-18.286 10.449-1.045 2.090-38.661 68.441-38.661 173.976 0 7.837 0 17.241 0 27.69 2.090 80.98 5.747 233.012-84.637 327.053-52.245 53.29-130.090 79.935-231.445 79.935zM287.869 580.702v0c-12.539 0-21.943 10.449-20.376 21.943 7.837 202.188 176.065 244.506 177.11 244.506 11.494 2.090 22.988-4.702 25.078-16.196s-4.702-22.988-16.196-25.078c-5.747-1.045-138.449-36.571-145.241-205.845 0-10.449-8.882-19.331-20.376-19.331zM883.461 90.122h-745.535c-61.649 0-110.759 50.155-110.759 110.759s50.155 110.759 110.759 110.759h531.853c11.494 0 20.376-9.404 20.376-20.376 0-11.494-9.404-20.376-20.376-20.376h-531.853c-37.616 0-69.486-30.824-69.486-69.486 0-37.616 30.824-69.486 69.486-69.486h745.535c37.616 0 69.486 30.824 69.486 69.486 0 37.616-30.824 69.486-69.486 69.486h-97.176c-11.494 0-20.376 9.404-20.376 20.376 0 11.494 9.404 20.376 20.376 20.376h97.176c61.649 0 110.759-50.155 110.759-110.759s-50.155-110.759-110.759-110.759z" />
<glyph unicode="&#xe939;" glyph-name="calendar" d="M1000.49 557.192h-971.755v181.29c0 26.645 11.494 42.841 20.898 51.2 23.51 20.898 57.469 19.853 64.784 18.808h807.184c59.037 0 77.322-45.453 78.367-69.486v-181.812h0.522zM66.873 594.808h896v142.629c-0.522 6.269-5.224 33.437-40.751 33.437h-810.318c-6.792 0.522-26.122 0-36.571-9.404-5.747-5.224-8.359-12.539-8.359-23.51 0 0 0-143.151 0-143.151zM252.343 884.245h37.616v-201.143h-37.616v201.143zM742.4 884.245h37.616v-201.143h-37.616v201.143zM829.649 10.188h-725.159c-26.122 0-46.498 7.837-59.559 22.988-16.718 18.808-16.196 42.318-15.673 48.588v422.139h37.616v-425.273c0 0-1.045-12.016 6.269-20.376 5.747-6.792 16.718-9.927 31.347-9.927h708.963l149.42 158.302v297.273h37.616v-312.424l-170.841-181.29zM840.098 28.996h-37.616v100.833c-2.090 8.882-5.747 36.571 10.971 57.992 8.359 10.449 24.555 22.988 55.38 22.988h113.371v-37.616h-113.371c-12.539 0-20.898-2.612-25.078-8.359-6.792-8.359-4.702-23.51-3.657-28.735l0.522-2.090v-105.012h-0.522zM315.037 675.265c0-23.372-18.947-42.318-42.318-42.318s-42.318 18.947-42.318 42.318c0 23.372 18.947 42.318 42.318 42.318s42.318-18.947 42.318-42.318zM804.049 675.265c0-23.372-18.947-42.318-42.318-42.318s-42.318 18.947-42.318 42.318c0 23.372 18.947 42.318 42.318 42.318s42.318-18.947 42.318-42.318zM470.727 424.49c0-23.372-18.947-42.318-42.318-42.318s-42.318 18.947-42.318 42.318c0 23.372 18.947 42.318 42.318 42.318s42.318-18.947 42.318-42.318zM649.927 424.49c0-23.372-18.947-42.318-42.318-42.318s-42.318 18.947-42.318 42.318c0 23.372 18.947 42.318 42.318 42.318s42.318-18.947 42.318-42.318zM470.727 230.661c0-23.372-18.947-42.318-42.318-42.318s-42.318 18.947-42.318 42.318c0 23.372 18.947 42.318 42.318 42.318s42.318-18.947 42.318-42.318zM313.469 230.661c0-23.372-18.947-42.318-42.318-42.318s-42.318 18.947-42.318 42.318c0 23.372 18.947 42.318 42.318 42.318s42.318-18.947 42.318-42.318zM649.927 230.661c0-23.372-18.947-42.318-42.318-42.318s-42.318 18.947-42.318 42.318c0 23.372 18.947 42.318 42.318 42.318s42.318-18.947 42.318-42.318zM819.2 424.49c0-23.372-18.947-42.318-42.318-42.318s-42.318 18.947-42.318 42.318c0 23.372 18.947 42.318 42.318 42.318s42.318-18.947 42.318-42.318z" />
<glyph unicode="&#xe93a;" glyph-name="fleche" d="M215.771 557.714c-103.445 0-188.082 84.637-188.082 188.082s84.637 188.082 188.082 188.082 188.082-84.637 188.082-188.082-84.637-188.082-188.082-188.082zM215.771 897.829c-83.592 0-152.033-68.441-152.033-152.033s68.441-152.033 152.033-152.033 152.033 68.441 152.033 152.033-67.918 152.033-152.033 152.033zM808.229 557.714c-103.445 0-188.082 84.637-188.082 188.082s84.637 188.082 188.082 188.082 188.082-84.637 188.082-188.082-84.114-188.082-188.082-188.082zM808.229 897.829c-83.592 0-152.033-68.441-152.033-152.033s68.441-152.033 152.033-152.033 152.033 68.441 152.033 152.033-68.441 152.033-152.033 152.033zM200.098 661.682l-75.233 71.053c-7.314 6.792-7.314 18.286-0.522 25.6s18.286 7.314 25.6 0.522l49.633-47.020 88.816 91.951c6.792 7.314 18.286 7.314 25.6 0.522s7.314-18.286 0.522-25.6l-114.416-117.029zM868.31 667.429c-4.702 0-9.404 1.567-12.539 5.224l-120.686 120.686c-6.792 6.792-6.792 18.286 0 25.6 6.792 6.792 18.286 6.792 25.6 0l120.686-120.686c6.792-6.792 6.792-18.286 0-25.6-3.657-3.135-8.359-5.224-13.061-5.224zM748.147 667.429c-4.702 0-9.404 1.567-12.539 5.224-6.792 6.792-6.792 18.286 0 25.6l120.686 120.686c6.792 6.792 18.286 6.792 25.6 0 6.792-6.792 6.792-18.286 0-25.6l-121.208-120.686c-3.135-3.135-7.837-5.224-12.539-5.224zM905.927-37.878c-4.702 0-9.404 2.090-12.539 5.224l-222.041 216.294-42.318-145.241c-2.090-7.314-9.404-12.539-17.241-13.061h-0.522c-7.314 0-14.629 4.702-17.241 12.016l-159.869 466.547c-2.090 6.792-0.522 13.584 4.18 18.808 4.702 4.702 12.016 6.792 18.808 4.18l451.396-156.212c7.314-2.612 12.016-9.404 12.016-17.241s-4.702-14.629-12.016-17.241l-133.224-46.498 216.294-221.518c6.792-6.792 6.792-17.763 0-25.078l-72.62-76.278c-3.657-2.612-8.359-4.702-13.061-4.702v0zM662.465 235.363c4.702 0 9.404-1.567 12.539-5.224l230.4-224.131 48.065 50.678-224.131 229.355c-4.18 4.18-5.747 10.971-4.702 16.718 1.567 5.747 5.747 10.971 11.494 12.539l111.282 38.661-367.282 126.955 130.090-378.253 35.004 119.641c1.567 6.269 6.792 10.971 12.539 12.539 1.567 0.522 3.135 0.522 4.702 0.522z" />
<glyph unicode="&#xe93b;" glyph-name="doc-edit" d="M887.641 628.767l61.649 62.171c14.106 14.106 13.584 36.571 0 50.678l-42.318 42.318c-14.106 14.106-36.571 14.106-50.678 0l-61.649-61.649 92.996-93.518zM342.204 265.143l-22.988-111.282 112.327 21.943-89.339 89.339zM703.216 394.188v-357.878c0-39.706-31.869-71.576-71.576-71.576h-536.555c-39.706 0-71.576 32.392-71.576 71.576v822.857c0 39.706 32.392 71.576 71.576 71.576h357.355v-214.727c0-39.706 31.869-71.576 71.576-71.576h142.629l164.049 164.049c28.212 28.212 73.143 28.212 101.355 0.522l42.318-42.318c27.69-27.69 27.69-73.143-0.522-101.355l-270.629-271.151zM862.041 603.69l-92.996 92.996-403.853-403.853 92.996-92.996 403.853 403.853zM489.012 930.743v-214.727c0-19.853 16.196-36.049 35.527-36.049h179.2l-214.727 250.776z" />
<glyph unicode="&#xe93c;" glyph-name="ajouter-membre" d="M870.4 177.371c0-9.927-0.522-19.331-2.090-28.735-2.612-17.241 136.882 688.065 129.567 672.914-5.747-12.016-464.98 76.8-473.339 66.351-10.971-14.106-297.796 20.376-312.424 9.927-11.494-7.837-172.408-26.645-185.469-31.869-9.404-3.657 144.718-834.351 134.792-836.441-12.016-2.612 541.257-33.437 528.196-33.437-99.788 0-180.767 80.98-180.767 180.767s80.98 180.767 180.767 180.767 180.767-80.457 180.767-180.245zM561.633 667.951c0-51.072-41.402-92.473-92.473-92.473s-92.473 41.402-92.473 92.473c0 51.072 41.402 92.473 92.473 92.473s92.473-41.402 92.473-92.473zM602.384 305.371c4.702 4.702 6.269 11.494 5.747 18.286l-20.898 163.527c-2.612 23.51-21.943 41.796-45.976 41.796h-25.6c-6.269 0-12.016-2.612-16.196-6.792l-29.78-29.78-29.78 29.78c-4.18 4.18-10.449 6.792-16.196 6.792h-25.078c-24.033 0-43.886-17.763-45.976-41.273l-20.898-164.571c-1.045-6.792 1.045-13.061 5.747-18.286 4.18-5.224 10.449-7.837 17.241-7.837h25.078l19.331-236.147c2.090-23.51 21.943-41.796 45.976-41.796h50.678c24.033 0 43.886 17.763 45.976 42.318l19.331 235.624h25.078c5.747 0 12.016 3.135 16.196 8.359zM764.343 667.951c0-51.072-41.402-92.473-92.473-92.473s-92.473 41.402-92.473 92.473c0 51.072 41.402 92.473 92.473 92.473s92.473-41.402 92.473-92.473zM359.445 667.951c0-51.072-41.402-92.473-92.473-92.473s-92.473 41.402-92.473 92.473c0 51.072 41.402 92.473 92.473 92.473s92.473-41.402 92.473-92.473zM810.841 323.135l-20.898 163.527c-2.612 24.033-21.943 41.796-45.976 41.796h-25.6c-6.269 0-12.016-2.612-16.196-6.792l-29.78-29.78-29.78 29.78c-4.18 4.18-10.449 6.792-16.196 6.792h-25.6c-2.612 0-5.224-1.045-8.359-1.567 5.747-10.449 10.449-21.943 12.016-35.004l20.898-163.004c2.612-19.853-3.657-39.706-16.718-54.857-6.269-7.314-14.106-12.539-22.988-16.196l15.151-150.465c2.612-23.51 21.943-41.796 45.976-41.796h50.678c24.033 0 43.886 17.763 45.976 42.318l19.331 189.649h25.078c6.792 0 13.061 2.612 17.241 7.837 4.702 4.702 6.269 11.494 5.747 17.763zM330.188 274.547c-13.061 14.629-19.331 35.004-16.718 54.857l20.898 164.571c1.045 12.539 5.747 23.51 11.494 33.959-2.612 0.522-5.224 1.567-7.837 1.567h-25.6c-6.269 0-12.016-2.612-16.196-6.792l-29.78-29.78-29.78 29.78c-4.18 4.18-10.449 6.792-16.196 6.792h-25.6c-24.033 0-43.886-17.763-45.976-41.273l-20.898-164.571c-1.045-6.792 1.045-13.061 5.747-18.286 4.18-5.224 10.971-7.837 17.241-7.837h25.078l19.331-189.649c2.090-23.51 21.943-41.796 45.976-41.796h50.678c24.033 0 43.886 17.763 45.976 42.318l15.151 150.465c-8.359 3.135-16.196 8.359-22.988 15.673zM690.678 336.718c-87.771 0-159.347-71.053-159.347-159.347s71.053-159.347 159.347-159.347 159.347 71.053 159.347 159.347-71.576 159.347-159.347 159.347zM765.388 164.833h-60.604v-63.739h-28.212v63.739h-60.604v27.167h60.604v62.694h28.212v-63.216h60.604v-26.645z" />
<glyph unicode="&#xe93d;" glyph-name="like-filled" d="M917.42 332.016c13.584 15.151 21.943 35.004 21.943 56.947 0 47.020-38.139 85.159-85.159 85.159h-165.616c16.196 49.633 23.51 115.984 23.51 144.196v28.212c0 62.694-51.2 113.894-113.894 113.894h-28.212c-13.061 0-24.555-8.882-27.69-21.42l-15.673-62.171c-21.943-86.727-90.906-182.857-161.959-200.098-13.584 32.392-44.408 54.857-80.457 54.857h-170.841c-15.673 0-28.212-12.539-28.212-28.212v-512.522c0-15.673 12.539-28.212 28.212-28.212h170.841c33.959 0 63.216 19.853 77.322 48.588l97.698-32.392c31.869-10.449 65.306-16.196 99.265-16.196h238.237c47.020 0 85.159 38.139 85.159 85.159 0 10.971-2.090 21.943-5.747 31.347 36.049 9.927 62.694 42.841 62.694 82.547 0 21.943-8.359 41.796-21.943 56.947 13.584 15.151 21.943 35.004 21.943 56.947s-7.837 41.273-21.42 56.424zM312.947 47.282c0-15.673-12.539-28.212-28.212-28.212h-142.629v455.576h142.106c15.673 0 28.212-12.539 28.212-28.212l0.522-399.151zM255.478 104.229c0-15.581-12.631-28.212-28.212-28.212s-28.212 12.631-28.212 28.212c0 15.581 12.631 28.212 28.212 28.212s28.212-12.631 28.212-28.212zM654.106 846.629v59.037c0 15.673-12.539 28.212-28.212 28.212s-28.212-12.539-28.212-28.212v-59.037c0-15.673 12.539-28.212 28.212-28.212 15.673-0.522 28.212 12.539 28.212 28.212zM505.208 768.261c10.971 10.971 10.971 29.257 0 40.229l-40.229 40.229c-10.971 10.971-29.257 10.971-40.229 0s-10.971-29.257 0-40.229l40.229-40.229c10.971-11.494 29.257-11.494 40.229 0zM786.808 768.261l40.229 40.229c10.971 10.971 10.971 29.257 0 40.229s-29.257 10.971-40.229 0l-40.229-40.229c-10.971-10.971-10.971-29.257 0-40.229 10.971-11.494 29.257-11.494 40.229 0z" />
</font>
</defs>
</svg>
